SplineFontDB: 3.2
FontName: Reijima-ExtraBoldItalic
FullName: Reijima ExtraBold Italic
FamilyName: Reijima ExtraBold
Weight: Heavy
Copyright: Copyright (c) 2019 by Coji Morishita. All rights reserved.
Version: 1.000
ItalicAngle: -9
UnderlinePosition: -100
UnderlineWidth: 50
Ascent: 860
Descent: 140
InvalidEm: 0
LayerCount: 2
Layer: 0 0 "Back" 1
Layer: 1 0 "Fore" 0
FSType: 8
OS2Version: 0
OS2_WeightWidthSlopeOnly: 0
OS2_UseTypoMetrics: 0
CreationTime: 1707357824
ModificationTime: 1707357824
OS2TypoAscent: 0
OS2TypoAOffset: 1
OS2TypoDescent: 0
OS2TypoDOffset: 1
OS2TypoLinegap: 0
OS2WinAscent: 0
OS2WinAOffset: 1
OS2WinDescent: 0
OS2WinDOffset: 1
HheadAscent: 0
HheadAOffset: 1
HheadDescent: 0
HheadDOffset: 1
OS2Vendor: 'PfEd'
DEI: 91125
Encoding: UnicodeFull
Compacted: 1
UnicodeInterp: none
NameList: AGL For New Fonts
DisplaySize: -48
AntiAlias: 1
FitToEm: 0
WinInfo: 0 27 9
BeginPrivate: 3
BlueValues 24 [-10 0 520 530 730 750 ]
OtherBlues 12 [-220 -220 ]
ForceBold 4 true
EndPrivate
BeginChars: 1114125 955

StartChar: .notdef
Encoding: 1114112 -1 0
Width: 477
LayerCount: 2
Fore
SplineSet
328 -140 m 1
 17 -140 l 1
 176 860 l 1
 487 860 l 1
 328 -140 l 1
239 793 m 1
 234 760 l 1
 297 760 l 1
 291 723 l 1
 227 723 l 1
 221 690 l 1
 384 690 l 1
 389 723 l 1
 325 723 l 1
 331 760 l 1
 395 760 l 1
 400 793 l 1
 239 793 l 1
217 664 m 1
 201 560 l 1
 364 560 l 1
 369 594 l 1
 304 594 l 1
 315 664 l 1
 217 664 l 1
271 594 m 1
 239 594 l 1
 244 630 l 1
 277 630 l 1
 271 594 l 1
197 533 m 1
 191 500 l 1
 256 500 l 1
 250 463 l 1
 185 463 l 1
 180 430 l 1
 278 430 l 1
 289 500 l 1
 354 500 l 1
 359 533 l 1
 197 533 l 1
317 473 m 1
 307 407 l 1
 177 407 l 1
 171 373 l 1
 334 373 l 1
 350 473 l 1
 317 473 l 1
232 351 m 1
 224 295 l 1
 257 295 l 1
 261 318 l 1
 293 318 l 1
 285 271 l 1
 187 271 l 1
 200 351 l 1
 168 351 l 1
 150 238 l 1
 313 238 l 1
 330 351 l 1
 232 351 l 1
140 178 m 1
 122 65 l 1
 285 65 l 1
 303 178 l 1
 140 178 l 1
258 98 m 1
 160 98 l 1
 167 145 l 1
 265 145 l 1
 258 98 l 1
119 42 m 1
 114 9 l 1
 182 9 l 1
 106 -38 l 1
 101 -71 l 1
 264 -71 l 1
 269 -38 l 1
 169 -38 l 1
 245 9 l 1
 276 9 l 1
 281 42 l 1
 119 42 l 1
EndSplineSet
EndChar

StartChar: A
Encoding: 65 65 2
Width: 678
Flags: W
LayerCount: 2
Fore
SplineSet
442 0 m 1
 428 151 l 1
 209 151 l 1
 146 0 l 1
 -37 0 l 1
 297 730 l 1
 523 730 l 1
 626 0 l 1
 442 0 l 1
267 294 m 1
 415 294 l 1
 388 585 l 1
 386 585 l 1
 267 294 l 1
EndSplineSet
EndChar

StartChar: Aacute
Encoding: 193 193 3
Width: 694
Flags: W
LayerCount: 2
Fore
SplineSet
442 0 m 1
 428 151 l 1
 209 151 l 1
 146 0 l 1
 -37 0 l 1
 297 730 l 1
 523 730 l 1
 626 0 l 1
 442 0 l 1
267 294 m 1
 415 294 l 1
 388 585 l 1
 386 585 l 1
 267 294 l 1
488 770 m 1
 341 770 l 1
 445 980 l 1
 641 980 l 1
 488 770 l 1
EndSplineSet
EndChar

StartChar: Abreve
Encoding: 258 258 4
Width: 694
Flags: W
LayerCount: 2
Fore
SplineSet
442 0 m 1
 428 151 l 1
 209 151 l 1
 146 0 l 1
 -37 0 l 1
 297 730 l 1
 523 730 l 1
 626 0 l 1
 442 0 l 1
267 294 m 1
 415 294 l 1
 388 585 l 1
 386 585 l 1
 267 294 l 1
309 794 m 0
 277 811 254 835 238 866 c 0
 224 897 219 932 224 971 c 1
 374 971 l 1
 373 941 377 919 388 904 c 0
 399 890 416 883 441 883 c 0
 465 883 485 890 500 904 c 0
 515 919 527 941 536 971 c 1
 685 971 l 1
 678 932 662 897 638 866 c 0
 612 835 581 811 544 794 c 0
 507 777 466 768 423 768 c 0
 379 768 341 777 309 794 c 0
EndSplineSet
EndChar

StartChar: uni1EAE
Encoding: 7854 7854 5
Width: 678
Flags: W
LayerCount: 2
Fore
SplineSet
302 794 m 0
 271 811 248 835 232 866 c 0
 218 897 213 932 218 971 c 1
 345 971 l 1
 443 1170 l 1
 639 1170 l 1
 487 960 l 1
 368 960 l 1
 368 909 390 883 434 883 c 0
 458 883 478 890 494 904 c 0
 509 919 521 941 530 971 c 1
 679 971 l 1
 672 932 656 897 632 866 c 0
 606 835 575 811 538 794 c 0
 501 777 460 768 416 768 c 0
 372 768 334 777 302 794 c 0
442 0 m 1
 428 151 l 1
 209 151 l 1
 146 0 l 1
 -37 0 l 1
 297 730 l 1
 523 730 l 1
 626 0 l 1
 442 0 l 1
267 294 m 1
 415 294 l 1
 388 585 l 1
 386 585 l 1
 267 294 l 1
EndSplineSet
EndChar

StartChar: uni1EB6
Encoding: 7862 7862 6
Width: 694
Flags: W
LayerCount: 2
Fore
SplineSet
442 0 m 1
 428 151 l 1
 209 151 l 1
 146 0 l 1
 -37 0 l 1
 297 730 l 1
 523 730 l 1
 626 0 l 1
 442 0 l 1
267 294 m 1
 415 294 l 1
 388 585 l 1
 386 585 l 1
 267 294 l 1
226 -61 m 1
 391 -61 l 1
 364 -229 l 1
 200 -229 l 1
 226 -61 l 1
309 794 m 0
 277 811 254 835 238 866 c 0
 224 897 219 932 224 971 c 1
 374 971 l 1
 373 941 377 919 388 904 c 0
 399 890 416 883 441 883 c 0
 465 883 485 890 500 904 c 0
 515 919 527 941 536 971 c 1
 685 971 l 1
 678 932 662 897 638 866 c 0
 612 835 581 811 544 794 c 0
 507 777 466 768 423 768 c 0
 379 768 341 777 309 794 c 0
EndSplineSet
EndChar

StartChar: uni1EB0
Encoding: 7856 7856 7
Width: 678
Flags: W
LayerCount: 2
Fore
SplineSet
490 902 m 0
 506 915 517 934 526 960 c 1
 406 960 l 1
 320 1170 l 1
 516 1170 l 1
 551 971 l 1
 679 971 l 1
 672 932 656 897 632 866 c 0
 606 835 575 811 538 794 c 0
 501 777 460 768 416 768 c 0
 372 768 334 777 302 794 c 0
 271 811 248 835 232 866 c 0
 218 897 213 932 218 971 c 1
 368 971 l 1
 367 941 371 919 382 904 c 0
 393 890 410 883 434 883 c 0
 457 883 476 889 490 902 c 0
442 0 m 1
 428 151 l 1
 209 151 l 1
 146 0 l 1
 -37 0 l 1
 297 730 l 1
 523 730 l 1
 626 0 l 1
 442 0 l 1
267 294 m 1
 415 294 l 1
 388 585 l 1
 386 585 l 1
 267 294 l 1
EndSplineSet
EndChar

StartChar: uni1EB2
Encoding: 7858 7858 8
Width: 678
Flags: W
LayerCount: 2
Fore
SplineSet
491 902 m 0
 506 915 517 934 526 961 c 1
 462 961 l 1
 473 983 480 1004 483 1023 c 0
 485 1036 483 1044 476 1048 c 0
 469 1053 456 1055 437 1055 c 0
 391 1055 342 1047 291 1032 c 1
 297 1151 l 1
 325 1157 355 1162 388 1166 c 0
 421 1169 451 1171 480 1171 c 0
 527 1171 563 1168 588 1163 c 0
 612 1158 628 1148 638 1136 c 0
 646 1122 649 1104 645 1080 c 0
 642 1063 638 1045 632 1025 c 0
 625 1005 618 987 609 971 c 1
 679 971 l 1
 672 932 656 897 632 866 c 0
 606 835 575 811 538 794 c 0
 501 777 460 768 416 768 c 0
 372 768 334 777 302 794 c 0
 271 811 248 835 232 866 c 0
 218 897 213 932 218 971 c 1
 368 971 l 1
 367 941 371 919 382 904 c 0
 393 890 410 883 434 883 c 0
 457 883 476 889 491 902 c 0
442 0 m 1
 428 151 l 1
 209 151 l 1
 146 0 l 1
 -37 0 l 1
 297 730 l 1
 523 730 l 1
 626 0 l 1
 442 0 l 1
267 294 m 1
 415 294 l 1
 388 585 l 1
 386 585 l 1
 267 294 l 1
EndSplineSet
EndChar

StartChar: uni1EB4
Encoding: 7860 7860 9
Width: 694
Flags: W
LayerCount: 2
Fore
SplineSet
442 0 m 1
 428 151 l 1
 209 151 l 1
 146 0 l 1
 -37 0 l 1
 297 730 l 1
 523 730 l 1
 626 0 l 1
 442 0 l 1
267 294 m 1
 415 294 l 1
 388 585 l 1
 386 585 l 1
 267 294 l 1
309 794 m 0
 277 811 254 835 238 866 c 0
 224 897 219 932 224 971 c 1
 374 971 l 1
 373 941 377 919 388 904 c 0
 399 890 416 883 441 883 c 0
 465 883 485 890 500 904 c 0
 515 919 527 941 536 971 c 1
 685 971 l 1
 678 932 662 897 638 866 c 0
 612 835 581 811 544 794 c 0
 507 777 466 768 423 768 c 0
 379 768 341 777 309 794 c 0
442 1055 m 0
 419 1071 400 1079 386 1079 c 0
 377 1079 370 1075 365 1066 c 0
 360 1057 356 1041 352 1016 c 1
 223 1016 l 1
 234 1085 251 1136 274 1168 c 0
 298 1202 329 1218 367 1218 c 0
 404 1218 446 1202 495 1169 c 0
 518 1153 537 1145 550 1145 c 0
 559 1145 566 1149 572 1158 c 0
 576 1167 581 1183 584 1208 c 1
 714 1208 l 1
 703 1139 686 1088 662 1056 c 0
 638 1022 607 1006 568 1006 c 0
 533 1006 491 1022 442 1055 c 0
EndSplineSet
EndChar

StartChar: Acircumflex
Encoding: 194 194 10
Width: 694
Flags: W
LayerCount: 2
Fore
SplineSet
442 0 m 1
 428 151 l 1
 209 151 l 1
 146 0 l 1
 -37 0 l 1
 297 730 l 1
 523 730 l 1
 626 0 l 1
 442 0 l 1
267 294 m 1
 415 294 l 1
 388 585 l 1
 386 585 l 1
 267 294 l 1
330 980 m 1
 589 980 l 1
 676 770 l 1
 495 770 l 1
 451 917 l 1
 449 917 l 1
 358 770 l 1
 178 770 l 1
 330 980 l 1
EndSplineSet
EndChar

StartChar: uni1EA4
Encoding: 7844 7844 11
Width: 681
Flags: W
LayerCount: 2
Fore
SplineSet
439 917 m 1
 348 770 l 1
 167 770 l 1
 320 980 l 1
 563 980 l 1
 653 1160 l 1
 849 1160 l 1
 696 950 l 1
 591 950 l 1
 665 770 l 1
 485 770 l 1
 441 917 l 1
 439 917 l 1
297 730 m 1
 523 730 l 1
 626 0 l 1
 442 0 l 1
 428 151 l 1
 209 151 l 1
 146 0 l 1
 -37 0 l 1
 297 730 l 1
267 294 m 1
 415 294 l 1
 388 585 l 1
 386 585 l 1
 267 294 l 1
EndSplineSet
EndChar

StartChar: uni1EAC
Encoding: 7852 7852 12
Width: 694
Flags: W
LayerCount: 2
Fore
SplineSet
442 0 m 1
 428 151 l 1
 209 151 l 1
 146 0 l 1
 -37 0 l 1
 297 730 l 1
 523 730 l 1
 626 0 l 1
 442 0 l 1
267 294 m 1
 415 294 l 1
 388 585 l 1
 386 585 l 1
 267 294 l 1
226 -61 m 1
 391 -61 l 1
 364 -229 l 1
 200 -229 l 1
 226 -61 l 1
330 980 m 1
 589 980 l 1
 676 770 l 1
 495 770 l 1
 451 917 l 1
 449 917 l 1
 358 770 l 1
 178 770 l 1
 330 980 l 1
EndSplineSet
EndChar

StartChar: uni1EA6
Encoding: 7846 7846 13
Width: 681
Flags: W
LayerCount: 2
Fore
SplineSet
302 950 m 1
 197 950 l 1
 111 1160 l 1
 307 1160 l 1
 339 980 l 1
 582 980 l 1
 668 770 l 1
 488 770 l 1
 443 917 l 1
 441 917 l 1
 351 770 l 1
 170 770 l 1
 302 950 l 1
445 0 m 1
 431 151 l 1
 211 151 l 1
 149 0 l 1
 -34 0 l 1
 300 730 l 1
 526 730 l 1
 628 0 l 1
 445 0 l 1
269 294 m 1
 418 294 l 1
 391 585 l 1
 389 585 l 1
 269 294 l 1
EndSplineSet
EndChar

StartChar: uni1EA8
Encoding: 7848 7848 14
Width: 678
Flags: W
LayerCount: 2
Fore
SplineSet
348 770 m 1
 167 770 l 1
 320 980 l 1
 564 980 l 1
 568 992 571 1003 572 1012 c 0
 574 1025 572 1033 566 1038 c 0
 559 1042 546 1044 526 1044 c 0
 480 1044 432 1036 381 1021 c 1
 387 1140 l 1
 415 1146 445 1151 478 1154 c 0
 510 1158 540 1160 569 1160 c 0
 616 1160 652 1157 677 1152 c 0
 702 1147 718 1138 727 1124 c 0
 736 1112 738 1093 734 1069 c 0
 731 1051 726 1031 718 1008 c 0
 711 986 702 967 693 950 c 1
 591 950 l 1
 665 770 l 1
 485 770 l 1
 441 917 l 1
 439 917 l 1
 348 770 l 1
442 0 m 1
 428 151 l 1
 209 151 l 1
 146 0 l 1
 -37 0 l 1
 297 730 l 1
 523 730 l 1
 626 0 l 1
 442 0 l 1
267 294 m 1
 415 294 l 1
 388 585 l 1
 386 585 l 1
 267 294 l 1
EndSplineSet
EndChar

StartChar: uni1EAA
Encoding: 7850 7850 15
Width: 694
Flags: W
LayerCount: 2
Fore
SplineSet
442 0 m 1
 428 151 l 1
 209 151 l 1
 146 0 l 1
 -37 0 l 1
 297 730 l 1
 523 730 l 1
 626 0 l 1
 442 0 l 1
267 294 m 1
 415 294 l 1
 388 585 l 1
 386 585 l 1
 267 294 l 1
330 980 m 1
 589 980 l 1
 676 770 l 1
 495 770 l 1
 451 917 l 1
 449 917 l 1
 358 770 l 1
 178 770 l 1
 330 980 l 1
442 1055 m 0
 419 1071 400 1079 386 1079 c 0
 377 1079 370 1075 365 1066 c 0
 360 1057 356 1041 352 1016 c 1
 223 1016 l 1
 234 1085 251 1136 274 1168 c 0
 298 1202 329 1218 367 1218 c 0
 404 1218 446 1202 495 1169 c 0
 518 1153 537 1145 550 1145 c 0
 559 1145 566 1149 572 1158 c 0
 576 1167 581 1183 584 1208 c 1
 714 1208 l 1
 703 1139 686 1088 662 1056 c 0
 638 1022 607 1006 568 1006 c 0
 533 1006 491 1022 442 1055 c 0
EndSplineSet
EndChar

StartChar: uni0200
Encoding: 512 512 16
Width: 694
Flags: W
LayerCount: 2
Fore
SplineSet
442 0 m 1
 428 151 l 1
 209 151 l 1
 146 0 l 1
 -37 0 l 1
 297 730 l 1
 523 730 l 1
 626 0 l 1
 442 0 l 1
267 294 m 1
 415 294 l 1
 388 585 l 1
 386 585 l 1
 267 294 l 1
136 980 m 1
 332 980 l 1
 370 770 l 1
 223 770 l 1
 136 980 l 1
386 980 m 1
 582 980 l 1
 620 770 l 1
 473 770 l 1
 386 980 l 1
EndSplineSet
EndChar

StartChar: Adieresis
Encoding: 196 196 17
Width: 694
Flags: W
LayerCount: 2
Fore
SplineSet
442 0 m 1
 428 151 l 1
 209 151 l 1
 146 0 l 1
 -37 0 l 1
 297 730 l 1
 523 730 l 1
 626 0 l 1
 442 0 l 1
267 294 m 1
 415 294 l 1
 388 585 l 1
 386 585 l 1
 267 294 l 1
239 959 m 1
 404 959 l 1
 377 791 l 1
 212 791 l 1
 239 959 l 1
498 959 m 1
 663 959 l 1
 637 791 l 1
 471 791 l 1
 498 959 l 1
EndSplineSet
EndChar

StartChar: uni1EA0
Encoding: 7840 7840 18
Width: 694
Flags: W
LayerCount: 2
Fore
SplineSet
442 0 m 1
 428 151 l 1
 209 151 l 1
 146 0 l 1
 -37 0 l 1
 297 730 l 1
 523 730 l 1
 626 0 l 1
 442 0 l 1
267 294 m 1
 415 294 l 1
 388 585 l 1
 386 585 l 1
 267 294 l 1
226 -61 m 1
 391 -61 l 1
 364 -229 l 1
 200 -229 l 1
 226 -61 l 1
EndSplineSet
EndChar

StartChar: Agrave
Encoding: 192 192 19
Width: 694
Flags: W
LayerCount: 2
Fore
SplineSet
442 0 m 1
 428 151 l 1
 209 151 l 1
 146 0 l 1
 -37 0 l 1
 297 730 l 1
 523 730 l 1
 626 0 l 1
 442 0 l 1
267 294 m 1
 415 294 l 1
 388 585 l 1
 386 585 l 1
 267 294 l 1
272 980 m 1
 468 980 l 1
 506 770 l 1
 359 770 l 1
 272 980 l 1
EndSplineSet
EndChar

StartChar: uni1EA2
Encoding: 7842 7842 20
Width: 694
Flags: W
LayerCount: 2
Fore
SplineSet
442 0 m 1
 428 151 l 1
 209 151 l 1
 146 0 l 1
 -37 0 l 1
 297 730 l 1
 523 730 l 1
 626 0 l 1
 442 0 l 1
267 294 m 1
 415 294 l 1
 388 585 l 1
 386 585 l 1
 267 294 l 1
493 840 m 0
 495 853 493 861 486 866 c 0
 479 870 466 872 447 872 c 0
 401 872 352 864 301 849 c 1
 307 968 l 1
 335 974 365 979 398 982 c 0
 431 986 461 988 490 988 c 0
 537 988 573 985 598 980 c 0
 622 975 638 966 648 952 c 0
 656 940 659 921 655 897 c 0
 652 879 647 859 639 836 c 0
 631 814 622 795 613 778 c 1
 472 778 l 1
 483 800 490 821 493 840 c 0
EndSplineSet
EndChar

StartChar: uni0202
Encoding: 514 514 21
Width: 694
Flags: W
LayerCount: 2
Fore
SplineSet
442 0 m 1
 428 151 l 1
 209 151 l 1
 146 0 l 1
 -37 0 l 1
 297 730 l 1
 523 730 l 1
 626 0 l 1
 442 0 l 1
267 294 m 1
 415 294 l 1
 388 585 l 1
 386 585 l 1
 267 294 l 1
560 956 m 0
 592 939 616 915 630 884 c 0
 646 853 650 818 645 779 c 1
 496 779 l 1
 497 809 492 831 480 846 c 0
 470 860 452 867 428 867 c 0
 404 867 384 860 369 846 c 0
 354 831 342 809 334 779 c 1
 184 779 l 1
 191 818 206 853 232 884 c 0
 256 915 288 939 325 956 c 0
 362 973 403 982 446 982 c 0
 490 982 528 973 560 956 c 0
EndSplineSet
EndChar

StartChar: Amacron
Encoding: 256 256 22
Width: 694
Flags: W
LayerCount: 2
Fore
SplineSet
442 0 m 1
 428 151 l 1
 209 151 l 1
 146 0 l 1
 -37 0 l 1
 297 730 l 1
 523 730 l 1
 626 0 l 1
 442 0 l 1
267 294 m 1
 415 294 l 1
 388 585 l 1
 386 585 l 1
 267 294 l 1
286 936 m 1
 684 936 l 1
 664 814 l 1
 267 814 l 1
 286 936 l 1
EndSplineSet
EndChar

StartChar: Aogonek
Encoding: 260 260 23
Width: 685
Flags: W
LayerCount: 2
Fore
SplineSet
683 -199 m 1
 646 -212 606 -219 561 -219 c 0
 500 -219 454 -208 424 -186 c 0
 393 -164 381 -133 388 -92 c 0
 393 -59 411 -27 442 4 c 1
 428 151 l 1
 209 151 l 1
 146 0 l 1
 -37 0 l 1
 297 730 l 1
 523 730 l 1
 626 0 l 1
 573 -23 544 -46 540 -69 c 0
 539 -79 542 -87 551 -92 c 0
 560 -97 573 -100 590 -100 c 0
 623 -100 655 -93 686 -80 c 1
 683 -199 l 1
267 294 m 1
 415 294 l 1
 388 585 l 1
 386 585 l 1
 267 294 l 1
EndSplineSet
EndChar

StartChar: Aring
Encoding: 197 197 24
Width: 678
Flags: W
LayerCount: 2
Fore
SplineSet
428 151 m 1
 209 151 l 1
 146 0 l 1
 -37 0 l 1
 294 722 l 1
 282 737 274 754 269 773 c 0
 264 792 264 813 267 835 c 0
 272 864 283 892 302 916 c 0
 320 942 342 961 369 976 c 0
 396 991 424 998 453 998 c 0
 482 998 507 991 530 976 c 0
 552 961 568 942 578 916 c 0
 589 892 592 864 587 835 c 0
 584 814 576 793 566 774 c 0
 554 754 541 736 524 721 c 1
 626 0 l 1
 442 0 l 1
 428 151 l 1
393 878 m 0
 380 867 372 852 369 835 c 0
 366 818 370 804 380 792 c 0
 389 781 402 775 418 775 c 0
 434 775 449 781 462 792 c 0
 476 804 484 818 486 835 c 0
 489 852 485 866 476 878 c 0
 467 889 454 895 437 895 c 0
 421 895 406 889 393 878 c 0
267 294 m 1
 415 294 l 1
 388 585 l 1
 386 585 l 1
 267 294 l 1
EndSplineSet
EndChar

StartChar: Aringacute
Encoding: 506 506 25
Width: 678
Flags: W
LayerCount: 2
Fore
SplineSet
428 151 m 1
 209 151 l 1
 146 0 l 1
 -37 0 l 1
 294 722 l 1
 282 737 274 754 269 773 c 0
 264 792 264 813 267 835 c 0
 271 859 279 882 292 902 c 0
 305 924 321 942 340 957 c 1
 442 1163 l 1
 638 1163 l 1
 511 987 l 1
 539 975 560 955 574 928 c 0
 588 900 592 869 587 835 c 0
 584 814 576 793 566 774 c 0
 554 754 541 736 524 721 c 1
 626 0 l 1
 442 0 l 1
 428 151 l 1
463 792 m 0
 476 804 484 818 486 835 c 0
 489 852 485 866 476 878 c 0
 467 889 454 895 437 895 c 0
 421 895 406 889 393 878 c 0
 380 867 372 852 369 835 c 0
 366 818 370 804 380 792 c 0
 389 781 402 775 418 775 c 0
 435 775 450 781 463 792 c 0
267 294 m 1
 415 294 l 1
 388 585 l 1
 386 585 l 1
 267 294 l 1
EndSplineSet
EndChar

StartChar: Atilde
Encoding: 195 195 26
Width: 694
Flags: W
LayerCount: 2
Fore
SplineSet
442 0 m 1
 428 151 l 1
 209 151 l 1
 146 0 l 1
 -37 0 l 1
 297 730 l 1
 523 730 l 1
 626 0 l 1
 442 0 l 1
267 294 m 1
 415 294 l 1
 388 585 l 1
 386 585 l 1
 267 294 l 1
404 818 m 0
 381 834 362 842 348 842 c 0
 339 842 332 838 327 829 c 0
 322 820 318 804 314 779 c 1
 185 779 l 1
 196 848 213 898 236 932 c 0
 260 964 291 981 329 981 c 0
 366 981 408 965 457 932 c 0
 480 916 499 908 512 908 c 0
 521 908 528 912 534 921 c 0
 538 930 543 946 546 971 c 1
 676 971 l 1
 665 902 648 852 624 818 c 0
 600 786 569 769 530 769 c 0
 495 769 453 785 404 818 c 0
EndSplineSet
EndChar

StartChar: AE
Encoding: 198 198 27
Width: 871
Flags: W
LayerCount: 2
Fore
SplineSet
867 591 m 1
 614 591 l 1
 591 445 l 1
 825 445 l 1
 803 310 l 1
 570 310 l 1
 543 139 l 1
 796 139 l 1
 774 0 l 1
 354 0 l 1
 378 151 l 1
 216 151 l 1
 146 0 l 1
 -37 0 l 1
 334 730 l 1
 889 730 l 1
 867 591 l 1
282 294 m 1
 401 294 l 1
 448 593 l 1
 420 593 l 1
 282 294 l 1
EndSplineSet
EndChar

StartChar: AEacute
Encoding: 508 508 28
Width: 894
Flags: W
LayerCount: 2
Fore
SplineSet
867 591 m 1
 614 591 l 1
 591 445 l 1
 825 445 l 1
 803 310 l 1
 570 310 l 1
 543 139 l 1
 796 139 l 1
 774 0 l 1
 354 0 l 1
 378 151 l 1
 216 151 l 1
 146 0 l 1
 -37 0 l 1
 334 730 l 1
 889 730 l 1
 867 591 l 1
282 294 m 1
 401 294 l 1
 448 593 l 1
 420 593 l 1
 282 294 l 1
614 770 m 1
 467 770 l 1
 571 980 l 1
 767 980 l 1
 614 770 l 1
EndSplineSet
EndChar

StartChar: B
Encoding: 66 66 29
Width: 646
Flags: W
LayerCount: 2
Fore
SplineSet
580 329 m 0
 603 299 611 259 603 208 c 0
 592 139 558 88 500 52 c 0
 443 18 363 0 261 0 c 2
 19 0 l 1
 134 730 l 1
 368 730 l 2
 466 730 537 715 582 685 c 0
 627 655 644 610 635 551 c 0
 628 507 610 470 580 442 c 0
 550 412 512 394 466 387 c 1
 466 385 l 1
 519 378 557 359 580 329 c 0
279 594 m 1
 255 443 l 1
 331 443 l 2
 374 443 406 449 426 460 c 0
 447 472 459 492 464 519 c 0
 468 546 462 565 445 576 c 0
 428 588 398 594 355 594 c 2
 279 594 l 1
392 157 m 0
 416 171 430 193 435 224 c 0
 440 255 432 277 412 291 c 0
 393 305 359 312 310 312 c 2
 235 312 l 1
 207 136 l 1
 282 136 l 2
 331 136 367 143 392 157 c 0
EndSplineSet
EndChar

StartChar: C
Encoding: 67 67 30
Width: 674
Flags: W
LayerCount: 2
Fore
SplineSet
94 88 m 0
 42 153 26 246 45 365 c 0
 64 484 110 577 182 642 c 0
 256 707 349 740 464 740 c 0
 557 740 635 718 698 674 c 1
 611 541 l 1
 558 576 504 593 449 593 c 0
 386 593 334 573 293 534 c 0
 252 494 226 438 215 365 c 0
 204 292 212 236 240 196 c 0
 268 157 314 137 377 137 c 0
 432 137 491 154 555 189 c 1
 600 56 l 1
 523 12 438 -10 345 -10 c 0
 230 -10 147 23 94 88 c 0
EndSplineSet
EndChar

StartChar: Cacute
Encoding: 262 262 31
Width: 694
Flags: W
LayerCount: 2
Fore
SplineSet
94 88 m 0
 42 153 26 246 45 365 c 0
 64 484 110 577 182 642 c 0
 256 707 349 740 464 740 c 0
 557 740 635 718 698 674 c 1
 611 541 l 1
 558 576 504 593 449 593 c 0
 386 593 334 573 293 534 c 0
 252 494 226 438 215 365 c 0
 204 292 212 236 240 196 c 0
 268 157 314 137 377 137 c 0
 432 137 491 154 555 189 c 1
 600 56 l 1
 523 12 438 -10 345 -10 c 0
 230 -10 147 23 94 88 c 0
521 770 m 1
 374 770 l 1
 478 980 l 1
 674 980 l 1
 521 770 l 1
EndSplineSet
EndChar

StartChar: Ccaron
Encoding: 268 268 32
Width: 694
Flags: W
LayerCount: 2
Fore
SplineSet
94 88 m 0
 42 153 26 246 45 365 c 0
 64 484 110 577 182 642 c 0
 256 707 349 740 464 740 c 0
 557 740 635 718 698 674 c 1
 611 541 l 1
 558 576 504 593 449 593 c 0
 386 593 334 573 293 534 c 0
 252 494 226 438 215 365 c 0
 204 292 212 236 240 196 c 0
 268 157 314 137 377 137 c 0
 432 137 491 154 555 189 c 1
 600 56 l 1
 523 12 438 -10 345 -10 c 0
 230 -10 147 23 94 88 c 0
244 980 m 1
 424 980 l 1
 469 833 l 1
 471 833 l 1
 561 980 l 1
 742 980 l 1
 589 770 l 1
 330 770 l 1
 244 980 l 1
EndSplineSet
EndChar

StartChar: Ccedilla
Encoding: 199 199 33
Width: 674
Flags: W
LayerCount: 2
Fore
SplineSet
600 56 m 1
 554 29 502 10 445 -1 c 1
 464 -30 471 -60 466 -92 c 0
 459 -133 438 -164 400 -186 c 0
 364 -208 314 -219 253 -219 c 0
 207 -219 169 -212 138 -199 c 1
 171 -80 l 1
 199 -93 229 -100 261 -100 c 0
 279 -100 293 -97 304 -92 c 0
 314 -87 320 -79 322 -69 c 0
 325 -48 307 -26 266 -4 c 1
 178 11 115 50 77 113 c 0
 39 176 28 260 45 365 c 0
 64 484 110 577 182 642 c 0
 256 707 349 740 464 740 c 0
 557 740 635 718 698 674 c 1
 611 541 l 1
 558 576 504 593 449 593 c 0
 386 593 334 573 293 534 c 0
 252 494 226 438 215 365 c 0
 204 292 212 236 240 196 c 0
 268 157 314 137 377 137 c 0
 432 137 491 154 555 189 c 1
 600 56 l 1
EndSplineSet
EndChar

StartChar: Ccircumflex
Encoding: 264 264 34
Width: 694
Flags: W
LayerCount: 2
Fore
SplineSet
94 88 m 0
 42 153 26 246 45 365 c 0
 64 484 110 577 182 642 c 0
 256 707 349 740 464 740 c 0
 557 740 635 718 698 674 c 1
 611 541 l 1
 558 576 504 593 449 593 c 0
 386 593 334 573 293 534 c 0
 252 494 226 438 215 365 c 0
 204 292 212 236 240 196 c 0
 268 157 314 137 377 137 c 0
 432 137 491 154 555 189 c 1
 600 56 l 1
 523 12 438 -10 345 -10 c 0
 230 -10 147 23 94 88 c 0
363 980 m 1
 622 980 l 1
 709 770 l 1
 528 770 l 1
 484 917 l 1
 482 917 l 1
 391 770 l 1
 211 770 l 1
 363 980 l 1
EndSplineSet
EndChar

StartChar: Cdotaccent
Encoding: 266 266 35
Width: 694
Flags: W
LayerCount: 2
Fore
SplineSet
94 88 m 0
 42 153 26 246 45 365 c 0
 64 484 110 577 182 642 c 0
 256 707 349 740 464 740 c 0
 557 740 635 718 698 674 c 1
 611 541 l 1
 558 576 504 593 449 593 c 0
 386 593 334 573 293 534 c 0
 252 494 226 438 215 365 c 0
 204 292 212 236 240 196 c 0
 268 157 314 137 377 137 c 0
 432 137 491 154 555 189 c 1
 600 56 l 1
 523 12 438 -10 345 -10 c 0
 230 -10 147 23 94 88 c 0
420 959 m 1
 585 959 l 1
 558 791 l 1
 394 791 l 1
 420 959 l 1
EndSplineSet
EndChar

StartChar: D
Encoding: 68 68 36
Width: 671
Flags: W
LayerCount: 2
Fore
SplineSet
348 730 m 2
 474 730 561 701 610 642 c 0
 659 584 673 492 653 365 c 0
 633 238 589 146 522 88 c 0
 455 29 358 0 232 0 c 2
 19 0 l 1
 134 730 l 1
 348 730 l 2
376 162 m 0
 405 176 427 199 444 232 c 0
 461 264 473 308 482 365 c 0
 491 422 492 466 486 498 c 0
 480 531 465 554 441 568 c 0
 417 583 382 590 337 590 c 2
 279 590 l 1
 207 140 l 1
 265 140 l 2
 311 140 348 147 376 162 c 0
EndSplineSet
EndChar

StartChar: uni01C4
Encoding: 452 452 37
Width: 1302
Flags: W
LayerCount: 2
Fore
SplineSet
348 730 m 2
 474 730 561 701 610 642 c 0
 659 584 673 492 653 365 c 0
 633 238 589 146 522 88 c 0
 455 29 358 0 232 0 c 2
 19 0 l 1
 134 730 l 1
 348 730 l 2
376 162 m 0
 405 176 427 199 444 232 c 0
 461 264 473 308 482 365 c 0
 491 422 492 466 486 498 c 0
 480 531 465 554 441 568 c 0
 417 583 382 590 337 590 c 2
 279 590 l 1
 207 140 l 1
 265 140 l 2
 311 140 348 147 376 162 c 0
689 143 m 1
 1080 585 l 1
 1080 587 l 1
 759 587 l 1
 782 730 l 1
 1301 730 l 1
 1278 587 l 1
 887 145 l 1
 887 143 l 1
 1208 143 l 1
 1185 0 l 1
 666 0 l 1
 689 143 l 1
845 980 m 1
 1025 980 l 1
 1070 833 l 1
 1072 833 l 1
 1162 980 l 1
 1343 980 l 1
 1190 770 l 1
 931 770 l 1
 845 980 l 1
EndSplineSet
EndChar

StartChar: Eth
Encoding: 208 208 38
Width: 732
Flags: W
LayerCount: 2
Fore
SplineSet
672 642 m 0
 720 584 735 492 715 365 c 0
 695 238 651 146 584 88 c 0
 517 29 420 0 294 0 c 2
 80 0 l 1
 128 303 l 1
 24 303 l 1
 44 427 l 1
 147 427 l 1
 195 730 l 1
 410 730 l 2
 535 730 622 701 672 642 c 0
438 162 m 0
 466 176 488 199 506 232 c 0
 522 264 535 308 544 365 c 0
 553 422 554 466 548 498 c 0
 541 531 526 554 502 568 c 0
 479 583 444 590 399 590 c 2
 340 590 l 1
 314 427 l 1
 459 427 l 1
 439 303 l 1
 294 303 l 1
 269 140 l 1
 327 140 l 2
 373 140 410 147 438 162 c 0
EndSplineSet
EndChar

StartChar: Dcaron
Encoding: 270 270 39
Width: 693
Flags: W
LayerCount: 2
Fore
SplineSet
348 730 m 2
 474 730 561 701 610 642 c 0
 659 584 673 492 653 365 c 0
 633 238 589 146 522 88 c 0
 455 29 358 0 232 0 c 2
 19 0 l 1
 134 730 l 1
 348 730 l 2
376 162 m 0
 405 176 427 199 444 232 c 0
 461 264 473 308 482 365 c 0
 491 422 492 466 486 498 c 0
 480 531 465 554 441 568 c 0
 417 583 382 590 337 590 c 2
 279 590 l 1
 207 140 l 1
 265 140 l 2
 311 140 348 147 376 162 c 0
211 980 m 1
 391 980 l 1
 436 833 l 1
 438 833 l 1
 528 980 l 1
 709 980 l 1
 556 770 l 1
 297 770 l 1
 211 980 l 1
EndSplineSet
EndChar

StartChar: Dcroat
Encoding: 272 272 40
Width: 752
Flags: W
LayerCount: 2
Fore
SplineSet
672 642 m 0
 720 584 735 492 715 365 c 0
 695 238 651 146 584 88 c 0
 517 29 420 0 294 0 c 2
 80 0 l 1
 128 303 l 1
 24 303 l 1
 44 427 l 1
 147 427 l 1
 195 730 l 1
 410 730 l 2
 535 730 622 701 672 642 c 0
438 162 m 0
 466 176 488 199 506 232 c 0
 522 264 535 308 544 365 c 0
 553 422 554 466 548 498 c 0
 541 531 526 554 502 568 c 0
 479 583 444 590 399 590 c 2
 340 590 l 1
 314 427 l 1
 459 427 l 1
 439 303 l 1
 294 303 l 1
 269 140 l 1
 327 140 l 2
 373 140 410 147 438 162 c 0
EndSplineSet
EndChar

StartChar: uni01C5
Encoding: 453 453 41
Width: 1243
Flags: W
LayerCount: 2
Fore
SplineSet
348 730 m 2
 474 730 561 701 610 642 c 0
 659 584 673 492 653 365 c 0
 633 238 589 146 522 88 c 0
 455 29 358 0 232 0 c 2
 19 0 l 1
 134 730 l 1
 348 730 l 2
376 162 m 0
 405 176 427 199 444 232 c 0
 461 264 473 308 482 365 c 0
 491 422 492 466 486 498 c 0
 480 531 465 554 441 568 c 0
 417 583 382 590 337 590 c 2
 279 590 l 1
 207 140 l 1
 265 140 l 2
 311 140 348 147 376 162 c 0
706 123 m 1
 981 395 l 1
 981 397 l 1
 749 397 l 1
 769 520 l 1
 1200 520 l 1
 1180 397 l 1
 906 125 l 1
 905 123 l 1
 1137 123 l 1
 1118 0 l 1
 686 0 l 1
 706 123 l 1
794 770 m 1
 974 770 l 1
 1019 623 l 1
 1021 623 l 1
 1111 770 l 1
 1292 770 l 1
 1139 560 l 1
 880 560 l 1
 794 770 l 1
EndSplineSet
EndChar

StartChar: E
Encoding: 69 69 42
Width: 584
Flags: W
LayerCount: 2
Fore
SplineSet
134 730 m 1
 603 730 l 1
 581 591 l 1
 279 591 l 1
 256 445 l 1
 538 445 l 1
 517 310 l 1
 234 310 l 1
 207 139 l 1
 509 139 l 1
 487 0 l 1
 19 0 l 1
 134 730 l 1
EndSplineSet
EndChar

StartChar: Eacute
Encoding: 201 201 43
Width: 606
Flags: W
LayerCount: 2
Fore
SplineSet
134 730 m 1
 603 730 l 1
 581 591 l 1
 279 591 l 1
 256 445 l 1
 538 445 l 1
 517 310 l 1
 234 310 l 1
 207 139 l 1
 509 139 l 1
 487 0 l 1
 19 0 l 1
 134 730 l 1
451 770 m 1
 304 770 l 1
 408 980 l 1
 604 980 l 1
 451 770 l 1
EndSplineSet
EndChar

StartChar: Ebreve
Encoding: 276 276 44
Width: 606
Flags: W
LayerCount: 2
Fore
SplineSet
134 730 m 1
 603 730 l 1
 581 591 l 1
 279 591 l 1
 256 445 l 1
 538 445 l 1
 517 310 l 1
 234 310 l 1
 207 139 l 1
 509 139 l 1
 487 0 l 1
 19 0 l 1
 134 730 l 1
272 794 m 0
 240 811 216 835 202 866 c 0
 186 897 182 932 187 971 c 1
 337 971 l 1
 336 941 340 919 351 904 c 0
 362 890 379 883 404 883 c 0
 428 883 448 890 463 904 c 0
 478 919 490 941 499 971 c 1
 648 971 l 1
 641 932 626 897 600 866 c 0
 576 835 544 811 507 794 c 0
 470 777 429 768 386 768 c 0
 342 768 304 777 272 794 c 0
EndSplineSet
EndChar

StartChar: Ecaron
Encoding: 282 282 45
Width: 606
Flags: W
LayerCount: 2
Fore
SplineSet
134 730 m 1
 603 730 l 1
 581 591 l 1
 279 591 l 1
 256 445 l 1
 538 445 l 1
 517 310 l 1
 234 310 l 1
 207 139 l 1
 509 139 l 1
 487 0 l 1
 19 0 l 1
 134 730 l 1
174 980 m 1
 354 980 l 1
 399 833 l 1
 401 833 l 1
 491 980 l 1
 672 980 l 1
 519 770 l 1
 260 770 l 1
 174 980 l 1
EndSplineSet
EndChar

StartChar: Ecircumflex
Encoding: 202 202 46
Width: 606
Flags: W
LayerCount: 2
Fore
SplineSet
134 730 m 1
 603 730 l 1
 581 591 l 1
 279 591 l 1
 256 445 l 1
 538 445 l 1
 517 310 l 1
 234 310 l 1
 207 139 l 1
 509 139 l 1
 487 0 l 1
 19 0 l 1
 134 730 l 1
293 980 m 1
 552 980 l 1
 639 770 l 1
 458 770 l 1
 414 917 l 1
 412 917 l 1
 321 770 l 1
 141 770 l 1
 293 980 l 1
EndSplineSet
EndChar

StartChar: uni1EBE
Encoding: 7870 7870 47
Width: 595
Flags: W
LayerCount: 2
Fore
SplineSet
809 1160 m 1
 656 950 l 1
 551 950 l 1
 626 770 l 1
 445 770 l 1
 401 917 l 1
 399 917 l 1
 308 770 l 1
 128 770 l 1
 281 980 l 1
 524 980 l 1
 613 1160 l 1
 809 1160 l 1
20 0 m 1
 135 730 l 1
 604 730 l 1
 582 591 l 1
 280 591 l 1
 257 445 l 1
 539 445 l 1
 518 310 l 1
 235 310 l 1
 208 139 l 1
 510 139 l 1
 488 0 l 1
 20 0 l 1
EndSplineSet
EndChar

StartChar: uni1EC6
Encoding: 7878 7878 48
Width: 606
Flags: W
LayerCount: 2
Fore
SplineSet
134 730 m 1
 603 730 l 1
 581 591 l 1
 279 591 l 1
 256 445 l 1
 538 445 l 1
 517 310 l 1
 234 310 l 1
 207 139 l 1
 509 139 l 1
 487 0 l 1
 19 0 l 1
 134 730 l 1
189 -61 m 1
 354 -61 l 1
 327 -229 l 1
 163 -229 l 1
 189 -61 l 1
293 980 m 1
 552 980 l 1
 639 770 l 1
 458 770 l 1
 414 917 l 1
 412 917 l 1
 321 770 l 1
 141 770 l 1
 293 980 l 1
EndSplineSet
EndChar

StartChar: uni1EC0
Encoding: 7872 7872 49
Width: 595
Flags: W
LayerCount: 2
Fore
SplineSet
317 770 m 1
 137 770 l 1
 268 950 l 1
 163 950 l 1
 77 1160 l 1
 273 1160 l 1
 305 980 l 1
 548 980 l 1
 634 770 l 1
 454 770 l 1
 410 917 l 1
 408 917 l 1
 317 770 l 1
28 0 m 1
 144 730 l 1
 612 730 l 1
 590 591 l 1
 289 591 l 1
 265 445 l 1
 548 445 l 1
 526 310 l 1
 244 310 l 1
 217 139 l 1
 519 139 l 1
 497 0 l 1
 28 0 l 1
EndSplineSet
EndChar

StartChar: uni1EC2
Encoding: 7874 7874 50
Width: 588
Flags: W
LayerCount: 2
Fore
SplineSet
551 950 m 1
 626 770 l 1
 445 770 l 1
 401 917 l 1
 399 917 l 1
 308 770 l 1
 128 770 l 1
 281 980 l 1
 525 980 l 1
 529 992 532 1003 533 1012 c 0
 535 1025 533 1033 526 1038 c 0
 519 1042 506 1044 487 1044 c 0
 441 1044 392 1036 341 1021 c 1
 347 1140 l 1
 375 1146 405 1151 438 1154 c 0
 471 1158 501 1160 530 1160 c 0
 577 1160 613 1157 638 1152 c 0
 662 1147 678 1138 687 1124 c 0
 696 1112 698 1093 695 1069 c 0
 692 1051 687 1031 679 1008 c 0
 671 986 662 967 653 950 c 1
 551 950 l 1
20 0 m 1
 135 730 l 1
 604 730 l 1
 582 591 l 1
 280 591 l 1
 257 445 l 1
 539 445 l 1
 518 310 l 1
 235 310 l 1
 208 139 l 1
 510 139 l 1
 488 0 l 1
 20 0 l 1
EndSplineSet
EndChar

StartChar: uni1EC4
Encoding: 7876 7876 51
Width: 606
Flags: W
LayerCount: 2
Fore
SplineSet
134 730 m 1
 603 730 l 1
 581 591 l 1
 279 591 l 1
 256 445 l 1
 538 445 l 1
 517 310 l 1
 234 310 l 1
 207 139 l 1
 509 139 l 1
 487 0 l 1
 19 0 l 1
 134 730 l 1
293 980 m 1
 552 980 l 1
 639 770 l 1
 458 770 l 1
 414 917 l 1
 412 917 l 1
 321 770 l 1
 141 770 l 1
 293 980 l 1
405 1055 m 0
 382 1071 363 1079 349 1079 c 0
 340 1079 333 1075 328 1066 c 0
 323 1057 319 1041 315 1016 c 1
 186 1016 l 1
 197 1085 214 1136 238 1168 c 0
 261 1202 292 1218 330 1218 c 0
 367 1218 409 1202 458 1169 c 0
 481 1153 500 1145 513 1145 c 0
 522 1145 530 1149 534 1158 c 0
 540 1167 544 1183 547 1208 c 1
 677 1208 l 1
 666 1139 649 1088 625 1056 c 0
 601 1022 570 1006 531 1006 c 0
 496 1006 454 1022 405 1055 c 0
EndSplineSet
EndChar

StartChar: uni0204
Encoding: 516 516 52
Width: 606
Flags: W
LayerCount: 2
Fore
SplineSet
134 730 m 1
 603 730 l 1
 581 591 l 1
 279 591 l 1
 256 445 l 1
 538 445 l 1
 517 310 l 1
 234 310 l 1
 207 139 l 1
 509 139 l 1
 487 0 l 1
 19 0 l 1
 134 730 l 1
99 980 m 1
 295 980 l 1
 333 770 l 1
 186 770 l 1
 99 980 l 1
349 980 m 1
 545 980 l 1
 583 770 l 1
 436 770 l 1
 349 980 l 1
EndSplineSet
EndChar

StartChar: Edieresis
Encoding: 203 203 53
Width: 606
Flags: W
LayerCount: 2
Fore
SplineSet
134 730 m 1
 603 730 l 1
 581 591 l 1
 279 591 l 1
 256 445 l 1
 538 445 l 1
 517 310 l 1
 234 310 l 1
 207 139 l 1
 509 139 l 1
 487 0 l 1
 19 0 l 1
 134 730 l 1
202 959 m 1
 367 959 l 1
 340 791 l 1
 175 791 l 1
 202 959 l 1
461 959 m 1
 626 959 l 1
 600 791 l 1
 434 791 l 1
 461 959 l 1
EndSplineSet
EndChar

StartChar: Edotaccent
Encoding: 278 278 54
Width: 606
Flags: W
LayerCount: 2
Fore
SplineSet
134 730 m 1
 603 730 l 1
 581 591 l 1
 279 591 l 1
 256 445 l 1
 538 445 l 1
 517 310 l 1
 234 310 l 1
 207 139 l 1
 509 139 l 1
 487 0 l 1
 19 0 l 1
 134 730 l 1
350 959 m 1
 515 959 l 1
 488 791 l 1
 324 791 l 1
 350 959 l 1
EndSplineSet
EndChar

StartChar: uni1EB8
Encoding: 7864 7864 55
Width: 606
Flags: W
LayerCount: 2
Fore
SplineSet
134 730 m 1
 603 730 l 1
 581 591 l 1
 279 591 l 1
 256 445 l 1
 538 445 l 1
 517 310 l 1
 234 310 l 1
 207 139 l 1
 509 139 l 1
 487 0 l 1
 19 0 l 1
 134 730 l 1
189 -61 m 1
 354 -61 l 1
 327 -229 l 1
 163 -229 l 1
 189 -61 l 1
EndSplineSet
EndChar

StartChar: Egrave
Encoding: 200 200 56
Width: 606
Flags: W
LayerCount: 2
Fore
SplineSet
134 730 m 1
 603 730 l 1
 581 591 l 1
 279 591 l 1
 256 445 l 1
 538 445 l 1
 517 310 l 1
 234 310 l 1
 207 139 l 1
 509 139 l 1
 487 0 l 1
 19 0 l 1
 134 730 l 1
235 980 m 1
 431 980 l 1
 469 770 l 1
 322 770 l 1
 235 980 l 1
EndSplineSet
EndChar

StartChar: uni1EBA
Encoding: 7866 7866 57
Width: 606
Flags: W
LayerCount: 2
Fore
SplineSet
134 730 m 1
 603 730 l 1
 581 591 l 1
 279 591 l 1
 256 445 l 1
 538 445 l 1
 517 310 l 1
 234 310 l 1
 207 139 l 1
 509 139 l 1
 487 0 l 1
 19 0 l 1
 134 730 l 1
456 840 m 0
 458 853 456 861 449 866 c 0
 442 870 429 872 410 872 c 0
 364 872 315 864 264 849 c 1
 270 968 l 1
 298 974 328 979 361 982 c 0
 394 986 424 988 453 988 c 0
 500 988 536 985 560 980 c 0
 585 975 602 966 610 952 c 0
 620 940 622 921 618 897 c 0
 615 879 610 859 602 836 c 0
 594 814 585 795 576 778 c 1
 435 778 l 1
 446 800 453 821 456 840 c 0
EndSplineSet
EndChar

StartChar: uni0206
Encoding: 518 518 58
Width: 606
Flags: W
LayerCount: 2
Fore
SplineSet
134 730 m 1
 603 730 l 1
 581 591 l 1
 279 591 l 1
 256 445 l 1
 538 445 l 1
 517 310 l 1
 234 310 l 1
 207 139 l 1
 509 139 l 1
 487 0 l 1
 19 0 l 1
 134 730 l 1
523 956 m 0
 555 939 578 915 594 884 c 0
 608 853 613 818 608 779 c 1
 459 779 l 1
 460 809 454 831 444 846 c 0
 432 860 415 867 391 867 c 0
 367 867 347 860 332 846 c 0
 317 831 305 809 297 779 c 1
 147 779 l 1
 154 818 170 853 194 884 c 0
 220 915 251 939 288 956 c 0
 325 973 366 982 409 982 c 0
 453 982 491 973 523 956 c 0
EndSplineSet
EndChar

StartChar: Emacron
Encoding: 274 274 59
Width: 606
Flags: W
LayerCount: 2
Fore
SplineSet
134 730 m 1
 603 730 l 1
 581 591 l 1
 279 591 l 1
 256 445 l 1
 538 445 l 1
 517 310 l 1
 234 310 l 1
 207 139 l 1
 509 139 l 1
 487 0 l 1
 19 0 l 1
 134 730 l 1
249 936 m 1
 647 936 l 1
 627 814 l 1
 230 814 l 1
 249 936 l 1
EndSplineSet
EndChar

StartChar: Eogonek
Encoding: 280 280 60
Width: 591
Flags: W
LayerCount: 2
Fore
SplineSet
545 -199 m 1
 508 -212 467 -219 422 -219 c 0
 361 -219 315 -208 284 -186 c 0
 254 -164 242 -133 249 -92 c 0
 254 -60 271 -29 300 0 c 1
 19 0 l 1
 134 730 l 1
 603 730 l 1
 581 591 l 1
 279 591 l 1
 256 445 l 1
 538 445 l 1
 517 310 l 1
 234 310 l 1
 207 139 l 1
 509 139 l 1
 487 0 l 1
 434 -23 405 -46 402 -69 c 0
 401 -79 404 -87 412 -92 c 0
 421 -97 434 -100 452 -100 c 0
 485 -100 517 -93 548 -80 c 1
 545 -199 l 1
EndSplineSet
EndChar

StartChar: uni1EBC
Encoding: 7868 7868 61
Width: 606
Flags: W
LayerCount: 2
Fore
SplineSet
134 730 m 1
 603 730 l 1
 581 591 l 1
 279 591 l 1
 256 445 l 1
 538 445 l 1
 517 310 l 1
 234 310 l 1
 207 139 l 1
 509 139 l 1
 487 0 l 1
 19 0 l 1
 134 730 l 1
367 818 m 0
 344 834 325 842 311 842 c 0
 302 842 295 838 290 829 c 0
 285 820 281 804 277 779 c 1
 148 779 l 1
 159 848 176 898 200 932 c 0
 223 964 254 981 292 981 c 0
 329 981 371 965 420 932 c 0
 443 916 462 908 475 908 c 0
 484 908 492 912 496 921 c 0
 502 930 506 946 509 971 c 1
 639 971 l 1
 628 902 611 852 587 818 c 0
 563 786 532 769 493 769 c 0
 458 769 416 785 367 818 c 0
EndSplineSet
EndChar

StartChar: F
Encoding: 70 70 62
Width: 577
Flags: W
LayerCount: 2
Fore
SplineSet
134 730 m 1
 603 730 l 1
 580 587 l 1
 278 587 l 1
 253 425 l 1
 535 425 l 1
 513 286 l 1
 231 286 l 1
 185 0 l 1
 19 0 l 1
 134 730 l 1
EndSplineSet
EndChar

StartChar: G
Encoding: 71 71 63
Width: 747
Flags: W
LayerCount: 2
Fore
SplineSet
719 444 m 1
 656 49 l 1
 617 30 573 16 524 6 c 0
 475 -5 425 -10 374 -10 c 0
 293 -10 225 5 172 34 c 0
 118 64 80 107 58 164 c 0
 37 220 32 287 45 365 c 0
 58 443 84 510 123 566 c 0
 162 623 214 666 277 696 c 0
 340 725 412 740 493 740 c 0
 594 740 673 718 730 675 c 1
 647 546 l 1
 596 580 537 597 470 597 c 0
 398 597 340 577 298 538 c 0
 254 499 227 441 215 365 c 0
 203 289 212 231 243 192 c 0
 274 153 325 133 397 133 c 0
 433 133 469 139 506 150 c 1
 530 302 l 1
 359 302 l 1
 382 444 l 1
 719 444 l 1
EndSplineSet
EndChar

StartChar: Gbreve
Encoding: 286 286 64
Width: 769
Flags: W
LayerCount: 2
Fore
SplineSet
719 444 m 1
 656 49 l 1
 617 30 573 16 524 6 c 0
 475 -5 425 -10 374 -10 c 0
 293 -10 225 5 172 34 c 0
 118 64 80 107 58 164 c 0
 37 220 32 287 45 365 c 0
 58 443 84 510 123 566 c 0
 162 623 214 666 277 696 c 0
 340 725 412 740 493 740 c 0
 594 740 673 718 730 675 c 1
 647 546 l 1
 596 580 537 597 470 597 c 0
 398 597 340 577 298 538 c 0
 254 499 227 441 215 365 c 0
 203 289 212 231 243 192 c 0
 274 153 325 133 397 133 c 0
 433 133 469 139 506 150 c 1
 530 302 l 1
 359 302 l 1
 382 444 l 1
 719 444 l 1
363 794 m 0
 331 811 308 835 292 866 c 0
 278 897 273 932 278 971 c 1
 428 971 l 1
 427 941 431 919 442 904 c 0
 453 890 470 883 495 883 c 0
 519 883 539 890 554 904 c 0
 569 919 581 941 590 971 c 1
 739 971 l 1
 732 932 716 897 692 866 c 0
 666 835 635 811 598 794 c 0
 561 777 520 768 477 768 c 0
 433 768 395 777 363 794 c 0
EndSplineSet
EndChar

StartChar: Gcaron
Encoding: 486 486 65
Width: 769
Flags: W
LayerCount: 2
Fore
SplineSet
719 444 m 1
 656 49 l 1
 617 30 573 16 524 6 c 0
 475 -5 425 -10 374 -10 c 0
 293 -10 225 5 172 34 c 0
 118 64 80 107 58 164 c 0
 37 220 32 287 45 365 c 0
 58 443 84 510 123 566 c 0
 162 623 214 666 277 696 c 0
 340 725 412 740 493 740 c 0
 594 740 673 718 730 675 c 1
 647 546 l 1
 596 580 537 597 470 597 c 0
 398 597 340 577 298 538 c 0
 254 499 227 441 215 365 c 0
 203 289 212 231 243 192 c 0
 274 153 325 133 397 133 c 0
 433 133 469 139 506 150 c 1
 530 302 l 1
 359 302 l 1
 382 444 l 1
 719 444 l 1
266 980 m 1
 446 980 l 1
 491 833 l 1
 493 833 l 1
 583 980 l 1
 764 980 l 1
 611 770 l 1
 352 770 l 1
 266 980 l 1
EndSplineSet
EndChar

StartChar: Gcircumflex
Encoding: 284 284 66
Width: 769
Flags: W
LayerCount: 2
Fore
SplineSet
719 444 m 1
 656 49 l 1
 617 30 573 16 524 6 c 0
 475 -5 425 -10 374 -10 c 0
 293 -10 225 5 172 34 c 0
 118 64 80 107 58 164 c 0
 37 220 32 287 45 365 c 0
 58 443 84 510 123 566 c 0
 162 623 214 666 277 696 c 0
 340 725 412 740 493 740 c 0
 594 740 673 718 730 675 c 1
 647 546 l 1
 596 580 537 597 470 597 c 0
 398 597 340 577 298 538 c 0
 254 499 227 441 215 365 c 0
 203 289 212 231 243 192 c 0
 274 153 325 133 397 133 c 0
 433 133 469 139 506 150 c 1
 530 302 l 1
 359 302 l 1
 382 444 l 1
 719 444 l 1
385 980 m 1
 644 980 l 1
 731 770 l 1
 550 770 l 1
 506 917 l 1
 504 917 l 1
 413 770 l 1
 233 770 l 1
 385 980 l 1
EndSplineSet
EndChar

StartChar: uni0122
Encoding: 290 290 67
Width: 769
Flags: W
LayerCount: 2
Fore
SplineSet
719 444 m 1
 656 49 l 1
 617 30 573 16 524 6 c 0
 475 -5 425 -10 374 -10 c 0
 293 -10 225 5 172 34 c 0
 118 64 80 107 58 164 c 0
 37 220 32 287 45 365 c 0
 58 443 84 510 123 566 c 0
 162 623 214 666 277 696 c 0
 340 725 412 740 493 740 c 0
 594 740 673 718 730 675 c 1
 647 546 l 1
 596 580 537 597 470 597 c 0
 398 597 340 577 298 538 c 0
 254 499 227 441 215 365 c 0
 203 289 212 231 243 192 c 0
 274 153 325 133 397 133 c 0
 433 133 469 139 506 150 c 1
 530 302 l 1
 359 302 l 1
 382 444 l 1
 719 444 l 1
275 -250 m 1
 128 -250 l 1
 232 -40 l 1
 428 -40 l 1
 275 -250 l 1
EndSplineSet
EndChar

StartChar: Gdotaccent
Encoding: 288 288 68
Width: 769
Flags: W
LayerCount: 2
Fore
SplineSet
719 444 m 1
 656 49 l 1
 617 30 573 16 524 6 c 0
 475 -5 425 -10 374 -10 c 0
 293 -10 225 5 172 34 c 0
 118 64 80 107 58 164 c 0
 37 220 32 287 45 365 c 0
 58 443 84 510 123 566 c 0
 162 623 214 666 277 696 c 0
 340 725 412 740 493 740 c 0
 594 740 673 718 730 675 c 1
 647 546 l 1
 596 580 537 597 470 597 c 0
 398 597 340 577 298 538 c 0
 254 499 227 441 215 365 c 0
 203 289 212 231 243 192 c 0
 274 153 325 133 397 133 c 0
 433 133 469 139 506 150 c 1
 530 302 l 1
 359 302 l 1
 382 444 l 1
 719 444 l 1
442 959 m 1
 607 959 l 1
 580 791 l 1
 416 791 l 1
 442 959 l 1
EndSplineSet
EndChar

StartChar: H
Encoding: 72 72 69
Width: 700
Flags: W
LayerCount: 2
Fore
SplineSet
541 730 m 1
 708 730 l 1
 592 0 l 1
 425 0 l 1
 474 308 l 1
 234 308 l 1
 185 0 l 1
 19 0 l 1
 134 730 l 1
 301 730 l 1
 257 455 l 1
 497 455 l 1
 541 730 l 1
EndSplineSet
EndChar

StartChar: Hbar
Encoding: 294 294 70
Width: 793
Flags: W
LayerCount: 2
Fore
SplineSet
832 658 m 1
 812 534 l 1
 723 534 l 1
 638 0 l 1
 472 0 l 1
 521 308 l 1
 280 308 l 1
 232 0 l 1
 65 0 l 1
 150 534 l 1
 61 534 l 1
 80 658 l 1
 169 658 l 1
 181 730 l 1
 347 730 l 1
 336 658 l 1
 576 658 l 1
 587 730 l 1
 754 730 l 1
 743 658 l 1
 832 658 l 1
544 455 m 1
 556 534 l 1
 316 534 l 1
 304 455 l 1
 544 455 l 1
EndSplineSet
EndChar

StartChar: Hcircumflex
Encoding: 292 292 71
Width: 725
Flags: W
LayerCount: 2
Fore
SplineSet
541 730 m 1
 708 730 l 1
 592 0 l 1
 425 0 l 1
 474 308 l 1
 234 308 l 1
 185 0 l 1
 19 0 l 1
 134 730 l 1
 301 730 l 1
 257 455 l 1
 497 455 l 1
 541 730 l 1
346 980 m 1
 605 980 l 1
 692 770 l 1
 511 770 l 1
 467 917 l 1
 465 917 l 1
 374 770 l 1
 194 770 l 1
 346 980 l 1
EndSplineSet
EndChar

StartChar: I
Encoding: 73 73 72
Width: 315
Flags: W
LayerCount: 2
Fore
SplineSet
141 730 m 1
 315 730 l 1
 200 0 l 1
 25 0 l 1
 141 730 l 1
EndSplineSet
EndChar

StartChar: Iacute
Encoding: 205 205 73
Width: 333
Flags: W
LayerCount: 2
Fore
SplineSet
141 730 m 1
 315 730 l 1
 200 0 l 1
 25 0 l 1
 141 730 l 1
307 770 m 1
 160 770 l 1
 264 980 l 1
 460 980 l 1
 307 770 l 1
EndSplineSet
EndChar

StartChar: Ibreve
Encoding: 300 300 74
Width: 333
Flags: W
LayerCount: 2
Fore
SplineSet
141 730 m 1
 315 730 l 1
 200 0 l 1
 25 0 l 1
 141 730 l 1
128 794 m 0
 96 811 72 835 58 866 c 0
 42 897 38 932 43 971 c 1
 193 971 l 1
 192 941 196 919 207 904 c 0
 218 890 235 883 260 883 c 0
 284 883 304 890 319 904 c 0
 334 919 346 941 355 971 c 1
 504 971 l 1
 497 932 482 897 456 866 c 0
 432 835 400 811 363 794 c 0
 326 777 285 768 242 768 c 0
 198 768 160 777 128 794 c 0
EndSplineSet
EndChar

StartChar: Icircumflex
Encoding: 206 206 75
Width: 333
Flags: W
LayerCount: 2
Fore
SplineSet
141 730 m 1
 315 730 l 1
 200 0 l 1
 25 0 l 1
 141 730 l 1
149 980 m 1
 408 980 l 1
 495 770 l 1
 314 770 l 1
 270 917 l 1
 268 917 l 1
 177 770 l 1
 -3 770 l 1
 149 980 l 1
EndSplineSet
EndChar

StartChar: uni0208
Encoding: 520 520 76
Width: 333
Flags: W
LayerCount: 2
Fore
SplineSet
141 730 m 1
 315 730 l 1
 200 0 l 1
 25 0 l 1
 141 730 l 1
-44 980 m 1
 152 980 l 1
 190 770 l 1
 43 770 l 1
 -44 980 l 1
206 980 m 1
 402 980 l 1
 440 770 l 1
 293 770 l 1
 206 980 l 1
EndSplineSet
EndChar

StartChar: Idieresis
Encoding: 207 207 77
Width: 333
Flags: W
LayerCount: 2
Fore
SplineSet
141 730 m 1
 315 730 l 1
 200 0 l 1
 25 0 l 1
 141 730 l 1
58 959 m 1
 223 959 l 1
 196 791 l 1
 31 791 l 1
 58 959 l 1
317 959 m 1
 482 959 l 1
 456 791 l 1
 290 791 l 1
 317 959 l 1
EndSplineSet
EndChar

StartChar: Idotaccent
Encoding: 304 304 78
Width: 333
Flags: W
LayerCount: 2
Fore
SplineSet
141 730 m 1
 315 730 l 1
 200 0 l 1
 25 0 l 1
 141 730 l 1
206 959 m 1
 371 959 l 1
 344 791 l 1
 180 791 l 1
 206 959 l 1
EndSplineSet
EndChar

StartChar: uni1ECA
Encoding: 7882 7882 79
Width: 333
Flags: W
LayerCount: 2
Fore
SplineSet
141 730 m 1
 315 730 l 1
 200 0 l 1
 25 0 l 1
 141 730 l 1
45 -61 m 1
 210 -61 l 1
 183 -229 l 1
 19 -229 l 1
 45 -61 l 1
EndSplineSet
EndChar

StartChar: Igrave
Encoding: 204 204 80
Width: 333
Flags: W
LayerCount: 2
Fore
SplineSet
141 730 m 1
 315 730 l 1
 200 0 l 1
 25 0 l 1
 141 730 l 1
92 980 m 1
 288 980 l 1
 326 770 l 1
 179 770 l 1
 92 980 l 1
EndSplineSet
EndChar

StartChar: uni1EC8
Encoding: 7880 7880 81
Width: 333
Flags: W
LayerCount: 2
Fore
SplineSet
141 730 m 1
 315 730 l 1
 200 0 l 1
 25 0 l 1
 141 730 l 1
312 840 m 0
 314 853 312 861 305 866 c 0
 298 870 285 872 266 872 c 0
 220 872 171 864 120 849 c 1
 126 968 l 1
 154 974 184 979 217 982 c 0
 250 986 280 988 309 988 c 0
 356 988 392 985 416 980 c 0
 441 975 458 966 466 952 c 0
 476 940 478 921 474 897 c 0
 471 879 466 859 458 836 c 0
 450 814 441 795 432 778 c 1
 291 778 l 1
 302 800 309 821 312 840 c 0
EndSplineSet
EndChar

StartChar: uni020A
Encoding: 522 522 82
Width: 333
Flags: W
LayerCount: 2
Fore
SplineSet
141 730 m 1
 315 730 l 1
 200 0 l 1
 25 0 l 1
 141 730 l 1
379 956 m 0
 411 939 434 915 450 884 c 0
 464 853 469 818 464 779 c 1
 315 779 l 1
 316 809 310 831 300 846 c 0
 288 860 271 867 247 867 c 0
 223 867 203 860 188 846 c 0
 173 831 161 809 153 779 c 1
 3 779 l 1
 10 818 26 853 50 884 c 0
 76 915 107 939 144 956 c 0
 181 973 222 982 265 982 c 0
 309 982 347 973 379 956 c 0
EndSplineSet
EndChar

StartChar: Imacron
Encoding: 298 298 83
Width: 333
Flags: W
LayerCount: 2
Fore
SplineSet
141 730 m 1
 315 730 l 1
 200 0 l 1
 25 0 l 1
 141 730 l 1
106 936 m 1
 504 936 l 1
 484 814 l 1
 87 814 l 1
 106 936 l 1
EndSplineSet
EndChar

StartChar: Iogonek
Encoding: 302 302 84
Width: 325
Flags: W
LayerCount: 2
Fore
SplineSet
261 -199 m 1
 224 -212 183 -219 138 -219 c 0
 77 -219 31 -208 0 -186 c 0
 -30 -164 -42 -133 -35 -92 c 0
 -32 -73 -26 -55 -15 -38 c 0
 -4 -21 11 -3 31 15 c 1
 144 730 l 1
 319 730 l 1
 203 0 l 1
 150 -23 121 -46 118 -69 c 0
 117 -79 120 -87 128 -92 c 0
 137 -97 150 -100 168 -100 c 0
 201 -100 233 -93 264 -80 c 1
 261 -199 l 1
EndSplineSet
EndChar

StartChar: Itilde
Encoding: 296 296 85
Width: 333
Flags: W
LayerCount: 2
Fore
SplineSet
141 730 m 1
 315 730 l 1
 200 0 l 1
 25 0 l 1
 141 730 l 1
224 818 m 0
 201 834 182 842 168 842 c 0
 159 842 152 838 147 829 c 0
 142 820 138 804 134 779 c 1
 5 779 l 1
 16 848 33 898 56 932 c 0
 80 964 111 981 149 981 c 0
 186 981 228 965 277 932 c 0
 300 916 319 908 332 908 c 0
 341 908 348 912 354 921 c 0
 358 930 363 946 366 971 c 1
 496 971 l 1
 485 902 468 852 444 818 c 0
 420 786 389 769 350 769 c 0
 315 769 273 785 224 818 c 0
EndSplineSet
EndChar

StartChar: J
Encoding: 74 74 86
Width: 562
Flags: W
LayerCount: 2
Fore
SplineSet
70 3 m 0
 31 12 -3 24 -34 41 c 1
 30 185 l 1
 93 155 148 140 193 140 c 0
 234 140 265 151 288 174 c 0
 311 197 326 232 333 280 c 2
 404 730 l 1
 576 730 l 1
 505 280 l 2
 489 179 456 106 404 60 c 0
 354 13 281 -10 186 -10 c 0
 147 -10 109 -6 70 3 c 0
EndSplineSet
EndChar

StartChar: Jcircumflex
Encoding: 308 308 87
Width: 579
Flags: W
LayerCount: 2
Fore
SplineSet
70 3 m 0
 31 12 -3 24 -34 41 c 1
 30 185 l 1
 93 155 148 140 193 140 c 0
 234 140 265 151 288 174 c 0
 311 197 326 232 333 280 c 2
 404 730 l 1
 576 730 l 1
 505 280 l 2
 489 179 456 106 404 60 c 0
 354 13 281 -10 186 -10 c 0
 147 -10 109 -6 70 3 c 0
273 980 m 1
 532 980 l 1
 619 770 l 1
 438 770 l 1
 394 917 l 1
 392 917 l 1
 301 770 l 1
 121 770 l 1
 273 980 l 1
EndSplineSet
EndChar

StartChar: K
Encoding: 75 75 88
Width: 670
Flags: W
LayerCount: 2
Fore
SplineSet
134 730 m 1
 301 730 l 1
 252 420 l 1
 254 420 l 1
 522 730 l 1
 717 730 l 1
 404 382 l 1
 612 0 l 1
 417 0 l 1
 242 343 l 1
 240 343 l 1
 185 0 l 1
 19 0 l 1
 134 730 l 1
EndSplineSet
EndChar

StartChar: uni0136
Encoding: 310 310 89
Width: 690
Flags: W
LayerCount: 2
Fore
SplineSet
134 730 m 1
 301 730 l 1
 252 420 l 1
 254 420 l 1
 522 730 l 1
 717 730 l 1
 404 382 l 1
 612 0 l 1
 417 0 l 1
 242 343 l 1
 240 343 l 1
 185 0 l 1
 19 0 l 1
 134 730 l 1
203 -250 m 1
 56 -250 l 1
 160 -40 l 1
 356 -40 l 1
 203 -250 l 1
EndSplineSet
EndChar

StartChar: L
Encoding: 76 76 90
Width: 570
Flags: W
LayerCount: 2
Fore
SplineSet
134 730 m 1
 305 730 l 1
 213 147 l 1
 522 147 l 1
 499 0 l 1
 19 0 l 1
 134 730 l 1
EndSplineSet
EndChar

StartChar: uni01C7
Encoding: 455 455 91
Width: 1188
Flags: W
LayerCount: 2
Fore
SplineSet
134 730 m 1
 305 730 l 1
 213 147 l 1
 522 147 l 1
 499 0 l 1
 19 0 l 1
 134 730 l 1
679 3 m 0
 640 12 606 24 575 41 c 1
 639 185 l 1
 702 155 757 140 802 140 c 0
 843 140 874 151 897 174 c 0
 920 197 935 232 942 280 c 2
 1013 730 l 1
 1185 730 l 1
 1114 280 l 2
 1098 179 1064 106 1014 60 c 0
 962 13 890 -10 795 -10 c 0
 756 -10 718 -6 679 3 c 0
EndSplineSet
EndChar

StartChar: Lacute
Encoding: 313 313 92
Width: 589
Flags: W
LayerCount: 2
Fore
SplineSet
134 730 m 1
 305 730 l 1
 213 147 l 1
 522 147 l 1
 499 0 l 1
 19 0 l 1
 134 730 l 1
436 770 m 1
 289 770 l 1
 393 980 l 1
 589 980 l 1
 436 770 l 1
EndSplineSet
EndChar

StartChar: Lcaron
Encoding: 317 317 93
Width: 624
Flags: W
LayerCount: 2
Fore
SplineSet
134 730 m 1
 305 730 l 1
 213 147 l 1
 522 147 l 1
 499 0 l 1
 19 0 l 1
 134 730 l 1
494 770 m 1
 674 770 l 1
 510 470 l 1
 379 470 l 1
 494 770 l 1
EndSplineSet
EndChar

StartChar: uni013B
Encoding: 315 315 94
Width: 589
Flags: W
LayerCount: 2
Fore
SplineSet
134 730 m 1
 305 730 l 1
 213 147 l 1
 522 147 l 1
 499 0 l 1
 19 0 l 1
 134 730 l 1
168 -250 m 1
 21 -250 l 1
 125 -40 l 1
 321 -40 l 1
 168 -250 l 1
EndSplineSet
EndChar

StartChar: Ldot
Encoding: 319 319 95
Width: 624
Flags: W
LayerCount: 2
Fore
SplineSet
134 730 m 1
 305 730 l 1
 213 147 l 1
 522 147 l 1
 499 0 l 1
 19 0 l 1
 134 730 l 1
392 464 m 1
 566 464 l 1
 538 287 l 1
 364 287 l 1
 392 464 l 1
EndSplineSet
EndChar

StartChar: uni01C8
Encoding: 456 456 96
Width: 948
Flags: W
LayerCount: 2
Fore
SplineSet
134 730 m 1
 305 730 l 1
 213 147 l 1
 522 147 l 1
 499 0 l 1
 19 0 l 1
 134 730 l 1
778 747 m 1
 938 747 l 1
 915 603 l 1
 755 603 l 1
 778 747 l 1
586 -94 m 0
 610 -88 628 -76 638 -58 c 0
 650 -39 658 -9 665 33 c 2
 742 520 l 1
 902 520 l 1
 825 33 l 2
 814 -36 796 -90 770 -127 c 0
 745 -164 708 -191 659 -206 c 0
 610 -222 544 -230 459 -230 c 1
 471 -103 l 1
 524 -103 563 -100 586 -94 c 0
EndSplineSet
EndChar

StartChar: Lslash
Encoding: 321 321 97
Width: 668
Flags: W
LayerCount: 2
Fore
SplineSet
311 147 m 1
 621 147 l 1
 597 0 l 1
 117 0 l 1
 159 262 l 1
 44 218 l 1
 15 332 l 1
 180 396 l 1
 233 730 l 1
 403 730 l 1
 361 466 l 1
 480 512 l 1
 509 398 l 1
 340 333 l 1
 311 147 l 1
EndSplineSet
EndChar

StartChar: M
Encoding: 77 77 98
Width: 855
Flags: W
LayerCount: 2
Fore
SplineSet
134 730 m 1
 342 730 l 1
 433 321 l 1
 435 321 l 1
 655 730 l 1
 862 730 l 1
 747 0 l 1
 580 0 l 1
 654 465 l 1
 652 465 l 1
 483 155 l 1
 331 155 l 1
 261 465 l 1
 259 465 l 1
 185 0 l 1
 19 0 l 1
 134 730 l 1
EndSplineSet
EndChar

StartChar: N
Encoding: 78 78 99
Width: 710
Flags: W
LayerCount: 2
Fore
SplineSet
134 730 m 1
 305 730 l 1
 478 280 l 1
 480 280 l 1
 551 730 l 1
 717 730 l 1
 602 0 l 1
 431 0 l 1
 259 450 l 1
 257 450 l 1
 185 0 l 1
 19 0 l 1
 134 730 l 1
EndSplineSet
EndChar

StartChar: uni01CA
Encoding: 458 458 100
Width: 1314
Flags: W
LayerCount: 2
Fore
SplineSet
134 730 m 1
 305 730 l 1
 478 280 l 1
 480 280 l 1
 551 730 l 1
 717 730 l 1
 602 0 l 1
 431 0 l 1
 259 450 l 1
 257 450 l 1
 185 0 l 1
 19 0 l 1
 134 730 l 1
805 3 m 0
 766 12 732 24 701 41 c 1
 765 185 l 1
 828 155 883 140 928 140 c 0
 969 140 1000 151 1023 174 c 0
 1046 197 1061 232 1068 280 c 2
 1139 730 l 1
 1311 730 l 1
 1240 280 l 2
 1224 179 1190 106 1140 60 c 0
 1088 13 1016 -10 921 -10 c 0
 882 -10 844 -6 805 3 c 0
EndSplineSet
EndChar

StartChar: Nacute
Encoding: 323 323 101
Width: 735
Flags: W
LayerCount: 2
Fore
SplineSet
134 730 m 1
 305 730 l 1
 478 280 l 1
 480 280 l 1
 551 730 l 1
 717 730 l 1
 602 0 l 1
 431 0 l 1
 259 450 l 1
 257 450 l 1
 185 0 l 1
 19 0 l 1
 134 730 l 1
508 770 m 1
 361 770 l 1
 465 980 l 1
 661 980 l 1
 508 770 l 1
EndSplineSet
EndChar

StartChar: Ncaron
Encoding: 327 327 102
Width: 735
Flags: W
LayerCount: 2
Fore
SplineSet
134 730 m 1
 305 730 l 1
 478 280 l 1
 480 280 l 1
 551 730 l 1
 717 730 l 1
 602 0 l 1
 431 0 l 1
 259 450 l 1
 257 450 l 1
 185 0 l 1
 19 0 l 1
 134 730 l 1
232 980 m 1
 412 980 l 1
 457 833 l 1
 459 833 l 1
 549 980 l 1
 730 980 l 1
 577 770 l 1
 318 770 l 1
 232 980 l 1
EndSplineSet
EndChar

StartChar: uni0145
Encoding: 325 325 103
Width: 735
Flags: W
LayerCount: 2
Fore
SplineSet
134 730 m 1
 305 730 l 1
 478 280 l 1
 480 280 l 1
 551 730 l 1
 717 730 l 1
 602 0 l 1
 431 0 l 1
 259 450 l 1
 257 450 l 1
 185 0 l 1
 19 0 l 1
 134 730 l 1
241 -250 m 1
 94 -250 l 1
 198 -40 l 1
 394 -40 l 1
 241 -250 l 1
EndSplineSet
EndChar

StartChar: Eng
Encoding: 330 330 104
Width: 710
Flags: W
LayerCount: 2
Fore
SplineSet
717 730 m 1
 601 -2 l 2
 592 -57 579 -100 562 -133 c 0
 544 -166 520 -189 489 -204 c 0
 458 -219 419 -226 370 -226 c 0
 325 -226 281 -221 240 -211 c 1
 280 -77 l 1
 304 -85 329 -89 356 -89 c 0
 380 -89 398 -83 410 -72 c 0
 421 -60 430 -39 435 -8 c 1
 256 433 l 1
 254 433 l 1
 185 0 l 1
 19 0 l 1
 134 730 l 1
 305 730 l 1
 480 297 l 1
 482 297 l 1
 551 730 l 1
 717 730 l 1
EndSplineSet
EndChar

StartChar: uni01CB
Encoding: 459 459 105
Width: 1094
Flags: W
LayerCount: 2
Fore
SplineSet
134 730 m 1
 305 730 l 1
 478 280 l 1
 480 280 l 1
 551 730 l 1
 717 730 l 1
 602 0 l 1
 431 0 l 1
 259 450 l 1
 257 450 l 1
 185 0 l 1
 19 0 l 1
 134 730 l 1
924 747 m 1
 1084 747 l 1
 1061 603 l 1
 901 603 l 1
 924 747 l 1
732 -94 m 0
 756 -88 774 -76 784 -58 c 0
 796 -39 804 -9 811 33 c 2
 888 520 l 1
 1048 520 l 1
 971 33 l 2
 960 -36 942 -90 916 -127 c 0
 891 -164 854 -191 805 -206 c 0
 756 -222 690 -230 605 -230 c 1
 617 -103 l 1
 670 -103 709 -100 732 -94 c 0
EndSplineSet
EndChar

StartChar: Ntilde
Encoding: 209 209 106
Width: 735
Flags: W
LayerCount: 2
Fore
SplineSet
134 730 m 1
 305 730 l 1
 478 280 l 1
 480 280 l 1
 551 730 l 1
 717 730 l 1
 602 0 l 1
 431 0 l 1
 259 450 l 1
 257 450 l 1
 185 0 l 1
 19 0 l 1
 134 730 l 1
425 818 m 0
 402 834 383 842 369 842 c 0
 360 842 353 838 348 829 c 0
 343 820 339 804 335 779 c 1
 206 779 l 1
 217 848 234 898 258 932 c 0
 281 964 312 981 350 981 c 0
 387 981 429 965 478 932 c 0
 501 916 520 908 533 908 c 0
 542 908 550 912 554 921 c 0
 560 930 564 946 567 971 c 1
 697 971 l 1
 686 902 669 852 645 818 c 0
 621 786 590 769 551 769 c 0
 516 769 474 785 425 818 c 0
EndSplineSet
EndChar

StartChar: O
Encoding: 79 79 107
Width: 789
Flags: W
LayerCount: 2
Fore
SplineSet
162 35 m 0
 112 65 77 108 56 164 c 0
 36 221 32 288 45 365 c 0
 57 442 82 509 120 566 c 0
 158 622 207 665 266 695 c 0
 325 725 393 740 468 740 c 0
 543 740 606 725 656 695 c 0
 705 665 740 622 760 566 c 0
 780 509 784 442 772 365 c 0
 760 288 735 221 696 164 c 0
 658 108 610 65 550 35 c 0
 492 5 424 -10 349 -10 c 0
 274 -10 211 5 162 35 c 0
524 196 m 0
 563 234 589 291 600 365 c 0
 612 439 604 496 578 534 c 0
 550 574 506 593 444 593 c 0
 381 593 330 574 292 534 c 0
 252 496 227 439 215 365 c 0
 203 291 210 234 238 196 c 0
 264 156 309 137 372 137 c 0
 434 137 485 156 524 196 c 0
EndSplineSet
EndChar

StartChar: Oacute
Encoding: 211 211 108
Width: 811
Flags: W
LayerCount: 2
Fore
SplineSet
162 35 m 0
 112 65 77 108 56 164 c 0
 36 221 32 288 45 365 c 0
 57 442 82 509 120 566 c 0
 158 622 207 665 266 695 c 0
 325 725 393 740 468 740 c 0
 543 740 606 725 656 695 c 0
 705 665 740 622 760 566 c 0
 780 509 784 442 772 365 c 0
 760 288 735 221 696 164 c 0
 658 108 610 65 550 35 c 0
 492 5 424 -10 349 -10 c 0
 274 -10 211 5 162 35 c 0
524 196 m 0
 563 234 589 291 600 365 c 0
 612 439 604 496 578 534 c 0
 550 574 506 593 444 593 c 0
 381 593 330 574 292 534 c 0
 252 496 227 439 215 365 c 0
 203 291 210 234 238 196 c 0
 264 156 309 137 372 137 c 0
 434 137 485 156 524 196 c 0
546 770 m 1
 399 770 l 1
 503 980 l 1
 699 980 l 1
 546 770 l 1
EndSplineSet
EndChar

StartChar: Obreve
Encoding: 334 334 109
Width: 811
Flags: W
LayerCount: 2
Fore
SplineSet
162 35 m 0
 112 65 77 108 56 164 c 0
 36 221 32 288 45 365 c 0
 57 442 82 509 120 566 c 0
 158 622 207 665 266 695 c 0
 325 725 393 740 468 740 c 0
 543 740 606 725 656 695 c 0
 705 665 740 622 760 566 c 0
 780 509 784 442 772 365 c 0
 760 288 735 221 696 164 c 0
 658 108 610 65 550 35 c 0
 492 5 424 -10 349 -10 c 0
 274 -10 211 5 162 35 c 0
524 196 m 0
 563 234 589 291 600 365 c 0
 612 439 604 496 578 534 c 0
 550 574 506 593 444 593 c 0
 381 593 330 574 292 534 c 0
 252 496 227 439 215 365 c 0
 203 291 210 234 238 196 c 0
 264 156 309 137 372 137 c 0
 434 137 485 156 524 196 c 0
367 794 m 0
 335 811 312 835 296 866 c 0
 282 897 277 932 282 971 c 1
 432 971 l 1
 431 941 435 919 446 904 c 0
 457 890 474 883 499 883 c 0
 523 883 543 890 558 904 c 0
 573 919 585 941 594 971 c 1
 743 971 l 1
 736 932 720 897 696 866 c 0
 670 835 639 811 602 794 c 0
 565 777 524 768 481 768 c 0
 437 768 399 777 367 794 c 0
EndSplineSet
EndChar

StartChar: Ocircumflex
Encoding: 212 212 110
Width: 811
Flags: W
LayerCount: 2
Fore
SplineSet
162 35 m 0
 112 65 77 108 56 164 c 0
 36 221 32 288 45 365 c 0
 57 442 82 509 120 566 c 0
 158 622 207 665 266 695 c 0
 325 725 393 740 468 740 c 0
 543 740 606 725 656 695 c 0
 705 665 740 622 760 566 c 0
 780 509 784 442 772 365 c 0
 760 288 735 221 696 164 c 0
 658 108 610 65 550 35 c 0
 492 5 424 -10 349 -10 c 0
 274 -10 211 5 162 35 c 0
524 196 m 0
 563 234 589 291 600 365 c 0
 612 439 604 496 578 534 c 0
 550 574 506 593 444 593 c 0
 381 593 330 574 292 534 c 0
 252 496 227 439 215 365 c 0
 203 291 210 234 238 196 c 0
 264 156 309 137 372 137 c 0
 434 137 485 156 524 196 c 0
389 980 m 1
 648 980 l 1
 735 770 l 1
 554 770 l 1
 510 917 l 1
 508 917 l 1
 417 770 l 1
 237 770 l 1
 389 980 l 1
EndSplineSet
EndChar

StartChar: uni1ED0
Encoding: 7888 7888 111
Width: 790
Flags: W
LayerCount: 2
Fore
SplineSet
495 917 m 1
 404 770 l 1
 223 770 l 1
 376 980 l 1
 619 980 l 1
 709 1160 l 1
 905 1160 l 1
 752 950 l 1
 647 950 l 1
 721 770 l 1
 541 770 l 1
 497 917 l 1
 495 917 l 1
655 695 m 0
 705 665 740 622 760 566 c 0
 780 509 784 442 772 365 c 0
 760 288 735 221 696 164 c 0
 658 108 610 65 550 35 c 0
 492 5 424 -10 349 -10 c 0
 274 -10 211 5 162 35 c 0
 112 65 77 108 56 164 c 0
 36 221 32 288 45 365 c 0
 57 442 82 509 120 566 c 0
 158 622 207 665 266 695 c 0
 325 725 393 740 468 740 c 0
 543 740 605 725 655 695 c 0
524 196 m 0
 563 234 589 291 600 365 c 0
 612 439 604 496 578 534 c 0
 550 574 506 593 444 593 c 0
 381 593 330 574 292 534 c 0
 252 496 227 439 215 365 c 0
 203 291 210 234 238 196 c 0
 264 156 309 137 372 137 c 0
 434 137 485 156 524 196 c 0
EndSplineSet
EndChar

StartChar: uni1ED8
Encoding: 7896 7896 112
Width: 811
Flags: W
LayerCount: 2
Fore
SplineSet
162 35 m 0
 112 65 77 108 56 164 c 0
 36 221 32 288 45 365 c 0
 57 442 82 509 120 566 c 0
 158 622 207 665 266 695 c 0
 325 725 393 740 468 740 c 0
 543 740 606 725 656 695 c 0
 705 665 740 622 760 566 c 0
 780 509 784 442 772 365 c 0
 760 288 735 221 696 164 c 0
 658 108 610 65 550 35 c 0
 492 5 424 -10 349 -10 c 0
 274 -10 211 5 162 35 c 0
524 196 m 0
 563 234 589 291 600 365 c 0
 612 439 604 496 578 534 c 0
 550 574 506 593 444 593 c 0
 381 593 330 574 292 534 c 0
 252 496 227 439 215 365 c 0
 203 291 210 234 238 196 c 0
 264 156 309 137 372 137 c 0
 434 137 485 156 524 196 c 0
285 -61 m 1
 450 -61 l 1
 423 -229 l 1
 259 -229 l 1
 285 -61 l 1
389 980 m 1
 648 980 l 1
 735 770 l 1
 554 770 l 1
 510 917 l 1
 508 917 l 1
 417 770 l 1
 237 770 l 1
 389 980 l 1
EndSplineSet
EndChar

StartChar: uni1ED2
Encoding: 7890 7890 113
Width: 790
Flags: W
LayerCount: 2
Fore
SplineSet
355 950 m 1
 250 950 l 1
 163 1160 l 1
 359 1160 l 1
 392 980 l 1
 636 980 l 1
 722 770 l 1
 542 770 l 1
 497 917 l 1
 495 917 l 1
 404 770 l 1
 224 770 l 1
 355 950 l 1
656 695 m 0
 705 665 740 622 760 566 c 0
 781 509 785 442 772 365 c 0
 760 288 735 221 697 164 c 0
 659 108 610 65 551 35 c 0
 492 5 424 -10 349 -10 c 0
 274 -10 211 5 162 35 c 0
 112 65 77 108 57 164 c 0
 37 221 33 288 45 365 c 0
 57 442 82 509 120 566 c 0
 159 622 208 665 266 695 c 0
 326 725 393 740 468 740 c 0
 543 740 606 725 656 695 c 0
524 196 m 0
 564 234 589 291 601 365 c 0
 613 439 606 496 578 534 c 0
 552 574 507 593 445 593 c 0
 382 593 331 574 292 534 c 0
 253 496 227 439 216 365 c 0
 204 291 212 234 238 196 c 0
 266 156 310 137 373 137 c 0
 435 137 486 156 524 196 c 0
EndSplineSet
EndChar

StartChar: uni1ED4
Encoding: 7892 7892 114
Width: 789
Flags: W
LayerCount: 2
Fore
SplineSet
404 770 m 1
 223 770 l 1
 376 980 l 1
 619 980 l 1
 623 992 626 1003 627 1012 c 0
 629 1025 627 1033 620 1038 c 0
 614 1042 601 1044 581 1044 c 0
 535 1044 487 1036 436 1021 c 1
 442 1140 l 1
 470 1146 500 1151 532 1154 c 0
 565 1158 595 1160 624 1160 c 0
 671 1160 707 1157 732 1152 c 0
 757 1147 773 1138 782 1124 c 0
 791 1112 793 1093 789 1069 c 0
 786 1051 781 1031 774 1008 c 0
 766 986 757 967 748 950 c 1
 647 950 l 1
 721 770 l 1
 541 770 l 1
 497 917 l 1
 495 917 l 1
 404 770 l 1
655 695 m 0
 705 665 740 622 760 566 c 0
 780 509 784 442 772 365 c 0
 760 288 735 221 696 164 c 0
 658 108 610 65 550 35 c 0
 492 5 424 -10 349 -10 c 0
 274 -10 211 5 162 35 c 0
 112 65 77 108 56 164 c 0
 36 221 32 288 45 365 c 0
 57 442 82 509 120 566 c 0
 158 622 207 665 266 695 c 0
 325 725 393 740 468 740 c 0
 543 740 605 725 655 695 c 0
524 196 m 0
 563 234 589 291 600 365 c 0
 612 439 604 496 578 534 c 0
 550 574 506 593 444 593 c 0
 381 593 330 574 292 534 c 0
 252 496 227 439 215 365 c 0
 203 291 210 234 238 196 c 0
 264 156 309 137 372 137 c 0
 434 137 485 156 524 196 c 0
EndSplineSet
EndChar

StartChar: uni1ED6
Encoding: 7894 7894 115
Width: 811
Flags: W
LayerCount: 2
Fore
SplineSet
162 35 m 0
 112 65 77 108 56 164 c 0
 36 221 32 288 45 365 c 0
 57 442 82 509 120 566 c 0
 158 622 207 665 266 695 c 0
 325 725 393 740 468 740 c 0
 543 740 606 725 656 695 c 0
 705 665 740 622 760 566 c 0
 780 509 784 442 772 365 c 0
 760 288 735 221 696 164 c 0
 658 108 610 65 550 35 c 0
 492 5 424 -10 349 -10 c 0
 274 -10 211 5 162 35 c 0
524 196 m 0
 563 234 589 291 600 365 c 0
 612 439 604 496 578 534 c 0
 550 574 506 593 444 593 c 0
 381 593 330 574 292 534 c 0
 252 496 227 439 215 365 c 0
 203 291 210 234 238 196 c 0
 264 156 309 137 372 137 c 0
 434 137 485 156 524 196 c 0
389 980 m 1
 648 980 l 1
 735 770 l 1
 554 770 l 1
 510 917 l 1
 508 917 l 1
 417 770 l 1
 237 770 l 1
 389 980 l 1
501 1055 m 0
 478 1071 459 1079 445 1079 c 0
 436 1079 429 1075 424 1066 c 0
 419 1057 415 1041 411 1016 c 1
 282 1016 l 1
 293 1085 310 1136 334 1168 c 0
 357 1202 388 1218 426 1218 c 0
 463 1218 505 1202 554 1169 c 0
 577 1153 596 1145 609 1145 c 0
 618 1145 626 1149 630 1158 c 0
 636 1167 640 1183 643 1208 c 1
 773 1208 l 1
 762 1139 745 1088 721 1056 c 0
 697 1022 666 1006 627 1006 c 0
 592 1006 550 1022 501 1055 c 0
EndSplineSet
EndChar

StartChar: uni020C
Encoding: 524 524 116
Width: 811
Flags: W
LayerCount: 2
Fore
SplineSet
162 35 m 0
 112 65 77 108 56 164 c 0
 36 221 32 288 45 365 c 0
 57 442 82 509 120 566 c 0
 158 622 207 665 266 695 c 0
 325 725 393 740 468 740 c 0
 543 740 606 725 656 695 c 0
 705 665 740 622 760 566 c 0
 780 509 784 442 772 365 c 0
 760 288 735 221 696 164 c 0
 658 108 610 65 550 35 c 0
 492 5 424 -10 349 -10 c 0
 274 -10 211 5 162 35 c 0
524 196 m 0
 563 234 589 291 600 365 c 0
 612 439 604 496 578 534 c 0
 550 574 506 593 444 593 c 0
 381 593 330 574 292 534 c 0
 252 496 227 439 215 365 c 0
 203 291 210 234 238 196 c 0
 264 156 309 137 372 137 c 0
 434 137 485 156 524 196 c 0
195 980 m 1
 391 980 l 1
 429 770 l 1
 282 770 l 1
 195 980 l 1
445 980 m 1
 641 980 l 1
 679 770 l 1
 532 770 l 1
 445 980 l 1
EndSplineSet
EndChar

StartChar: Odieresis
Encoding: 214 214 117
Width: 811
Flags: W
LayerCount: 2
Fore
SplineSet
162 35 m 0
 112 65 77 108 56 164 c 0
 36 221 32 288 45 365 c 0
 57 442 82 509 120 566 c 0
 158 622 207 665 266 695 c 0
 325 725 393 740 468 740 c 0
 543 740 606 725 656 695 c 0
 705 665 740 622 760 566 c 0
 780 509 784 442 772 365 c 0
 760 288 735 221 696 164 c 0
 658 108 610 65 550 35 c 0
 492 5 424 -10 349 -10 c 0
 274 -10 211 5 162 35 c 0
524 196 m 0
 563 234 589 291 600 365 c 0
 612 439 604 496 578 534 c 0
 550 574 506 593 444 593 c 0
 381 593 330 574 292 534 c 0
 252 496 227 439 215 365 c 0
 203 291 210 234 238 196 c 0
 264 156 309 137 372 137 c 0
 434 137 485 156 524 196 c 0
297 959 m 1
 462 959 l 1
 435 791 l 1
 270 791 l 1
 297 959 l 1
556 959 m 1
 721 959 l 1
 695 791 l 1
 529 791 l 1
 556 959 l 1
EndSplineSet
EndChar

StartChar: uni022A
Encoding: 554 554 118
Width: 811
Flags: W
LayerCount: 2
Fore
SplineSet
162 35 m 0
 112 65 77 108 56 164 c 0
 36 221 32 288 45 365 c 0
 57 442 82 509 120 566 c 0
 158 622 207 665 266 695 c 0
 325 725 393 740 468 740 c 0
 543 740 606 725 656 695 c 0
 705 665 740 622 760 566 c 0
 780 509 784 442 772 365 c 0
 760 288 735 221 696 164 c 0
 658 108 610 65 550 35 c 0
 492 5 424 -10 349 -10 c 0
 274 -10 211 5 162 35 c 0
524 196 m 0
 563 234 589 291 600 365 c 0
 612 439 604 496 578 534 c 0
 550 574 506 593 444 593 c 0
 381 593 330 574 292 534 c 0
 252 496 227 439 215 365 c 0
 203 291 210 234 238 196 c 0
 264 156 309 137 372 137 c 0
 434 137 485 156 524 196 c 0
297 959 m 1
 462 959 l 1
 435 791 l 1
 270 791 l 1
 297 959 l 1
556 959 m 1
 721 959 l 1
 695 791 l 1
 529 791 l 1
 556 959 l 1
382 1165 m 1
 780 1165 l 1
 760 1043 l 1
 363 1043 l 1
 382 1165 l 1
EndSplineSet
EndChar

StartChar: uni0230
Encoding: 560 560 119
Width: 811
Flags: W
LayerCount: 2
Fore
SplineSet
162 35 m 0
 112 65 77 108 56 164 c 0
 36 221 32 288 45 365 c 0
 57 442 82 509 120 566 c 0
 158 622 207 665 266 695 c 0
 325 725 393 740 468 740 c 0
 543 740 606 725 656 695 c 0
 705 665 740 622 760 566 c 0
 780 509 784 442 772 365 c 0
 760 288 735 221 696 164 c 0
 658 108 610 65 550 35 c 0
 492 5 424 -10 349 -10 c 0
 274 -10 211 5 162 35 c 0
524 196 m 0
 563 234 589 291 600 365 c 0
 612 439 604 496 578 534 c 0
 550 574 506 593 444 593 c 0
 381 593 330 574 292 534 c 0
 252 496 227 439 215 365 c 0
 203 291 210 234 238 196 c 0
 264 156 309 137 372 137 c 0
 434 137 485 156 524 196 c 0
446 959 m 1
 611 959 l 1
 584 791 l 1
 420 791 l 1
 446 959 l 1
382 1165 m 1
 780 1165 l 1
 760 1043 l 1
 363 1043 l 1
 382 1165 l 1
EndSplineSet
EndChar

StartChar: uni1ECC
Encoding: 7884 7884 120
Width: 811
Flags: W
LayerCount: 2
Fore
SplineSet
162 35 m 0
 112 65 77 108 56 164 c 0
 36 221 32 288 45 365 c 0
 57 442 82 509 120 566 c 0
 158 622 207 665 266 695 c 0
 325 725 393 740 468 740 c 0
 543 740 606 725 656 695 c 0
 705 665 740 622 760 566 c 0
 780 509 784 442 772 365 c 0
 760 288 735 221 696 164 c 0
 658 108 610 65 550 35 c 0
 492 5 424 -10 349 -10 c 0
 274 -10 211 5 162 35 c 0
524 196 m 0
 563 234 589 291 600 365 c 0
 612 439 604 496 578 534 c 0
 550 574 506 593 444 593 c 0
 381 593 330 574 292 534 c 0
 252 496 227 439 215 365 c 0
 203 291 210 234 238 196 c 0
 264 156 309 137 372 137 c 0
 434 137 485 156 524 196 c 0
285 -61 m 1
 450 -61 l 1
 423 -229 l 1
 259 -229 l 1
 285 -61 l 1
EndSplineSet
EndChar

StartChar: Ograve
Encoding: 210 210 121
Width: 811
Flags: W
LayerCount: 2
Fore
SplineSet
162 35 m 0
 112 65 77 108 56 164 c 0
 36 221 32 288 45 365 c 0
 57 442 82 509 120 566 c 0
 158 622 207 665 266 695 c 0
 325 725 393 740 468 740 c 0
 543 740 606 725 656 695 c 0
 705 665 740 622 760 566 c 0
 780 509 784 442 772 365 c 0
 760 288 735 221 696 164 c 0
 658 108 610 65 550 35 c 0
 492 5 424 -10 349 -10 c 0
 274 -10 211 5 162 35 c 0
524 196 m 0
 563 234 589 291 600 365 c 0
 612 439 604 496 578 534 c 0
 550 574 506 593 444 593 c 0
 381 593 330 574 292 534 c 0
 252 496 227 439 215 365 c 0
 203 291 210 234 238 196 c 0
 264 156 309 137 372 137 c 0
 434 137 485 156 524 196 c 0
331 980 m 1
 527 980 l 1
 565 770 l 1
 418 770 l 1
 331 980 l 1
EndSplineSet
EndChar

StartChar: uni1ECE
Encoding: 7886 7886 122
Width: 811
Flags: W
LayerCount: 2
Fore
SplineSet
162 35 m 0
 112 65 77 108 56 164 c 0
 36 221 32 288 45 365 c 0
 57 442 82 509 120 566 c 0
 158 622 207 665 266 695 c 0
 325 725 393 740 468 740 c 0
 543 740 606 725 656 695 c 0
 705 665 740 622 760 566 c 0
 780 509 784 442 772 365 c 0
 760 288 735 221 696 164 c 0
 658 108 610 65 550 35 c 0
 492 5 424 -10 349 -10 c 0
 274 -10 211 5 162 35 c 0
524 196 m 0
 563 234 589 291 600 365 c 0
 612 439 604 496 578 534 c 0
 550 574 506 593 444 593 c 0
 381 593 330 574 292 534 c 0
 252 496 227 439 215 365 c 0
 203 291 210 234 238 196 c 0
 264 156 309 137 372 137 c 0
 434 137 485 156 524 196 c 0
552 840 m 0
 554 853 552 861 545 866 c 0
 538 870 525 872 506 872 c 0
 460 872 411 864 360 849 c 1
 366 968 l 1
 394 974 424 979 457 982 c 0
 490 986 520 988 549 988 c 0
 596 988 632 985 656 980 c 0
 681 975 698 966 706 952 c 0
 716 940 718 921 714 897 c 0
 711 879 706 859 698 836 c 0
 690 814 681 795 672 778 c 1
 531 778 l 1
 542 800 549 821 552 840 c 0
EndSplineSet
EndChar

StartChar: Ohorn
Encoding: 416 416 123
Width: 819
Flags: W
LayerCount: 2
Fore
SplineSet
852 595 m 0
 830 567 802 549 768 540 c 1
 781 489 782 431 772 365 c 0
 760 288 735 221 696 164 c 0
 658 108 610 65 550 35 c 0
 492 5 424 -10 349 -10 c 0
 274 -10 211 5 162 35 c 0
 112 65 77 108 56 164 c 0
 36 221 32 288 45 365 c 0
 57 442 82 509 120 566 c 0
 158 622 207 665 266 695 c 0
 325 725 393 740 468 740 c 0
 566 740 642 715 697 664 c 1
 710 665 721 671 730 682 c 0
 738 692 743 705 746 722 c 0
 748 737 748 756 748 779 c 0
 746 802 744 822 741 837 c 1
 896 837 l 1
 903 794 902 750 895 705 c 0
 888 660 873 623 852 595 c 0
524 196 m 0
 563 234 589 291 600 365 c 0
 612 439 604 496 578 534 c 0
 550 574 506 593 444 593 c 0
 381 593 330 574 292 534 c 0
 252 496 227 439 215 365 c 0
 203 291 210 234 238 196 c 0
 264 156 309 137 372 137 c 0
 434 137 485 156 524 196 c 0
EndSplineSet
EndChar

StartChar: uni1EDA
Encoding: 7898 7898 124
Width: 838
Flags: W
LayerCount: 2
Fore
SplineSet
852 595 m 0
 830 567 802 549 768 540 c 1
 781 489 782 431 772 365 c 0
 760 288 735 221 696 164 c 0
 658 108 610 65 550 35 c 0
 492 5 424 -10 349 -10 c 0
 274 -10 211 5 162 35 c 0
 112 65 77 108 56 164 c 0
 36 221 32 288 45 365 c 0
 57 442 82 509 120 566 c 0
 158 622 207 665 266 695 c 0
 325 725 393 740 468 740 c 0
 566 740 642 715 697 664 c 1
 710 665 721 671 730 682 c 0
 738 692 743 705 746 722 c 0
 748 737 748 756 748 779 c 0
 746 802 744 822 741 837 c 1
 896 837 l 1
 903 794 902 750 895 705 c 0
 888 660 873 623 852 595 c 0
524 196 m 0
 563 234 589 291 600 365 c 0
 612 439 604 496 578 534 c 0
 550 574 506 593 444 593 c 0
 381 593 330 574 292 534 c 0
 252 496 227 439 215 365 c 0
 203 291 210 234 238 196 c 0
 264 156 309 137 372 137 c 0
 434 137 485 156 524 196 c 0
546 770 m 1
 399 770 l 1
 503 980 l 1
 699 980 l 1
 546 770 l 1
EndSplineSet
EndChar

StartChar: uni1EE2
Encoding: 7906 7906 125
Width: 838
Flags: W
LayerCount: 2
Fore
SplineSet
852 595 m 0
 830 567 802 549 768 540 c 1
 781 489 782 431 772 365 c 0
 760 288 735 221 696 164 c 0
 658 108 610 65 550 35 c 0
 492 5 424 -10 349 -10 c 0
 274 -10 211 5 162 35 c 0
 112 65 77 108 56 164 c 0
 36 221 32 288 45 365 c 0
 57 442 82 509 120 566 c 0
 158 622 207 665 266 695 c 0
 325 725 393 740 468 740 c 0
 566 740 642 715 697 664 c 1
 710 665 721 671 730 682 c 0
 738 692 743 705 746 722 c 0
 748 737 748 756 748 779 c 0
 746 802 744 822 741 837 c 1
 896 837 l 1
 903 794 902 750 895 705 c 0
 888 660 873 623 852 595 c 0
524 196 m 0
 563 234 589 291 600 365 c 0
 612 439 604 496 578 534 c 0
 550 574 506 593 444 593 c 0
 381 593 330 574 292 534 c 0
 252 496 227 439 215 365 c 0
 203 291 210 234 238 196 c 0
 264 156 309 137 372 137 c 0
 434 137 485 156 524 196 c 0
285 -61 m 1
 450 -61 l 1
 423 -229 l 1
 259 -229 l 1
 285 -61 l 1
EndSplineSet
EndChar

StartChar: uni1EDC
Encoding: 7900 7900 126
Width: 838
Flags: W
LayerCount: 2
Fore
SplineSet
852 595 m 0
 830 567 802 549 768 540 c 1
 781 489 782 431 772 365 c 0
 760 288 735 221 696 164 c 0
 658 108 610 65 550 35 c 0
 492 5 424 -10 349 -10 c 0
 274 -10 211 5 162 35 c 0
 112 65 77 108 56 164 c 0
 36 221 32 288 45 365 c 0
 57 442 82 509 120 566 c 0
 158 622 207 665 266 695 c 0
 325 725 393 740 468 740 c 0
 566 740 642 715 697 664 c 1
 710 665 721 671 730 682 c 0
 738 692 743 705 746 722 c 0
 748 737 748 756 748 779 c 0
 746 802 744 822 741 837 c 1
 896 837 l 1
 903 794 902 750 895 705 c 0
 888 660 873 623 852 595 c 0
524 196 m 0
 563 234 589 291 600 365 c 0
 612 439 604 496 578 534 c 0
 550 574 506 593 444 593 c 0
 381 593 330 574 292 534 c 0
 252 496 227 439 215 365 c 0
 203 291 210 234 238 196 c 0
 264 156 309 137 372 137 c 0
 434 137 485 156 524 196 c 0
331 980 m 1
 527 980 l 1
 565 770 l 1
 418 770 l 1
 331 980 l 1
EndSplineSet
EndChar

StartChar: uni1EDE
Encoding: 7902 7902 127
Width: 838
Flags: W
LayerCount: 2
Fore
SplineSet
852 595 m 0
 830 567 802 549 768 540 c 1
 781 489 782 431 772 365 c 0
 760 288 735 221 696 164 c 0
 658 108 610 65 550 35 c 0
 492 5 424 -10 349 -10 c 0
 274 -10 211 5 162 35 c 0
 112 65 77 108 56 164 c 0
 36 221 32 288 45 365 c 0
 57 442 82 509 120 566 c 0
 158 622 207 665 266 695 c 0
 325 725 393 740 468 740 c 0
 566 740 642 715 697 664 c 1
 710 665 721 671 730 682 c 0
 738 692 743 705 746 722 c 0
 748 737 748 756 748 779 c 0
 746 802 744 822 741 837 c 1
 896 837 l 1
 903 794 902 750 895 705 c 0
 888 660 873 623 852 595 c 0
524 196 m 0
 563 234 589 291 600 365 c 0
 612 439 604 496 578 534 c 0
 550 574 506 593 444 593 c 0
 381 593 330 574 292 534 c 0
 252 496 227 439 215 365 c 0
 203 291 210 234 238 196 c 0
 264 156 309 137 372 137 c 0
 434 137 485 156 524 196 c 0
552 840 m 0
 554 853 552 861 545 866 c 0
 538 870 525 872 506 872 c 0
 460 872 411 864 360 849 c 1
 366 968 l 1
 394 974 424 979 457 982 c 0
 490 986 520 988 549 988 c 0
 596 988 632 985 656 980 c 0
 681 975 698 966 706 952 c 0
 716 940 718 921 714 897 c 0
 711 879 706 859 698 836 c 0
 690 814 681 795 672 778 c 1
 531 778 l 1
 542 800 549 821 552 840 c 0
EndSplineSet
EndChar

StartChar: uni1EE0
Encoding: 7904 7904 128
Width: 838
Flags: W
LayerCount: 2
Fore
SplineSet
852 595 m 0
 830 567 802 549 768 540 c 1
 781 489 782 431 772 365 c 0
 760 288 735 221 696 164 c 0
 658 108 610 65 550 35 c 0
 492 5 424 -10 349 -10 c 0
 274 -10 211 5 162 35 c 0
 112 65 77 108 56 164 c 0
 36 221 32 288 45 365 c 0
 57 442 82 509 120 566 c 0
 158 622 207 665 266 695 c 0
 325 725 393 740 468 740 c 0
 566 740 642 715 697 664 c 1
 710 665 721 671 730 682 c 0
 738 692 743 705 746 722 c 0
 748 737 748 756 748 779 c 0
 746 802 744 822 741 837 c 1
 896 837 l 1
 903 794 902 750 895 705 c 0
 888 660 873 623 852 595 c 0
524 196 m 0
 563 234 589 291 600 365 c 0
 612 439 604 496 578 534 c 0
 550 574 506 593 444 593 c 0
 381 593 330 574 292 534 c 0
 252 496 227 439 215 365 c 0
 203 291 210 234 238 196 c 0
 264 156 309 137 372 137 c 0
 434 137 485 156 524 196 c 0
463 818 m 0
 440 834 421 842 407 842 c 0
 398 842 391 838 386 829 c 0
 381 820 377 804 373 779 c 1
 244 779 l 1
 255 848 272 898 296 932 c 0
 319 964 350 981 388 981 c 0
 425 981 467 965 516 932 c 0
 539 916 558 908 571 908 c 0
 580 908 588 912 592 921 c 0
 598 930 602 946 605 971 c 1
 735 971 l 1
 724 902 707 852 683 818 c 0
 659 786 628 769 589 769 c 0
 554 769 512 785 463 818 c 0
EndSplineSet
EndChar

StartChar: Ohungarumlaut
Encoding: 336 336 129
Width: 811
Flags: W
LayerCount: 2
Fore
SplineSet
162 35 m 0
 112 65 77 108 56 164 c 0
 36 221 32 288 45 365 c 0
 57 442 82 509 120 566 c 0
 158 622 207 665 266 695 c 0
 325 725 393 740 468 740 c 0
 543 740 606 725 656 695 c 0
 705 665 740 622 760 566 c 0
 780 509 784 442 772 365 c 0
 760 288 735 221 696 164 c 0
 658 108 610 65 550 35 c 0
 492 5 424 -10 349 -10 c 0
 274 -10 211 5 162 35 c 0
524 196 m 0
 563 234 589 291 600 365 c 0
 612 439 604 496 578 534 c 0
 550 574 506 593 444 593 c 0
 381 593 330 574 292 534 c 0
 252 496 227 439 215 365 c 0
 203 291 210 234 238 196 c 0
 264 156 309 137 372 137 c 0
 434 137 485 156 524 196 c 0
423 770 m 1
 276 770 l 1
 380 980 l 1
 576 980 l 1
 423 770 l 1
678 770 m 1
 531 770 l 1
 635 980 l 1
 831 980 l 1
 678 770 l 1
EndSplineSet
EndChar

StartChar: uni020E
Encoding: 526 526 130
Width: 811
Flags: W
LayerCount: 2
Fore
SplineSet
162 35 m 0
 112 65 77 108 56 164 c 0
 36 221 32 288 45 365 c 0
 57 442 82 509 120 566 c 0
 158 622 207 665 266 695 c 0
 325 725 393 740 468 740 c 0
 543 740 606 725 656 695 c 0
 705 665 740 622 760 566 c 0
 780 509 784 442 772 365 c 0
 760 288 735 221 696 164 c 0
 658 108 610 65 550 35 c 0
 492 5 424 -10 349 -10 c 0
 274 -10 211 5 162 35 c 0
524 196 m 0
 563 234 589 291 600 365 c 0
 612 439 604 496 578 534 c 0
 550 574 506 593 444 593 c 0
 381 593 330 574 292 534 c 0
 252 496 227 439 215 365 c 0
 203 291 210 234 238 196 c 0
 264 156 309 137 372 137 c 0
 434 137 485 156 524 196 c 0
618 956 m 0
 650 939 674 915 688 884 c 0
 704 853 708 818 703 779 c 1
 554 779 l 1
 555 809 550 831 538 846 c 0
 528 860 510 867 486 867 c 0
 462 867 442 860 427 846 c 0
 412 831 400 809 392 779 c 1
 242 779 l 1
 249 818 264 853 290 884 c 0
 314 915 346 939 383 956 c 0
 420 973 461 982 504 982 c 0
 548 982 586 973 618 956 c 0
EndSplineSet
EndChar

StartChar: Omacron
Encoding: 332 332 131
Width: 811
Flags: W
LayerCount: 2
Fore
SplineSet
162 35 m 0
 112 65 77 108 56 164 c 0
 36 221 32 288 45 365 c 0
 57 442 82 509 120 566 c 0
 158 622 207 665 266 695 c 0
 325 725 393 740 468 740 c 0
 543 740 606 725 656 695 c 0
 705 665 740 622 760 566 c 0
 780 509 784 442 772 365 c 0
 760 288 735 221 696 164 c 0
 658 108 610 65 550 35 c 0
 492 5 424 -10 349 -10 c 0
 274 -10 211 5 162 35 c 0
524 196 m 0
 563 234 589 291 600 365 c 0
 612 439 604 496 578 534 c 0
 550 574 506 593 444 593 c 0
 381 593 330 574 292 534 c 0
 252 496 227 439 215 365 c 0
 203 291 210 234 238 196 c 0
 264 156 309 137 372 137 c 0
 434 137 485 156 524 196 c 0
345 936 m 1
 743 936 l 1
 723 814 l 1
 326 814 l 1
 345 936 l 1
EndSplineSet
EndChar

StartChar: uni01EA
Encoding: 490 490 132
Width: 789
Flags: W
LayerCount: 2
Fore
SplineSet
332 -69 m 0
 331 -79 334 -87 342 -92 c 0
 351 -97 364 -100 382 -100 c 0
 415 -100 447 -93 478 -80 c 1
 475 -199 l 1
 438 -212 397 -219 352 -219 c 0
 291 -219 245 -208 214 -186 c 0
 184 -164 172 -133 179 -92 c 0
 184 -58 203 -26 234 4 c 1
 158 25 104 67 71 129 c 0
 38 191 30 270 45 365 c 0
 57 442 82 509 120 566 c 0
 158 622 207 665 266 695 c 0
 325 725 393 740 468 740 c 0
 543 740 606 725 656 695 c 0
 705 665 740 622 760 566 c 0
 780 509 784 442 772 365 c 0
 755 258 713 171 648 106 c 0
 583 41 500 3 400 -7 c 1
 358 -28 335 -49 332 -69 c 0
238 196 m 0
 265 156 309 137 372 137 c 0
 434 137 485 156 524 196 c 0
 563 234 589 291 600 365 c 0
 612 439 604 496 578 534 c 0
 550 574 506 593 444 593 c 0
 381 593 330 574 292 534 c 0
 252 496 227 439 215 365 c 0
 204 291 211 234 238 196 c 0
EndSplineSet
EndChar

StartChar: Oslash
Encoding: 216 216 133
Width: 789
Flags: W
LayerCount: 2
Fore
SplineSet
773 516 m 0
 781 471 781 420 772 365 c 0
 760 288 735 221 696 164 c 0
 658 108 610 65 550 35 c 0
 492 5 424 -10 349 -10 c 0
 284 -10 229 1 184 23 c 1
 119 -49 l 1
 30 29 l 1
 92 98 l 1
 68 130 52 169 44 214 c 0
 36 259 36 310 45 365 c 0
 57 442 82 509 120 566 c 0
 158 622 207 665 266 695 c 0
 325 725 393 740 468 740 c 0
 533 740 588 729 633 707 c 1
 697 779 l 1
 787 701 l 1
 725 632 l 1
 749 600 765 561 773 516 c 0
218 240 m 1
 520 580 l 1
 500 589 475 593 444 593 c 0
 381 593 330 574 292 534 c 0
 252 496 227 439 215 365 c 0
 208 316 209 275 218 240 c 1
524 196 m 0
 563 234 589 291 600 365 c 0
 607 412 607 454 598 489 c 1
 296 150 l 1
 317 141 343 137 372 137 c 0
 434 137 485 156 524 196 c 0
EndSplineSet
EndChar

StartChar: Oslashacute
Encoding: 510 510 134
Width: 811
Flags: W
LayerCount: 2
Fore
SplineSet
773 516 m 0
 781 471 781 420 772 365 c 0
 760 288 735 221 696 164 c 0
 658 108 610 65 550 35 c 0
 492 5 424 -10 349 -10 c 0
 284 -10 229 1 184 23 c 1
 119 -49 l 1
 30 29 l 1
 92 98 l 1
 68 130 52 169 44 214 c 0
 36 259 36 310 45 365 c 0
 57 442 82 509 120 566 c 0
 158 622 207 665 266 695 c 0
 325 725 393 740 468 740 c 0
 533 740 588 729 633 707 c 1
 697 779 l 1
 787 701 l 1
 725 632 l 1
 749 600 765 561 773 516 c 0
218 240 m 1
 520 580 l 1
 500 589 475 593 444 593 c 0
 381 593 330 574 292 534 c 0
 252 496 227 439 215 365 c 0
 208 316 209 275 218 240 c 1
524 196 m 0
 563 234 589 291 600 365 c 0
 607 412 607 454 598 489 c 1
 296 150 l 1
 317 141 343 137 372 137 c 0
 434 137 485 156 524 196 c 0
546 770 m 1
 399 770 l 1
 503 980 l 1
 699 980 l 1
 546 770 l 1
EndSplineSet
EndChar

StartChar: Otilde
Encoding: 213 213 135
Width: 811
Flags: W
LayerCount: 2
Fore
SplineSet
162 35 m 0
 112 65 77 108 56 164 c 0
 36 221 32 288 45 365 c 0
 57 442 82 509 120 566 c 0
 158 622 207 665 266 695 c 0
 325 725 393 740 468 740 c 0
 543 740 606 725 656 695 c 0
 705 665 740 622 760 566 c 0
 780 509 784 442 772 365 c 0
 760 288 735 221 696 164 c 0
 658 108 610 65 550 35 c 0
 492 5 424 -10 349 -10 c 0
 274 -10 211 5 162 35 c 0
524 196 m 0
 563 234 589 291 600 365 c 0
 612 439 604 496 578 534 c 0
 550 574 506 593 444 593 c 0
 381 593 330 574 292 534 c 0
 252 496 227 439 215 365 c 0
 203 291 210 234 238 196 c 0
 264 156 309 137 372 137 c 0
 434 137 485 156 524 196 c 0
463 818 m 0
 440 834 421 842 407 842 c 0
 398 842 391 838 386 829 c 0
 381 820 377 804 373 779 c 1
 244 779 l 1
 255 848 272 898 296 932 c 0
 319 964 350 981 388 981 c 0
 425 981 467 965 516 932 c 0
 539 916 558 908 571 908 c 0
 580 908 588 912 592 921 c 0
 598 930 602 946 605 971 c 1
 735 971 l 1
 724 902 707 852 683 818 c 0
 659 786 628 769 589 769 c 0
 554 769 512 785 463 818 c 0
EndSplineSet
EndChar

StartChar: uni022C
Encoding: 556 556 136
Width: 811
Flags: W
LayerCount: 2
Fore
SplineSet
162 35 m 0
 112 65 77 108 56 164 c 0
 36 221 32 288 45 365 c 0
 57 442 82 509 120 566 c 0
 158 622 207 665 266 695 c 0
 325 725 393 740 468 740 c 0
 543 740 606 725 656 695 c 0
 705 665 740 622 760 566 c 0
 780 509 784 442 772 365 c 0
 760 288 735 221 696 164 c 0
 658 108 610 65 550 35 c 0
 492 5 424 -10 349 -10 c 0
 274 -10 211 5 162 35 c 0
524 196 m 0
 563 234 589 291 600 365 c 0
 612 439 604 496 578 534 c 0
 550 574 506 593 444 593 c 0
 381 593 330 574 292 534 c 0
 252 496 227 439 215 365 c 0
 203 291 210 234 238 196 c 0
 264 156 309 137 372 137 c 0
 434 137 485 156 524 196 c 0
463 818 m 0
 440 834 421 842 407 842 c 0
 398 842 391 838 386 829 c 0
 381 820 377 804 373 779 c 1
 244 779 l 1
 255 848 272 898 296 932 c 0
 319 964 350 981 388 981 c 0
 425 981 467 965 516 932 c 0
 539 916 558 908 571 908 c 0
 580 908 588 912 592 921 c 0
 598 930 602 946 605 971 c 1
 735 971 l 1
 724 902 707 852 683 818 c 0
 659 786 628 769 589 769 c 0
 554 769 512 785 463 818 c 0
385 1187 m 1
 783 1187 l 1
 763 1065 l 1
 366 1065 l 1
 385 1187 l 1
EndSplineSet
EndChar

StartChar: OE
Encoding: 338 338 137
Width: 1015
Flags: W
LayerCount: 2
Fore
SplineSet
709 591 m 1
 686 445 l 1
 969 445 l 1
 947 310 l 1
 664 310 l 1
 637 139 l 1
 940 139 l 1
 918 0 l 1
 448 0 l 1
 418 -7 385 -10 349 -10 c 0
 274 -10 211 5 162 35 c 0
 112 65 77 108 56 164 c 0
 36 221 32 288 45 365 c 0
 57 442 82 509 120 566 c 0
 158 622 207 665 266 695 c 0
 325 725 393 740 468 740 c 0
 505 740 537 737 564 730 c 1
 1033 730 l 1
 1011 591 l 1
 709 591 l 1
474 162 m 1
 538 568 l 1
 515 585 483 593 444 593 c 0
 381 593 330 574 292 534 c 0
 252 496 227 439 215 365 c 0
 203 291 210 234 238 196 c 0
 264 156 309 137 372 137 c 0
 411 137 445 145 474 162 c 1
EndSplineSet
EndChar

StartChar: P
Encoding: 80 80 138
Width: 625
Flags: W
LayerCount: 2
Fore
SplineSet
582 669 m 0
 629 628 645 566 632 482 c 0
 619 401 585 339 529 298 c 0
 473 256 397 235 301 235 c 2
 223 235 l 1
 185 0 l 1
 19 0 l 1
 134 730 l 1
 347 730 l 2
 457 730 535 710 582 669 c 0
414 400 m 0
 440 417 456 445 462 482 c 0
 468 519 460 547 440 564 c 0
 418 581 383 590 333 590 c 2
 279 590 l 1
 245 374 l 1
 298 374 l 2
 349 374 387 383 414 400 c 0
EndSplineSet
EndChar

StartChar: Thorn
Encoding: 222 222 139
Width: 625
Flags: W
LayerCount: 2
Fore
SplineSet
565 562 m 0
 612 521 628 459 615 375 c 0
 602 294 568 232 512 190 c 0
 456 148 380 127 284 127 c 2
 205 127 l 1
 185 0 l 1
 19 0 l 1
 134 730 l 1
 301 730 l 1
 284 623 l 1
 330 623 l 2
 440 623 518 603 565 562 c 0
396 293 m 0
 423 310 439 338 445 375 c 0
 451 412 444 440 422 457 c 0
 402 474 366 483 316 483 c 2
 262 483 l 1
 228 267 l 1
 281 267 l 2
 332 267 370 276 396 293 c 0
EndSplineSet
EndChar

StartChar: Q
Encoding: 81 81 140
Width: 793
Flags: W
LayerCount: 2
Fore
SplineSet
720 -50 m 1
 573 -144 l 1
 549 -95 520 -60 486 -40 c 0
 451 -20 406 -10 349 -10 c 0
 274 -10 211 5 162 35 c 0
 112 65 77 108 56 164 c 0
 36 221 32 288 45 365 c 0
 57 442 82 509 120 566 c 0
 158 622 207 665 266 695 c 0
 325 725 393 740 468 740 c 0
 543 740 606 725 656 695 c 0
 705 665 740 622 760 566 c 0
 780 509 784 442 772 365 c 0
 761 298 740 238 708 188 c 0
 677 136 636 95 587 64 c 1
 646 35 691 -3 720 -50 c 1
524 196 m 0
 564 234 589 291 600 365 c 0
 613 439 606 496 578 534 c 0
 552 574 507 593 444 593 c 0
 382 593 332 574 292 534 c 0
 254 496 228 439 215 365 c 0
 204 291 212 234 238 196 c 0
 266 156 310 137 372 137 c 0
 434 137 485 156 524 196 c 0
EndSplineSet
EndChar

StartChar: R
Encoding: 82 82 141
Width: 654
Flags: W
LayerCount: 2
Fore
SplineSet
231 270 m 1
 228 270 l 1
 185 0 l 1
 19 0 l 1
 134 730 l 1
 350 730 l 2
 459 730 538 711 584 674 c 0
 632 637 649 579 636 502 c 0
 626 441 602 391 564 354 c 0
 527 316 475 291 410 279 c 1
 584 0 l 1
 398 0 l 1
 231 270 l 1
279 590 m 1
 249 400 l 1
 306 400 l 2
 355 400 393 408 418 422 c 0
 443 438 458 461 463 494 c 0
 468 527 461 552 440 567 c 0
 420 582 386 590 337 590 c 2
 279 590 l 1
EndSplineSet
EndChar

StartChar: Racute
Encoding: 340 340 142
Width: 675
Flags: W
LayerCount: 2
Fore
SplineSet
231 270 m 1
 228 270 l 1
 185 0 l 1
 19 0 l 1
 134 730 l 1
 350 730 l 2
 459 730 538 711 584 674 c 0
 632 637 649 579 636 502 c 0
 626 441 602 391 564 354 c 0
 527 316 475 291 410 279 c 1
 584 0 l 1
 398 0 l 1
 231 270 l 1
279 590 m 1
 249 400 l 1
 306 400 l 2
 355 400 393 408 418 422 c 0
 443 438 458 461 463 494 c 0
 468 527 461 552 440 567 c 0
 420 582 386 590 337 590 c 2
 279 590 l 1
464 770 m 1
 317 770 l 1
 421 980 l 1
 617 980 l 1
 464 770 l 1
EndSplineSet
EndChar

StartChar: Rcaron
Encoding: 344 344 143
Width: 675
Flags: W
LayerCount: 2
Fore
SplineSet
231 270 m 1
 228 270 l 1
 185 0 l 1
 19 0 l 1
 134 730 l 1
 350 730 l 2
 459 730 538 711 584 674 c 0
 632 637 649 579 636 502 c 0
 626 441 602 391 564 354 c 0
 527 316 475 291 410 279 c 1
 584 0 l 1
 398 0 l 1
 231 270 l 1
279 590 m 1
 249 400 l 1
 306 400 l 2
 355 400 393 408 418 422 c 0
 443 438 458 461 463 494 c 0
 468 527 461 552 440 567 c 0
 420 582 386 590 337 590 c 2
 279 590 l 1
187 980 m 1
 367 980 l 1
 412 833 l 1
 414 833 l 1
 504 980 l 1
 685 980 l 1
 532 770 l 1
 273 770 l 1
 187 980 l 1
EndSplineSet
EndChar

StartChar: uni0156
Encoding: 342 342 144
Width: 675
Flags: W
LayerCount: 2
Fore
SplineSet
231 270 m 1
 228 270 l 1
 185 0 l 1
 19 0 l 1
 134 730 l 1
 350 730 l 2
 459 730 538 711 584 674 c 0
 632 637 649 579 636 502 c 0
 626 441 602 391 564 354 c 0
 527 316 475 291 410 279 c 1
 584 0 l 1
 398 0 l 1
 231 270 l 1
279 590 m 1
 249 400 l 1
 306 400 l 2
 355 400 393 408 418 422 c 0
 443 438 458 461 463 494 c 0
 468 527 461 552 440 567 c 0
 420 582 386 590 337 590 c 2
 279 590 l 1
196 -250 m 1
 49 -250 l 1
 153 -40 l 1
 349 -40 l 1
 196 -250 l 1
EndSplineSet
EndChar

StartChar: uni0210
Encoding: 528 528 145
Width: 675
Flags: W
LayerCount: 2
Fore
SplineSet
231 270 m 1
 228 270 l 1
 185 0 l 1
 19 0 l 1
 134 730 l 1
 350 730 l 2
 459 730 538 711 584 674 c 0
 632 637 649 579 636 502 c 0
 626 441 602 391 564 354 c 0
 527 316 475 291 410 279 c 1
 584 0 l 1
 398 0 l 1
 231 270 l 1
279 590 m 1
 249 400 l 1
 306 400 l 2
 355 400 393 408 418 422 c 0
 443 438 458 461 463 494 c 0
 468 527 461 552 440 567 c 0
 420 582 386 590 337 590 c 2
 279 590 l 1
113 980 m 1
 309 980 l 1
 347 770 l 1
 200 770 l 1
 113 980 l 1
363 980 m 1
 559 980 l 1
 597 770 l 1
 450 770 l 1
 363 980 l 1
EndSplineSet
EndChar

StartChar: uni0212
Encoding: 530 530 146
Width: 675
Flags: W
LayerCount: 2
Fore
SplineSet
231 270 m 1
 228 270 l 1
 185 0 l 1
 19 0 l 1
 134 730 l 1
 350 730 l 2
 459 730 538 711 584 674 c 0
 632 637 649 579 636 502 c 0
 626 441 602 391 564 354 c 0
 527 316 475 291 410 279 c 1
 584 0 l 1
 398 0 l 1
 231 270 l 1
279 590 m 1
 249 400 l 1
 306 400 l 2
 355 400 393 408 418 422 c 0
 443 438 458 461 463 494 c 0
 468 527 461 552 440 567 c 0
 420 582 386 590 337 590 c 2
 279 590 l 1
536 956 m 0
 568 939 592 915 606 884 c 0
 622 853 626 818 621 779 c 1
 472 779 l 1
 473 809 468 831 456 846 c 0
 446 860 428 867 404 867 c 0
 380 867 360 860 345 846 c 0
 330 831 318 809 310 779 c 1
 160 779 l 1
 167 818 182 853 208 884 c 0
 232 915 264 939 301 956 c 0
 338 973 379 982 422 982 c 0
 466 982 504 973 536 956 c 0
EndSplineSet
EndChar

StartChar: S
Encoding: 83 83 147
Width: 612
Flags: W
LayerCount: 2
Fore
SplineSet
108 6 m 0
 66 17 31 32 3 53 c 1
 76 190 l 1
 105 172 136 158 170 148 c 0
 204 138 237 133 269 133 c 0
 303 133 330 139 350 152 c 0
 370 164 382 182 385 206 c 0
 388 227 384 243 370 254 c 0
 358 265 333 277 298 290 c 0
 241 311 195 332 162 354 c 0
 129 375 106 400 93 428 c 0
 80 457 77 491 83 531 c 0
 94 598 125 650 178 686 c 0
 231 722 301 740 390 740 c 0
 433 740 476 736 517 727 c 0
 558 718 593 707 620 692 c 1
 547 555 l 1
 522 568 494 579 464 586 c 0
 433 593 404 597 375 597 c 0
 340 597 312 591 292 580 c 0
 272 568 260 551 257 529 c 0
 254 510 260 495 274 484 c 0
 287 473 312 460 348 447 c 0
 405 426 449 404 482 382 c 0
 515 360 537 335 550 307 c 0
 563 279 566 245 560 206 c 0
 550 137 518 84 463 46 c 0
 408 9 336 -10 246 -10 c 0
 195 -10 149 -5 108 6 c 0
EndSplineSet
EndChar

StartChar: Sacute
Encoding: 346 346 148
Width: 631
Flags: W
LayerCount: 2
Fore
SplineSet
108 6 m 0
 66 17 31 32 3 53 c 1
 76 190 l 1
 105 172 136 158 170 148 c 0
 204 138 237 133 269 133 c 0
 303 133 330 139 350 152 c 0
 370 164 382 182 385 206 c 0
 388 227 384 243 370 254 c 0
 358 265 333 277 298 290 c 0
 241 311 195 332 162 354 c 0
 129 375 106 400 93 428 c 0
 80 457 77 491 83 531 c 0
 94 598 125 650 178 686 c 0
 231 722 301 740 390 740 c 0
 433 740 476 736 517 727 c 0
 558 718 593 707 620 692 c 1
 547 555 l 1
 522 568 494 579 464 586 c 0
 433 593 404 597 375 597 c 0
 340 597 312 591 292 580 c 0
 272 568 260 551 257 529 c 0
 254 510 260 495 274 484 c 0
 287 473 312 460 348 447 c 0
 405 426 449 404 482 382 c 0
 515 360 537 335 550 307 c 0
 563 279 566 245 560 206 c 0
 550 137 518 84 463 46 c 0
 408 9 336 -10 246 -10 c 0
 195 -10 149 -5 108 6 c 0
455 770 m 1
 308 770 l 1
 412 980 l 1
 608 980 l 1
 455 770 l 1
EndSplineSet
EndChar

StartChar: Scaron
Encoding: 352 352 149
Width: 631
Flags: W
LayerCount: 2
Fore
SplineSet
108 6 m 0
 66 17 31 32 3 53 c 1
 76 190 l 1
 105 172 136 158 170 148 c 0
 204 138 237 133 269 133 c 0
 303 133 330 139 350 152 c 0
 370 164 382 182 385 206 c 0
 388 227 384 243 370 254 c 0
 358 265 333 277 298 290 c 0
 241 311 195 332 162 354 c 0
 129 375 106 400 93 428 c 0
 80 457 77 491 83 531 c 0
 94 598 125 650 178 686 c 0
 231 722 301 740 390 740 c 0
 433 740 476 736 517 727 c 0
 558 718 593 707 620 692 c 1
 547 555 l 1
 522 568 494 579 464 586 c 0
 433 593 404 597 375 597 c 0
 340 597 312 591 292 580 c 0
 272 568 260 551 257 529 c 0
 254 510 260 495 274 484 c 0
 287 473 312 460 348 447 c 0
 405 426 449 404 482 382 c 0
 515 360 537 335 550 307 c 0
 563 279 566 245 560 206 c 0
 550 137 518 84 463 46 c 0
 408 9 336 -10 246 -10 c 0
 195 -10 149 -5 108 6 c 0
178 980 m 1
 358 980 l 1
 403 833 l 1
 405 833 l 1
 495 980 l 1
 676 980 l 1
 523 770 l 1
 264 770 l 1
 178 980 l 1
EndSplineSet
EndChar

StartChar: Scedilla
Encoding: 350 350 150
Width: 612
Flags: W
LayerCount: 2
Fore
SplineSet
502 80 m 0
 472 47 430 22 378 7 c 1
 401 -26 410 -59 405 -92 c 0
 398 -133 376 -164 340 -186 c 0
 302 -208 253 -219 192 -219 c 0
 147 -219 108 -212 75 -199 c 1
 110 -80 l 1
 137 -93 167 -100 200 -100 c 0
 217 -100 231 -97 242 -92 c 0
 252 -87 258 -79 260 -69 c 0
 263 -49 248 -29 213 -9 c 1
 125 -5 55 16 3 53 c 1
 76 190 l 1
 105 172 136 158 170 148 c 0
 204 138 237 133 269 133 c 0
 303 133 330 139 350 152 c 0
 370 164 382 182 385 206 c 0
 388 227 384 243 370 254 c 0
 358 265 333 277 298 290 c 0
 241 311 195 332 162 354 c 0
 129 375 106 400 93 428 c 0
 80 457 77 491 83 531 c 0
 94 598 125 650 178 686 c 0
 231 722 301 740 390 740 c 0
 433 740 476 736 517 727 c 0
 558 718 593 707 620 692 c 1
 547 555 l 1
 522 568 494 579 464 586 c 0
 433 593 404 597 375 597 c 0
 340 597 312 591 292 580 c 0
 272 568 260 551 257 529 c 0
 254 510 260 495 274 484 c 0
 287 473 312 460 348 447 c 0
 405 426 449 404 482 382 c 0
 515 360 537 335 550 307 c 0
 563 279 566 245 560 206 c 0
 553 156 534 114 502 80 c 0
EndSplineSet
EndChar

StartChar: Scircumflex
Encoding: 348 348 151
Width: 631
Flags: W
LayerCount: 2
Fore
SplineSet
108 6 m 0
 66 17 31 32 3 53 c 1
 76 190 l 1
 105 172 136 158 170 148 c 0
 204 138 237 133 269 133 c 0
 303 133 330 139 350 152 c 0
 370 164 382 182 385 206 c 0
 388 227 384 243 370 254 c 0
 358 265 333 277 298 290 c 0
 241 311 195 332 162 354 c 0
 129 375 106 400 93 428 c 0
 80 457 77 491 83 531 c 0
 94 598 125 650 178 686 c 0
 231 722 301 740 390 740 c 0
 433 740 476 736 517 727 c 0
 558 718 593 707 620 692 c 1
 547 555 l 1
 522 568 494 579 464 586 c 0
 433 593 404 597 375 597 c 0
 340 597 312 591 292 580 c 0
 272 568 260 551 257 529 c 0
 254 510 260 495 274 484 c 0
 287 473 312 460 348 447 c 0
 405 426 449 404 482 382 c 0
 515 360 537 335 550 307 c 0
 563 279 566 245 560 206 c 0
 550 137 518 84 463 46 c 0
 408 9 336 -10 246 -10 c 0
 195 -10 149 -5 108 6 c 0
297 980 m 1
 556 980 l 1
 643 770 l 1
 462 770 l 1
 418 917 l 1
 416 917 l 1
 325 770 l 1
 145 770 l 1
 297 980 l 1
EndSplineSet
EndChar

StartChar: uni0218
Encoding: 536 536 152
Width: 631
Flags: W
LayerCount: 2
Fore
SplineSet
108 6 m 0
 66 17 31 32 3 53 c 1
 76 190 l 1
 105 172 136 158 170 148 c 0
 204 138 237 133 269 133 c 0
 303 133 330 139 350 152 c 0
 370 164 382 182 385 206 c 0
 388 227 384 243 370 254 c 0
 358 265 333 277 298 290 c 0
 241 311 195 332 162 354 c 0
 129 375 106 400 93 428 c 0
 80 457 77 491 83 531 c 0
 94 598 125 650 178 686 c 0
 231 722 301 740 390 740 c 0
 433 740 476 736 517 727 c 0
 558 718 593 707 620 692 c 1
 547 555 l 1
 522 568 494 579 464 586 c 0
 433 593 404 597 375 597 c 0
 340 597 312 591 292 580 c 0
 272 568 260 551 257 529 c 0
 254 510 260 495 274 484 c 0
 287 473 312 460 348 447 c 0
 405 426 449 404 482 382 c 0
 515 360 537 335 550 307 c 0
 563 279 566 245 560 206 c 0
 550 137 518 84 463 46 c 0
 408 9 336 -10 246 -10 c 0
 195 -10 149 -5 108 6 c 0
187 -250 m 1
 40 -250 l 1
 144 -40 l 1
 340 -40 l 1
 187 -250 l 1
EndSplineSet
EndChar

StartChar: uni1E9E
Encoding: 7838 7838 153
Width: 684
Flags: W
LayerCount: 2
Fore
SplineSet
249 14 m 1
 293 156 l 1
 322 143 351 137 378 137 c 0
 408 137 432 143 450 156 c 0
 467 169 478 187 482 212 c 0
 486 239 478 259 459 270 c 0
 440 281 403 287 350 287 c 2
 346 287 l 1
 364 400 l 1
 471 520 l 1
 475 545 470 564 456 576 c 0
 441 587 417 593 383 593 c 0
 346 593 318 586 300 572 c 0
 281 557 270 534 265 501 c 2
 185 0 l 1
 19 0 l 1
 98 501 l 2
 111 581 142 641 194 680 c 0
 244 720 315 740 406 740 c 0
 583 740 660 664 636 511 c 1
 525 393 l 1
 525 391 l 1
 575 383 610 363 632 332 c 0
 652 300 659 258 651 205 c 0
 640 136 612 82 564 46 c 0
 518 8 456 -10 380 -10 c 0
 331 -10 288 -2 249 14 c 1
EndSplineSet
EndChar

StartChar: uni018F
Encoding: 399 399 154
Width: 741
Flags: W
LayerCount: 2
Fore
SplineSet
664 643 m 0
 722 578 741 486 722 365 c 0
 710 288 686 221 649 164 c 0
 612 108 566 65 509 35 c 0
 452 5 389 -10 318 -10 c 0
 248 -10 190 4 144 33 c 0
 99 62 67 103 50 158 c 0
 32 212 29 277 41 353 c 0
 48 397 53 425 58 436 c 1
 567 436 l 1
 572 491 560 530 530 556 c 0
 499 580 448 593 375 593 c 0
 300 593 224 580 149 555 c 1
 142 697 l 1
 176 710 215 721 258 728 c 0
 302 736 345 740 387 740 c 0
 514 740 607 708 664 643 c 0
472 176 m 0
 504 203 527 243 542 298 c 1
 202 298 l 1
 199 243 210 203 233 176 c 0
 256 150 294 137 346 137 c 0
 397 137 439 150 472 176 c 0
EndSplineSet
EndChar

StartChar: T
Encoding: 84 84 155
Width: 627
Flags: W
LayerCount: 2
Fore
SplineSet
276 583 m 1
 72 583 l 1
 95 730 l 1
 674 730 l 1
 651 583 l 1
 446 583 l 1
 354 0 l 1
 183 0 l 1
 276 583 l 1
EndSplineSet
EndChar

StartChar: Tbar
Encoding: 358 358 156
Width: 676
Flags: W
LayerCount: 2
Fore
SplineSet
675 583 m 1
 471 583 l 1
 438 377 l 1
 592 377 l 1
 573 253 l 1
 419 253 l 1
 379 0 l 1
 208 0 l 1
 248 253 l 1
 95 253 l 1
 115 377 l 1
 268 377 l 1
 300 583 l 1
 96 583 l 1
 119 730 l 1
 698 730 l 1
 675 583 l 1
EndSplineSet
EndChar

StartChar: Tcaron
Encoding: 356 356 157
Width: 644
Flags: W
LayerCount: 2
Fore
SplineSet
276 583 m 1
 72 583 l 1
 95 730 l 1
 674 730 l 1
 651 583 l 1
 446 583 l 1
 354 0 l 1
 183 0 l 1
 276 583 l 1
187 980 m 1
 367 980 l 1
 412 833 l 1
 414 833 l 1
 504 980 l 1
 685 980 l 1
 532 770 l 1
 273 770 l 1
 187 980 l 1
EndSplineSet
EndChar

StartChar: uni0162
Encoding: 354 354 158
Width: 627
Flags: W
LayerCount: 2
Fore
SplineSet
446 583 m 1
 357 19 l 1
 386 -17 398 -54 392 -92 c 0
 385 -133 364 -164 326 -186 c 0
 290 -208 240 -219 179 -219 c 0
 134 -219 95 -212 63 -199 c 1
 97 -80 l 1
 124 -93 154 -100 187 -100 c 0
 205 -100 219 -97 230 -92 c 0
 241 -87 247 -79 248 -69 c 0
 251 -46 230 -23 183 0 c 1
 276 583 l 1
 72 583 l 1
 95 730 l 1
 674 730 l 1
 651 583 l 1
 446 583 l 1
EndSplineSet
EndChar

StartChar: uni021A
Encoding: 538 538 159
Width: 644
Flags: W
LayerCount: 2
Fore
SplineSet
276 583 m 1
 72 583 l 1
 95 730 l 1
 674 730 l 1
 651 583 l 1
 446 583 l 1
 354 0 l 1
 183 0 l 1
 276 583 l 1
196 -250 m 1
 49 -250 l 1
 153 -40 l 1
 349 -40 l 1
 196 -250 l 1
EndSplineSet
EndChar

StartChar: U
Encoding: 85 85 160
Width: 689
Flags: W
LayerCount: 2
Fore
SplineSet
96 62 m 0
 55 110 41 179 55 270 c 2
 128 730 l 1
 295 730 l 1
 225 291 l 2
 216 235 219 195 234 172 c 0
 249 149 278 137 322 137 c 0
 366 137 399 149 421 172 c 0
 443 195 458 235 467 291 c 2
 537 730 l 1
 703 730 l 1
 630 270 l 2
 615 179 580 109 524 62 c 0
 467 14 392 -10 299 -10 c 0
 206 -10 138 14 96 62 c 0
EndSplineSet
EndChar

StartChar: Uacute
Encoding: 218 218 161
Width: 713
Flags: W
LayerCount: 2
Fore
SplineSet
96 62 m 0
 55 110 41 179 55 270 c 2
 128 730 l 1
 295 730 l 1
 225 291 l 2
 216 235 219 195 234 172 c 0
 249 149 278 137 322 137 c 0
 366 137 399 149 421 172 c 0
 443 195 458 235 467 291 c 2
 537 730 l 1
 703 730 l 1
 630 270 l 2
 615 179 580 109 524 62 c 0
 467 14 392 -10 299 -10 c 0
 206 -10 138 14 96 62 c 0
497 770 m 1
 350 770 l 1
 454 980 l 1
 650 980 l 1
 497 770 l 1
EndSplineSet
EndChar

StartChar: Ubreve
Encoding: 364 364 162
Width: 713
Flags: W
LayerCount: 2
Fore
SplineSet
96 62 m 0
 55 110 41 179 55 270 c 2
 128 730 l 1
 295 730 l 1
 225 291 l 2
 216 235 219 195 234 172 c 0
 249 149 278 137 322 137 c 0
 366 137 399 149 421 172 c 0
 443 195 458 235 467 291 c 2
 537 730 l 1
 703 730 l 1
 630 270 l 2
 615 179 580 109 524 62 c 0
 467 14 392 -10 299 -10 c 0
 206 -10 138 14 96 62 c 0
318 794 m 0
 286 811 262 835 248 866 c 0
 232 897 228 932 233 971 c 1
 383 971 l 1
 382 941 386 919 397 904 c 0
 408 890 425 883 450 883 c 0
 474 883 494 890 509 904 c 0
 524 919 536 941 545 971 c 1
 694 971 l 1
 687 932 672 897 646 866 c 0
 622 835 590 811 553 794 c 0
 516 777 475 768 432 768 c 0
 388 768 350 777 318 794 c 0
EndSplineSet
EndChar

StartChar: Ucircumflex
Encoding: 219 219 163
Width: 713
Flags: W
LayerCount: 2
Fore
SplineSet
96 62 m 0
 55 110 41 179 55 270 c 2
 128 730 l 1
 295 730 l 1
 225 291 l 2
 216 235 219 195 234 172 c 0
 249 149 278 137 322 137 c 0
 366 137 399 149 421 172 c 0
 443 195 458 235 467 291 c 2
 537 730 l 1
 703 730 l 1
 630 270 l 2
 615 179 580 109 524 62 c 0
 467 14 392 -10 299 -10 c 0
 206 -10 138 14 96 62 c 0
340 980 m 1
 599 980 l 1
 686 770 l 1
 505 770 l 1
 461 917 l 1
 459 917 l 1
 368 770 l 1
 188 770 l 1
 340 980 l 1
EndSplineSet
EndChar

StartChar: uni0214
Encoding: 532 532 164
Width: 713
Flags: W
LayerCount: 2
Fore
SplineSet
96 62 m 0
 55 110 41 179 55 270 c 2
 128 730 l 1
 295 730 l 1
 225 291 l 2
 216 235 219 195 234 172 c 0
 249 149 278 137 322 137 c 0
 366 137 399 149 421 172 c 0
 443 195 458 235 467 291 c 2
 537 730 l 1
 703 730 l 1
 630 270 l 2
 615 179 580 109 524 62 c 0
 467 14 392 -10 299 -10 c 0
 206 -10 138 14 96 62 c 0
146 980 m 1
 342 980 l 1
 380 770 l 1
 233 770 l 1
 146 980 l 1
396 980 m 1
 592 980 l 1
 630 770 l 1
 483 770 l 1
 396 980 l 1
EndSplineSet
EndChar

StartChar: Udieresis
Encoding: 220 220 165
Width: 713
Flags: W
LayerCount: 2
Fore
SplineSet
96 62 m 0
 55 110 41 179 55 270 c 2
 128 730 l 1
 295 730 l 1
 225 291 l 2
 216 235 219 195 234 172 c 0
 249 149 278 137 322 137 c 0
 366 137 399 149 421 172 c 0
 443 195 458 235 467 291 c 2
 537 730 l 1
 703 730 l 1
 630 270 l 2
 615 179 580 109 524 62 c 0
 467 14 392 -10 299 -10 c 0
 206 -10 138 14 96 62 c 0
248 959 m 1
 413 959 l 1
 386 791 l 1
 221 791 l 1
 248 959 l 1
507 959 m 1
 672 959 l 1
 646 791 l 1
 480 791 l 1
 507 959 l 1
EndSplineSet
EndChar

StartChar: uni1EE4
Encoding: 7908 7908 166
Width: 713
Flags: W
LayerCount: 2
Fore
SplineSet
96 62 m 0
 55 110 41 179 55 270 c 2
 128 730 l 1
 295 730 l 1
 225 291 l 2
 216 235 219 195 234 172 c 0
 249 149 278 137 322 137 c 0
 366 137 399 149 421 172 c 0
 443 195 458 235 467 291 c 2
 537 730 l 1
 703 730 l 1
 630 270 l 2
 615 179 580 109 524 62 c 0
 467 14 392 -10 299 -10 c 0
 206 -10 138 14 96 62 c 0
236 -61 m 1
 401 -61 l 1
 374 -229 l 1
 210 -229 l 1
 236 -61 l 1
EndSplineSet
EndChar

StartChar: Ugrave
Encoding: 217 217 167
Width: 713
Flags: W
LayerCount: 2
Fore
SplineSet
96 62 m 0
 55 110 41 179 55 270 c 2
 128 730 l 1
 295 730 l 1
 225 291 l 2
 216 235 219 195 234 172 c 0
 249 149 278 137 322 137 c 0
 366 137 399 149 421 172 c 0
 443 195 458 235 467 291 c 2
 537 730 l 1
 703 730 l 1
 630 270 l 2
 615 179 580 109 524 62 c 0
 467 14 392 -10 299 -10 c 0
 206 -10 138 14 96 62 c 0
282 980 m 1
 478 980 l 1
 516 770 l 1
 369 770 l 1
 282 980 l 1
EndSplineSet
EndChar

StartChar: uni1EE6
Encoding: 7910 7910 168
Width: 713
Flags: W
LayerCount: 2
Fore
SplineSet
96 62 m 0
 55 110 41 179 55 270 c 2
 128 730 l 1
 295 730 l 1
 225 291 l 2
 216 235 219 195 234 172 c 0
 249 149 278 137 322 137 c 0
 366 137 399 149 421 172 c 0
 443 195 458 235 467 291 c 2
 537 730 l 1
 703 730 l 1
 630 270 l 2
 615 179 580 109 524 62 c 0
 467 14 392 -10 299 -10 c 0
 206 -10 138 14 96 62 c 0
503 840 m 0
 505 853 503 861 496 866 c 0
 489 870 476 872 457 872 c 0
 411 872 362 864 311 849 c 1
 317 968 l 1
 345 974 375 979 408 982 c 0
 441 986 471 988 500 988 c 0
 547 988 583 985 608 980 c 0
 632 975 648 966 658 952 c 0
 666 940 669 921 665 897 c 0
 662 879 657 859 649 836 c 0
 641 814 632 795 623 778 c 1
 482 778 l 1
 493 800 500 821 503 840 c 0
EndSplineSet
EndChar

StartChar: Uhorn
Encoding: 431 431 169
Width: 832
Flags: W
LayerCount: 2
Fore
SplineSet
917 705 m 0
 908 650 889 608 860 579 c 0
 830 550 792 535 746 535 c 0
 722 535 698 539 674 548 c 1
 630 270 l 2
 615 179 580 109 524 62 c 0
 467 14 392 -10 299 -10 c 0
 206 -10 138 14 96 62 c 0
 55 110 41 179 55 270 c 2
 128 730 l 1
 295 730 l 1
 225 291 l 2
 216 235 219 195 234 172 c 0
 249 149 278 137 322 137 c 0
 366 137 399 149 421 172 c 0
 443 195 458 235 467 291 c 2
 537 730 l 1
 703 730 l 1
 693 666 l 1
 698 664 704 663 710 663 c 0
 725 663 738 668 748 678 c 0
 758 689 765 703 768 722 c 0
 770 737 770 756 769 779 c 0
 768 802 765 822 762 837 c 1
 917 837 l 1
 924 794 924 750 917 705 c 0
EndSplineSet
EndChar

StartChar: uni1EE8
Encoding: 7912 7912 170
Width: 853
Flags: W
LayerCount: 2
Fore
SplineSet
917 705 m 0
 908 650 889 608 860 579 c 0
 830 550 792 535 746 535 c 0
 722 535 698 539 674 548 c 1
 630 270 l 2
 615 179 580 109 524 62 c 0
 467 14 392 -10 299 -10 c 0
 206 -10 138 14 96 62 c 0
 55 110 41 179 55 270 c 2
 128 730 l 1
 295 730 l 1
 225 291 l 2
 216 235 219 195 234 172 c 0
 249 149 278 137 322 137 c 0
 366 137 399 149 421 172 c 0
 443 195 458 235 467 291 c 2
 537 730 l 1
 703 730 l 1
 693 666 l 1
 698 664 704 663 710 663 c 0
 725 663 738 668 748 678 c 0
 758 689 765 703 768 722 c 0
 770 737 770 756 769 779 c 0
 768 802 765 822 762 837 c 1
 917 837 l 1
 924 794 924 750 917 705 c 0
497 770 m 1
 350 770 l 1
 454 980 l 1
 650 980 l 1
 497 770 l 1
EndSplineSet
EndChar

StartChar: uni1EF0
Encoding: 7920 7920 171
Width: 853
Flags: W
LayerCount: 2
Fore
SplineSet
917 705 m 0
 908 650 889 608 860 579 c 0
 830 550 792 535 746 535 c 0
 722 535 698 539 674 548 c 1
 630 270 l 2
 615 179 580 109 524 62 c 0
 467 14 392 -10 299 -10 c 0
 206 -10 138 14 96 62 c 0
 55 110 41 179 55 270 c 2
 128 730 l 1
 295 730 l 1
 225 291 l 2
 216 235 219 195 234 172 c 0
 249 149 278 137 322 137 c 0
 366 137 399 149 421 172 c 0
 443 195 458 235 467 291 c 2
 537 730 l 1
 703 730 l 1
 693 666 l 1
 698 664 704 663 710 663 c 0
 725 663 738 668 748 678 c 0
 758 689 765 703 768 722 c 0
 770 737 770 756 769 779 c 0
 768 802 765 822 762 837 c 1
 917 837 l 1
 924 794 924 750 917 705 c 0
236 -61 m 1
 401 -61 l 1
 374 -229 l 1
 210 -229 l 1
 236 -61 l 1
EndSplineSet
EndChar

StartChar: uni1EEA
Encoding: 7914 7914 172
Width: 853
Flags: W
LayerCount: 2
Fore
SplineSet
917 705 m 0
 908 650 889 608 860 579 c 0
 830 550 792 535 746 535 c 0
 722 535 698 539 674 548 c 1
 630 270 l 2
 615 179 580 109 524 62 c 0
 467 14 392 -10 299 -10 c 0
 206 -10 138 14 96 62 c 0
 55 110 41 179 55 270 c 2
 128 730 l 1
 295 730 l 1
 225 291 l 2
 216 235 219 195 234 172 c 0
 249 149 278 137 322 137 c 0
 366 137 399 149 421 172 c 0
 443 195 458 235 467 291 c 2
 537 730 l 1
 703 730 l 1
 693 666 l 1
 698 664 704 663 710 663 c 0
 725 663 738 668 748 678 c 0
 758 689 765 703 768 722 c 0
 770 737 770 756 769 779 c 0
 768 802 765 822 762 837 c 1
 917 837 l 1
 924 794 924 750 917 705 c 0
282 980 m 1
 478 980 l 1
 516 770 l 1
 369 770 l 1
 282 980 l 1
EndSplineSet
EndChar

StartChar: uni1EEC
Encoding: 7916 7916 173
Width: 853
Flags: W
LayerCount: 2
Fore
SplineSet
917 705 m 0
 908 650 889 608 860 579 c 0
 830 550 792 535 746 535 c 0
 722 535 698 539 674 548 c 1
 630 270 l 2
 615 179 580 109 524 62 c 0
 467 14 392 -10 299 -10 c 0
 206 -10 138 14 96 62 c 0
 55 110 41 179 55 270 c 2
 128 730 l 1
 295 730 l 1
 225 291 l 2
 216 235 219 195 234 172 c 0
 249 149 278 137 322 137 c 0
 366 137 399 149 421 172 c 0
 443 195 458 235 467 291 c 2
 537 730 l 1
 703 730 l 1
 693 666 l 1
 698 664 704 663 710 663 c 0
 725 663 738 668 748 678 c 0
 758 689 765 703 768 722 c 0
 770 737 770 756 769 779 c 0
 768 802 765 822 762 837 c 1
 917 837 l 1
 924 794 924 750 917 705 c 0
503 840 m 0
 505 853 503 861 496 866 c 0
 489 870 476 872 457 872 c 0
 411 872 362 864 311 849 c 1
 317 968 l 1
 345 974 375 979 408 982 c 0
 441 986 471 988 500 988 c 0
 547 988 583 985 608 980 c 0
 632 975 648 966 658 952 c 0
 666 940 669 921 665 897 c 0
 662 879 657 859 649 836 c 0
 641 814 632 795 623 778 c 1
 482 778 l 1
 493 800 500 821 503 840 c 0
EndSplineSet
EndChar

StartChar: uni1EEE
Encoding: 7918 7918 174
Width: 853
Flags: W
LayerCount: 2
Fore
SplineSet
917 705 m 0
 908 650 889 608 860 579 c 0
 830 550 792 535 746 535 c 0
 722 535 698 539 674 548 c 1
 630 270 l 2
 615 179 580 109 524 62 c 0
 467 14 392 -10 299 -10 c 0
 206 -10 138 14 96 62 c 0
 55 110 41 179 55 270 c 2
 128 730 l 1
 295 730 l 1
 225 291 l 2
 216 235 219 195 234 172 c 0
 249 149 278 137 322 137 c 0
 366 137 399 149 421 172 c 0
 443 195 458 235 467 291 c 2
 537 730 l 1
 703 730 l 1
 693 666 l 1
 698 664 704 663 710 663 c 0
 725 663 738 668 748 678 c 0
 758 689 765 703 768 722 c 0
 770 737 770 756 769 779 c 0
 768 802 765 822 762 837 c 1
 917 837 l 1
 924 794 924 750 917 705 c 0
414 818 m 0
 391 834 372 842 358 842 c 0
 349 842 342 838 337 829 c 0
 332 820 328 804 324 779 c 1
 195 779 l 1
 206 848 223 898 246 932 c 0
 270 964 301 981 339 981 c 0
 376 981 418 965 467 932 c 0
 490 916 509 908 522 908 c 0
 531 908 538 912 544 921 c 0
 548 930 553 946 556 971 c 1
 686 971 l 1
 675 902 658 852 634 818 c 0
 610 786 579 769 540 769 c 0
 505 769 463 785 414 818 c 0
EndSplineSet
EndChar

StartChar: Uhungarumlaut
Encoding: 368 368 175
Width: 713
Flags: W
LayerCount: 2
Fore
SplineSet
96 62 m 0
 55 110 41 179 55 270 c 2
 128 730 l 1
 295 730 l 1
 225 291 l 2
 216 235 219 195 234 172 c 0
 249 149 278 137 322 137 c 0
 366 137 399 149 421 172 c 0
 443 195 458 235 467 291 c 2
 537 730 l 1
 703 730 l 1
 630 270 l 2
 615 179 580 109 524 62 c 0
 467 14 392 -10 299 -10 c 0
 206 -10 138 14 96 62 c 0
374 770 m 1
 227 770 l 1
 331 980 l 1
 527 980 l 1
 374 770 l 1
629 770 m 1
 482 770 l 1
 586 980 l 1
 782 980 l 1
 629 770 l 1
EndSplineSet
EndChar

StartChar: uni0216
Encoding: 534 534 176
Width: 713
Flags: W
LayerCount: 2
Fore
SplineSet
96 62 m 0
 55 110 41 179 55 270 c 2
 128 730 l 1
 295 730 l 1
 225 291 l 2
 216 235 219 195 234 172 c 0
 249 149 278 137 322 137 c 0
 366 137 399 149 421 172 c 0
 443 195 458 235 467 291 c 2
 537 730 l 1
 703 730 l 1
 630 270 l 2
 615 179 580 109 524 62 c 0
 467 14 392 -10 299 -10 c 0
 206 -10 138 14 96 62 c 0
569 956 m 0
 601 939 624 915 640 884 c 0
 654 853 659 818 654 779 c 1
 505 779 l 1
 506 809 500 831 490 846 c 0
 478 860 461 867 437 867 c 0
 413 867 393 860 378 846 c 0
 363 831 351 809 343 779 c 1
 193 779 l 1
 200 818 216 853 240 884 c 0
 266 915 297 939 334 956 c 0
 371 973 412 982 455 982 c 0
 499 982 537 973 569 956 c 0
EndSplineSet
EndChar

StartChar: Umacron
Encoding: 362 362 177
Width: 713
Flags: W
LayerCount: 2
Fore
SplineSet
96 62 m 0
 55 110 41 179 55 270 c 2
 128 730 l 1
 295 730 l 1
 225 291 l 2
 216 235 219 195 234 172 c 0
 249 149 278 137 322 137 c 0
 366 137 399 149 421 172 c 0
 443 195 458 235 467 291 c 2
 537 730 l 1
 703 730 l 1
 630 270 l 2
 615 179 580 109 524 62 c 0
 467 14 392 -10 299 -10 c 0
 206 -10 138 14 96 62 c 0
296 936 m 1
 694 936 l 1
 674 814 l 1
 277 814 l 1
 296 936 l 1
EndSplineSet
EndChar

StartChar: Uogonek
Encoding: 370 370 178
Width: 689
Flags: W
LayerCount: 2
Fore
SplineSet
703 730 m 1
 630 270 l 2
 619 202 597 146 562 102 c 0
 527 57 481 26 424 8 c 1
 374 -15 347 -37 344 -59 c 0
 343 -69 346 -77 355 -82 c 0
 364 -87 377 -90 394 -90 c 0
 427 -90 459 -83 490 -70 c 1
 487 -189 l 1
 450 -202 409 -209 364 -209 c 0
 303 -209 257 -198 227 -176 c 0
 197 -154 185 -123 191 -82 c 0
 195 -55 208 -29 229 -5 c 1
 160 6 110 35 80 82 c 0
 51 129 42 191 55 270 c 2
 128 730 l 1
 295 730 l 1
 225 291 l 2
 216 235 219 195 234 172 c 0
 249 149 278 137 322 137 c 0
 366 137 399 149 421 172 c 0
 443 195 458 235 467 291 c 2
 537 730 l 1
 703 730 l 1
EndSplineSet
EndChar

StartChar: Uring
Encoding: 366 366 179
Width: 713
Flags: W
LayerCount: 2
Fore
SplineSet
96 62 m 0
 55 110 41 179 55 270 c 2
 128 730 l 1
 295 730 l 1
 225 291 l 2
 216 235 219 195 234 172 c 0
 249 149 278 137 322 137 c 0
 366 137 399 149 421 172 c 0
 443 195 458 235 467 291 c 2
 537 730 l 1
 703 730 l 1
 630 270 l 2
 615 179 580 109 524 62 c 0
 467 14 392 -10 299 -10 c 0
 206 -10 138 14 96 62 c 0
325 734 m 0
 303 749 287 768 276 794 c 0
 266 818 263 846 268 875 c 0
 273 904 284 932 302 956 c 0
 321 982 343 1001 370 1016 c 0
 397 1031 425 1038 454 1038 c 0
 483 1038 508 1031 530 1016 c 0
 553 1001 569 982 580 956 c 0
 590 932 593 904 588 875 c 0
 583 846 572 818 554 794 c 0
 535 768 513 749 486 734 c 0
 459 719 432 712 403 712 c 0
 373 712 347 719 325 734 c 0
463 832 m 0
 476 844 484 858 487 875 c 0
 490 892 486 906 476 918 c 0
 467 929 454 935 438 935 c 0
 421 935 406 929 394 918 c 0
 380 907 373 892 370 875 c 0
 367 858 370 844 380 832 c 0
 388 821 402 815 419 815 c 0
 435 815 450 821 463 832 c 0
EndSplineSet
EndChar

StartChar: Utilde
Encoding: 360 360 180
Width: 713
Flags: W
LayerCount: 2
Fore
SplineSet
96 62 m 0
 55 110 41 179 55 270 c 2
 128 730 l 1
 295 730 l 1
 225 291 l 2
 216 235 219 195 234 172 c 0
 249 149 278 137 322 137 c 0
 366 137 399 149 421 172 c 0
 443 195 458 235 467 291 c 2
 537 730 l 1
 703 730 l 1
 630 270 l 2
 615 179 580 109 524 62 c 0
 467 14 392 -10 299 -10 c 0
 206 -10 138 14 96 62 c 0
414 818 m 0
 391 834 372 842 358 842 c 0
 349 842 342 838 337 829 c 0
 332 820 328 804 324 779 c 1
 195 779 l 1
 206 848 223 898 246 932 c 0
 270 964 301 981 339 981 c 0
 376 981 418 965 467 932 c 0
 490 916 509 908 522 908 c 0
 531 908 538 912 544 921 c 0
 548 930 553 946 556 971 c 1
 686 971 l 1
 675 902 658 852 634 818 c 0
 610 786 579 769 540 769 c 0
 505 769 463 785 414 818 c 0
EndSplineSet
EndChar

StartChar: V
Encoding: 86 86 181
Width: 678
Flags: W
LayerCount: 2
Fore
SplineSet
79 730 m 1
 262 730 l 1
 320 170 l 1
 322 170 l 1
 558 730 l 1
 741 730 l 1
 403 0 l 1
 186 0 l 1
 79 730 l 1
EndSplineSet
EndChar

StartChar: W
Encoding: 87 87 182
Width: 929
Flags: W
LayerCount: 2
Fore
SplineSet
507 557 m 1
 505 557 l 1
 327 0 l 1
 132 0 l 1
 90 730 l 1
 258 730 l 1
 260 173 l 1
 262 173 l 1
 435 730 l 1
 637 730 l 1
 633 173 l 1
 635 173 l 1
 813 730 l 1
 978 730 l 1
 704 0 l 1
 509 0 l 1
 507 557 l 1
EndSplineSet
EndChar

StartChar: Wacute
Encoding: 7810 7810 183
Width: 952
Flags: W
LayerCount: 2
Fore
SplineSet
507 557 m 1
 505 557 l 1
 327 0 l 1
 132 0 l 1
 90 730 l 1
 258 730 l 1
 260 173 l 1
 262 173 l 1
 435 730 l 1
 637 730 l 1
 633 173 l 1
 635 173 l 1
 813 730 l 1
 978 730 l 1
 704 0 l 1
 509 0 l 1
 507 557 l 1
616 770 m 1
 469 770 l 1
 573 980 l 1
 769 980 l 1
 616 770 l 1
EndSplineSet
EndChar

StartChar: Wcircumflex
Encoding: 372 372 184
Width: 952
Flags: W
LayerCount: 2
Fore
SplineSet
507 557 m 1
 505 557 l 1
 327 0 l 1
 132 0 l 1
 90 730 l 1
 258 730 l 1
 260 173 l 1
 262 173 l 1
 435 730 l 1
 637 730 l 1
 633 173 l 1
 635 173 l 1
 813 730 l 1
 978 730 l 1
 704 0 l 1
 509 0 l 1
 507 557 l 1
459 980 m 1
 718 980 l 1
 805 770 l 1
 624 770 l 1
 580 917 l 1
 578 917 l 1
 487 770 l 1
 307 770 l 1
 459 980 l 1
EndSplineSet
EndChar

StartChar: Wdieresis
Encoding: 7812 7812 185
Width: 952
Flags: W
LayerCount: 2
Fore
SplineSet
507 557 m 1
 505 557 l 1
 327 0 l 1
 132 0 l 1
 90 730 l 1
 258 730 l 1
 260 173 l 1
 262 173 l 1
 435 730 l 1
 637 730 l 1
 633 173 l 1
 635 173 l 1
 813 730 l 1
 978 730 l 1
 704 0 l 1
 509 0 l 1
 507 557 l 1
367 959 m 1
 532 959 l 1
 505 791 l 1
 340 791 l 1
 367 959 l 1
626 959 m 1
 791 959 l 1
 765 791 l 1
 599 791 l 1
 626 959 l 1
EndSplineSet
EndChar

StartChar: Wgrave
Encoding: 7808 7808 186
Width: 952
Flags: W
LayerCount: 2
Fore
SplineSet
507 557 m 1
 505 557 l 1
 327 0 l 1
 132 0 l 1
 90 730 l 1
 258 730 l 1
 260 173 l 1
 262 173 l 1
 435 730 l 1
 637 730 l 1
 633 173 l 1
 635 173 l 1
 813 730 l 1
 978 730 l 1
 704 0 l 1
 509 0 l 1
 507 557 l 1
401 980 m 1
 597 980 l 1
 635 770 l 1
 488 770 l 1
 401 980 l 1
EndSplineSet
EndChar

StartChar: X
Encoding: 88 88 187
Width: 676
Flags: W
LayerCount: 2
Fore
SplineSet
226 366 m 1
 103 730 l 1
 291 730 l 1
 365 460 l 1
 367 460 l 1
 527 730 l 1
 715 730 l 1
 475 366 l 1
 600 0 l 1
 412 0 l 1
 337 271 l 1
 335 271 l 1
 174 0 l 1
 -14 0 l 1
 226 366 l 1
EndSplineSet
EndChar

StartChar: Y
Encoding: 89 89 188
Width: 662
Flags: W
LayerCount: 2
Fore
SplineSet
243 278 m 1
 75 730 l 1
 260 730 l 1
 352 425 l 1
 354 425 l 1
 544 730 l 1
 729 730 l 1
 417 278 l 1
 373 0 l 1
 199 0 l 1
 243 278 l 1
EndSplineSet
EndChar

StartChar: Yacute
Encoding: 221 221 189
Width: 677
Flags: W
LayerCount: 2
Fore
SplineSet
243 278 m 1
 75 730 l 1
 260 730 l 1
 352 425 l 1
 354 425 l 1
 544 730 l 1
 729 730 l 1
 417 278 l 1
 373 0 l 1
 199 0 l 1
 243 278 l 1
479 770 m 1
 332 770 l 1
 436 980 l 1
 632 980 l 1
 479 770 l 1
EndSplineSet
EndChar

StartChar: Ycircumflex
Encoding: 374 374 190
Width: 677
Flags: W
LayerCount: 2
Fore
SplineSet
243 278 m 1
 75 730 l 1
 260 730 l 1
 352 425 l 1
 354 425 l 1
 544 730 l 1
 729 730 l 1
 417 278 l 1
 373 0 l 1
 199 0 l 1
 243 278 l 1
321 980 m 1
 580 980 l 1
 667 770 l 1
 486 770 l 1
 442 917 l 1
 440 917 l 1
 349 770 l 1
 169 770 l 1
 321 980 l 1
EndSplineSet
EndChar

StartChar: Ydieresis
Encoding: 376 376 191
Width: 677
Flags: W
LayerCount: 2
Fore
SplineSet
243 278 m 1
 75 730 l 1
 260 730 l 1
 352 425 l 1
 354 425 l 1
 544 730 l 1
 729 730 l 1
 417 278 l 1
 373 0 l 1
 199 0 l 1
 243 278 l 1
230 959 m 1
 395 959 l 1
 368 791 l 1
 203 791 l 1
 230 959 l 1
489 959 m 1
 654 959 l 1
 628 791 l 1
 462 791 l 1
 489 959 l 1
EndSplineSet
EndChar

StartChar: uni1EF4
Encoding: 7924 7924 192
Width: 677
Flags: W
LayerCount: 2
Fore
SplineSet
243 278 m 1
 75 730 l 1
 260 730 l 1
 352 425 l 1
 354 425 l 1
 544 730 l 1
 729 730 l 1
 417 278 l 1
 373 0 l 1
 199 0 l 1
 243 278 l 1
217 -61 m 1
 382 -61 l 1
 355 -229 l 1
 191 -229 l 1
 217 -61 l 1
EndSplineSet
EndChar

StartChar: Ygrave
Encoding: 7922 7922 193
Width: 677
Flags: W
LayerCount: 2
Fore
SplineSet
243 278 m 1
 75 730 l 1
 260 730 l 1
 352 425 l 1
 354 425 l 1
 544 730 l 1
 729 730 l 1
 417 278 l 1
 373 0 l 1
 199 0 l 1
 243 278 l 1
264 980 m 1
 460 980 l 1
 498 770 l 1
 351 770 l 1
 264 980 l 1
EndSplineSet
EndChar

StartChar: uni1EF6
Encoding: 7926 7926 194
Width: 677
Flags: W
LayerCount: 2
Fore
SplineSet
243 278 m 1
 75 730 l 1
 260 730 l 1
 352 425 l 1
 354 425 l 1
 544 730 l 1
 729 730 l 1
 417 278 l 1
 373 0 l 1
 199 0 l 1
 243 278 l 1
484 840 m 0
 486 853 484 861 477 866 c 0
 470 870 457 872 438 872 c 0
 392 872 343 864 292 849 c 1
 298 968 l 1
 326 974 356 979 389 982 c 0
 422 986 452 988 481 988 c 0
 528 988 564 985 588 980 c 0
 613 975 630 966 638 952 c 0
 648 940 650 921 646 897 c 0
 643 879 638 859 630 836 c 0
 622 814 613 795 604 778 c 1
 463 778 l 1
 474 800 481 821 484 840 c 0
EndSplineSet
EndChar

StartChar: uni0232
Encoding: 562 562 195
Width: 677
Flags: W
LayerCount: 2
Fore
SplineSet
243 278 m 1
 75 730 l 1
 260 730 l 1
 352 425 l 1
 354 425 l 1
 544 730 l 1
 729 730 l 1
 417 278 l 1
 373 0 l 1
 199 0 l 1
 243 278 l 1
278 936 m 1
 676 936 l 1
 656 814 l 1
 259 814 l 1
 278 936 l 1
EndSplineSet
EndChar

StartChar: uni1EF8
Encoding: 7928 7928 196
Width: 677
Flags: W
LayerCount: 2
Fore
SplineSet
243 278 m 1
 75 730 l 1
 260 730 l 1
 352 425 l 1
 354 425 l 1
 544 730 l 1
 729 730 l 1
 417 278 l 1
 373 0 l 1
 199 0 l 1
 243 278 l 1
396 818 m 0
 373 834 354 842 340 842 c 0
 331 842 324 838 319 829 c 0
 314 820 310 804 306 779 c 1
 177 779 l 1
 188 848 205 898 228 932 c 0
 252 964 283 981 321 981 c 0
 358 981 400 965 449 932 c 0
 472 916 491 908 504 908 c 0
 513 908 520 912 526 921 c 0
 530 930 535 946 538 971 c 1
 668 971 l 1
 657 902 640 852 616 818 c 0
 592 786 561 769 522 769 c 0
 487 769 445 785 396 818 c 0
EndSplineSet
EndChar

StartChar: Z
Encoding: 90 90 197
Width: 621
Flags: W
LayerCount: 2
Fore
SplineSet
29 143 m 1
 420 585 l 1
 420 587 l 1
 99 587 l 1
 122 730 l 1
 641 730 l 1
 618 587 l 1
 227 145 l 1
 227 143 l 1
 548 143 l 1
 525 0 l 1
 6 0 l 1
 29 143 l 1
EndSplineSet
EndChar

StartChar: Zacute
Encoding: 377 377 198
Width: 642
Flags: W
LayerCount: 2
Fore
SplineSet
29 143 m 1
 420 585 l 1
 420 587 l 1
 99 587 l 1
 122 730 l 1
 641 730 l 1
 618 587 l 1
 227 145 l 1
 227 143 l 1
 548 143 l 1
 525 0 l 1
 6 0 l 1
 29 143 l 1
462 770 m 1
 315 770 l 1
 419 980 l 1
 615 980 l 1
 462 770 l 1
EndSplineSet
EndChar

StartChar: Zcaron
Encoding: 381 381 199
Width: 642
Flags: W
LayerCount: 2
Fore
SplineSet
29 143 m 1
 420 585 l 1
 420 587 l 1
 99 587 l 1
 122 730 l 1
 641 730 l 1
 618 587 l 1
 227 145 l 1
 227 143 l 1
 548 143 l 1
 525 0 l 1
 6 0 l 1
 29 143 l 1
185 980 m 1
 365 980 l 1
 410 833 l 1
 412 833 l 1
 502 980 l 1
 683 980 l 1
 530 770 l 1
 271 770 l 1
 185 980 l 1
EndSplineSet
EndChar

StartChar: Zdotaccent
Encoding: 379 379 200
Width: 642
Flags: W
LayerCount: 2
Fore
SplineSet
29 143 m 1
 420 585 l 1
 420 587 l 1
 99 587 l 1
 122 730 l 1
 641 730 l 1
 618 587 l 1
 227 145 l 1
 227 143 l 1
 548 143 l 1
 525 0 l 1
 6 0 l 1
 29 143 l 1
361 959 m 1
 526 959 l 1
 499 791 l 1
 335 791 l 1
 361 959 l 1
EndSplineSet
EndChar

StartChar: a
Encoding: 97 97 201
Width: 534
Flags: W
LayerCount: 2
Fore
SplineSet
464 482 m 0
 493 450 501 397 489 322 c 2
 438 0 l 1
 290 0 l 1
 298 63 l 1
 296 63 l 1
 275 40 250 22 222 9 c 0
 193 -4 164 -10 134 -10 c 0
 87 -10 51 4 27 34 c 0
 3 62 -5 101 2 148 c 0
 11 207 42 253 96 285 c 0
 148 317 219 333 306 333 c 2
 335 333 l 1
 339 362 337 382 328 392 c 0
 320 402 302 407 275 407 c 0
 216 407 152 392 85 363 c 1
 70 481 l 1
 106 497 144 509 185 518 c 0
 226 526 266 530 306 530 c 0
 383 530 436 514 464 482 c 0
276 135 m 0
 297 152 310 173 313 198 c 2
 319 234 l 1
 291 234 l 2
 204 234 156 211 149 165 c 0
 146 148 150 134 160 124 c 0
 169 114 184 109 203 109 c 0
 230 109 254 118 276 135 c 0
EndSplineSet
EndChar

StartChar: aacute
Encoding: 225 225 202
Width: 570
Flags: W
LayerCount: 2
Fore
SplineSet
464 482 m 0
 493 450 501 397 489 322 c 2
 438 0 l 1
 290 0 l 1
 298 63 l 1
 296 63 l 1
 275 40 250 22 222 9 c 0
 193 -4 164 -10 134 -10 c 0
 87 -10 51 4 27 34 c 0
 3 62 -5 101 2 148 c 0
 11 207 42 253 96 285 c 0
 148 317 219 333 306 333 c 2
 335 333 l 1
 339 362 337 382 328 392 c 0
 320 402 302 407 275 407 c 0
 216 407 152 392 85 363 c 1
 70 481 l 1
 106 497 144 509 185 518 c 0
 226 526 266 530 306 530 c 0
 383 530 436 514 464 482 c 0
276 135 m 0
 297 152 310 173 313 198 c 2
 319 234 l 1
 291 234 l 2
 204 234 156 211 149 165 c 0
 146 148 150 134 160 124 c 0
 169 114 184 109 203 109 c 0
 230 109 254 118 276 135 c 0
381 560 m 1
 234 560 l 1
 338 770 l 1
 534 770 l 1
 381 560 l 1
EndSplineSet
EndChar

StartChar: abreve
Encoding: 259 259 203
Width: 570
Flags: W
LayerCount: 2
Fore
SplineSet
464 482 m 0
 493 450 501 397 489 322 c 2
 438 0 l 1
 290 0 l 1
 298 63 l 1
 296 63 l 1
 275 40 250 22 222 9 c 0
 193 -4 164 -10 134 -10 c 0
 87 -10 51 4 27 34 c 0
 3 62 -5 101 2 148 c 0
 11 207 42 253 96 285 c 0
 148 317 219 333 306 333 c 2
 335 333 l 1
 339 362 337 382 328 392 c 0
 320 402 302 407 275 407 c 0
 216 407 152 392 85 363 c 1
 70 481 l 1
 106 497 144 509 185 518 c 0
 226 526 266 530 306 530 c 0
 383 530 436 514 464 482 c 0
276 135 m 0
 297 152 310 173 313 198 c 2
 319 234 l 1
 291 234 l 2
 204 234 156 211 149 165 c 0
 146 148 150 134 160 124 c 0
 169 114 184 109 203 109 c 0
 230 109 254 118 276 135 c 0
202 584 m 0
 170 601 146 625 132 656 c 0
 116 687 112 722 117 761 c 1
 267 761 l 1
 266 731 270 709 281 694 c 0
 292 680 309 673 334 673 c 0
 358 673 378 680 393 694 c 0
 408 709 420 731 429 761 c 1
 578 761 l 1
 571 722 556 687 530 656 c 0
 506 625 474 601 437 584 c 0
 400 567 359 558 316 558 c 0
 272 558 234 567 202 584 c 0
EndSplineSet
EndChar

StartChar: uni1EAF
Encoding: 7855 7855 204
Width: 534
Flags: W
LayerCount: 2
Fore
SplineSet
191 584 m 0
 160 601 138 625 124 656 c 0
 109 687 105 722 110 761 c 1
 233 761 l 1
 329 960 l 1
 518 960 l 1
 370 750 l 1
 255 750 l 1
 254 699 275 673 318 673 c 0
 341 673 360 680 376 694 c 0
 390 709 402 731 411 761 c 1
 554 761 l 1
 547 722 532 687 508 656 c 0
 484 625 454 601 418 584 c 0
 381 567 342 558 300 558 c 0
 258 558 222 567 191 584 c 0
464 482 m 0
 493 450 501 397 489 322 c 2
 438 0 l 1
 290 0 l 1
 298 63 l 1
 296 63 l 1
 275 40 250 22 222 9 c 0
 193 -4 164 -10 134 -10 c 0
 87 -10 51 4 27 34 c 0
 3 62 -5 101 2 148 c 0
 11 207 42 253 96 285 c 0
 148 317 219 333 306 333 c 2
 335 333 l 1
 339 362 337 382 328 392 c 0
 320 402 302 407 275 407 c 0
 216 407 152 392 85 363 c 1
 70 481 l 1
 106 497 144 509 185 518 c 0
 226 526 266 530 306 530 c 0
 383 530 436 514 464 482 c 0
276 135 m 0
 297 152 310 173 313 198 c 2
 319 234 l 1
 291 234 l 2
 204 234 156 211 149 165 c 0
 146 148 150 134 160 124 c 0
 169 114 184 109 203 109 c 0
 230 109 254 118 276 135 c 0
EndSplineSet
EndChar

StartChar: uni1EB7
Encoding: 7863 7863 205
Width: 570
Flags: W
LayerCount: 2
Fore
SplineSet
464 482 m 0
 493 450 501 397 489 322 c 2
 438 0 l 1
 290 0 l 1
 298 63 l 1
 296 63 l 1
 275 40 250 22 222 9 c 0
 193 -4 164 -10 134 -10 c 0
 87 -10 51 4 27 34 c 0
 3 62 -5 101 2 148 c 0
 11 207 42 253 96 285 c 0
 148 317 219 333 306 333 c 2
 335 333 l 1
 339 362 337 382 328 392 c 0
 320 402 302 407 275 407 c 0
 216 407 152 392 85 363 c 1
 70 481 l 1
 106 497 144 509 185 518 c 0
 226 526 266 530 306 530 c 0
 383 530 436 514 464 482 c 0
276 135 m 0
 297 152 310 173 313 198 c 2
 319 234 l 1
 291 234 l 2
 204 234 156 211 149 165 c 0
 146 148 150 134 160 124 c 0
 169 114 184 109 203 109 c 0
 230 109 254 118 276 135 c 0
152 -61 m 1
 317 -61 l 1
 290 -229 l 1
 126 -229 l 1
 152 -61 l 1
202 584 m 0
 170 601 146 625 132 656 c 0
 116 687 112 722 117 761 c 1
 267 761 l 1
 266 731 270 709 281 694 c 0
 292 680 309 673 334 673 c 0
 358 673 378 680 393 694 c 0
 408 709 420 731 429 761 c 1
 578 761 l 1
 571 722 556 687 530 656 c 0
 506 625 474 601 437 584 c 0
 400 567 359 558 316 558 c 0
 272 558 234 567 202 584 c 0
EndSplineSet
EndChar

StartChar: uni1EB1
Encoding: 7857 7857 206
Width: 534
Flags: W
LayerCount: 2
Fore
SplineSet
373 692 m 0
 388 705 399 724 407 750 c 1
 293 750 l 1
 211 960 l 1
 400 960 l 1
 433 761 l 1
 554 761 l 1
 547 722 532 687 508 656 c 0
 484 625 454 601 418 584 c 0
 381 567 342 558 300 558 c 0
 258 558 222 567 191 584 c 0
 160 601 138 625 124 656 c 0
 109 687 105 722 110 761 c 1
 254 761 l 1
 253 731 257 709 268 694 c 0
 278 680 295 673 318 673 c 0
 340 673 358 679 373 692 c 0
464 482 m 0
 493 450 501 397 489 322 c 2
 438 0 l 1
 290 0 l 1
 298 63 l 1
 296 63 l 1
 275 40 250 22 222 9 c 0
 193 -4 164 -10 134 -10 c 0
 87 -10 51 4 27 34 c 0
 3 62 -5 101 2 148 c 0
 11 207 42 253 96 285 c 0
 148 317 219 333 306 333 c 2
 335 333 l 1
 339 362 337 382 328 392 c 0
 320 402 302 407 275 407 c 0
 216 407 152 392 85 363 c 1
 70 481 l 1
 106 497 144 509 185 518 c 0
 226 526 266 530 306 530 c 0
 383 530 436 514 464 482 c 0
276 135 m 0
 297 152 310 173 313 198 c 2
 319 234 l 1
 291 234 l 2
 204 234 156 211 149 165 c 0
 146 148 150 134 160 124 c 0
 169 114 184 109 203 109 c 0
 230 109 254 118 276 135 c 0
EndSplineSet
EndChar

StartChar: uni1EB3
Encoding: 7859 7859 207
Width: 534
Flags: W
LayerCount: 2
Fore
SplineSet
372 692 m 0
 387 705 398 724 407 751 c 1
 346 751 l 1
 357 773 363 794 366 813 c 0
 368 826 366 834 360 838 c 0
 353 843 341 845 322 845 c 0
 278 845 231 837 181 822 c 1
 188 941 l 1
 215 947 244 952 275 956 c 0
 306 959 336 961 364 961 c 0
 409 961 444 958 468 953 c 0
 491 948 507 938 516 926 c 0
 524 912 526 894 522 870 c 0
 519 853 515 835 508 815 c 0
 502 795 495 777 487 761 c 1
 553 761 l 1
 546 722 531 687 507 656 c 0
 483 625 453 601 417 584 c 0
 381 567 342 558 300 558 c 0
 258 558 222 567 191 584 c 0
 160 601 138 625 124 656 c 0
 109 687 105 722 110 761 c 1
 254 761 l 1
 253 731 257 709 268 694 c 0
 278 680 295 673 318 673 c 0
 340 673 358 679 372 692 c 0
464 482 m 0
 492 450 500 397 489 322 c 2
 438 0 l 1
 289 0 l 1
 297 63 l 1
 295 63 l 1
 274 40 249 22 221 9 c 0
 193 -4 164 -10 134 -10 c 0
 87 -10 51 4 27 34 c 0
 3 62 -5 101 2 148 c 0
 11 207 42 253 96 285 c 0
 148 317 219 333 306 333 c 2
 334 333 l 1
 338 362 336 382 328 392 c 0
 320 402 302 407 274 407 c 0
 215 407 152 392 85 363 c 1
 70 481 l 1
 106 497 144 509 184 518 c 0
 225 526 265 530 306 530 c 0
 383 530 436 514 464 482 c 0
275 135 m 0
 296 152 309 173 313 198 c 2
 319 234 l 1
 290 234 l 2
 203 234 156 211 149 165 c 0
 146 148 150 134 160 124 c 0
 169 114 184 109 203 109 c 0
 230 109 254 118 275 135 c 0
EndSplineSet
EndChar

StartChar: uni1EB5
Encoding: 7861 7861 208
Width: 570
Flags: W
LayerCount: 2
Fore
SplineSet
464 482 m 0
 493 450 501 397 489 322 c 2
 438 0 l 1
 290 0 l 1
 298 63 l 1
 296 63 l 1
 275 40 250 22 222 9 c 0
 193 -4 164 -10 134 -10 c 0
 87 -10 51 4 27 34 c 0
 3 62 -5 101 2 148 c 0
 11 207 42 253 96 285 c 0
 148 317 219 333 306 333 c 2
 335 333 l 1
 339 362 337 382 328 392 c 0
 320 402 302 407 275 407 c 0
 216 407 152 392 85 363 c 1
 70 481 l 1
 106 497 144 509 185 518 c 0
 226 526 266 530 306 530 c 0
 383 530 436 514 464 482 c 0
276 135 m 0
 297 152 310 173 313 198 c 2
 319 234 l 1
 291 234 l 2
 204 234 156 211 149 165 c 0
 146 148 150 134 160 124 c 0
 169 114 184 109 203 109 c 0
 230 109 254 118 276 135 c 0
202 584 m 0
 170 601 146 625 132 656 c 0
 116 687 112 722 117 761 c 1
 267 761 l 1
 266 731 270 709 281 694 c 0
 292 680 309 673 334 673 c 0
 358 673 378 680 393 694 c 0
 408 709 420 731 429 761 c 1
 578 761 l 1
 571 722 556 687 530 656 c 0
 506 625 474 601 437 584 c 0
 400 567 359 558 316 558 c 0
 272 558 234 567 202 584 c 0
336 845 m 0
 313 861 294 869 280 869 c 0
 271 869 264 865 259 856 c 0
 254 847 250 831 246 806 c 1
 117 806 l 1
 128 875 145 926 168 958 c 0
 192 992 223 1008 261 1008 c 0
 298 1008 340 992 389 959 c 0
 412 943 431 935 444 935 c 0
 453 935 460 939 466 948 c 0
 470 957 475 973 478 998 c 1
 608 998 l 1
 597 929 580 878 556 846 c 0
 532 812 501 796 462 796 c 0
 427 796 385 812 336 845 c 0
EndSplineSet
EndChar

StartChar: acircumflex
Encoding: 226 226 209
Width: 570
Flags: W
LayerCount: 2
Fore
SplineSet
464 482 m 0
 493 450 501 397 489 322 c 2
 438 0 l 1
 290 0 l 1
 298 63 l 1
 296 63 l 1
 275 40 250 22 222 9 c 0
 193 -4 164 -10 134 -10 c 0
 87 -10 51 4 27 34 c 0
 3 62 -5 101 2 148 c 0
 11 207 42 253 96 285 c 0
 148 317 219 333 306 333 c 2
 335 333 l 1
 339 362 337 382 328 392 c 0
 320 402 302 407 275 407 c 0
 216 407 152 392 85 363 c 1
 70 481 l 1
 106 497 144 509 185 518 c 0
 226 526 266 530 306 530 c 0
 383 530 436 514 464 482 c 0
276 135 m 0
 297 152 310 173 313 198 c 2
 319 234 l 1
 291 234 l 2
 204 234 156 211 149 165 c 0
 146 148 150 134 160 124 c 0
 169 114 184 109 203 109 c 0
 230 109 254 118 276 135 c 0
223 770 m 1
 482 770 l 1
 569 560 l 1
 388 560 l 1
 344 707 l 1
 342 707 l 1
 251 560 l 1
 71 560 l 1
 223 770 l 1
EndSplineSet
EndChar

StartChar: uni1EA5
Encoding: 7845 7845 210
Width: 540
Flags: W
LayerCount: 2
Fore
SplineSet
721 950 m 1
 572 740 l 1
 470 740 l 1
 540 560 l 1
 367 560 l 1
 325 707 l 1
 323 707 l 1
 234 560 l 1
 61 560 l 1
 209 770 l 1
 445 770 l 1
 532 950 l 1
 721 950 l 1
464 482 m 0
 493 450 501 397 489 322 c 2
 438 0 l 1
 290 0 l 1
 298 63 l 1
 296 63 l 1
 275 40 250 22 222 9 c 0
 194 -4 165 -10 134 -10 c 0
 87 -10 51 4 27 34 c 0
 3 62 -5 101 2 148 c 0
 11 207 42 253 96 285 c 0
 148 317 219 333 307 333 c 2
 335 333 l 1
 339 362 337 382 329 392 c 0
 321 402 303 407 275 407 c 0
 216 407 152 392 85 363 c 1
 70 481 l 1
 106 497 144 509 185 518 c 0
 226 526 266 530 306 530 c 0
 383 530 436 514 464 482 c 0
276 135 m 0
 297 152 310 173 314 198 c 2
 319 234 l 1
 291 234 l 2
 204 234 156 211 149 165 c 0
 146 148 150 134 160 124 c 0
 169 114 184 109 204 109 c 0
 231 109 255 118 276 135 c 0
EndSplineSet
EndChar

StartChar: uni1EAD
Encoding: 7853 7853 211
Width: 570
Flags: W
LayerCount: 2
Fore
SplineSet
464 482 m 0
 493 450 501 397 489 322 c 2
 438 0 l 1
 290 0 l 1
 298 63 l 1
 296 63 l 1
 275 40 250 22 222 9 c 0
 193 -4 164 -10 134 -10 c 0
 87 -10 51 4 27 34 c 0
 3 62 -5 101 2 148 c 0
 11 207 42 253 96 285 c 0
 148 317 219 333 306 333 c 2
 335 333 l 1
 339 362 337 382 328 392 c 0
 320 402 302 407 275 407 c 0
 216 407 152 392 85 363 c 1
 70 481 l 1
 106 497 144 509 185 518 c 0
 226 526 266 530 306 530 c 0
 383 530 436 514 464 482 c 0
276 135 m 0
 297 152 310 173 313 198 c 2
 319 234 l 1
 291 234 l 2
 204 234 156 211 149 165 c 0
 146 148 150 134 160 124 c 0
 169 114 184 109 203 109 c 0
 230 109 254 118 276 135 c 0
152 -61 m 1
 317 -61 l 1
 290 -229 l 1
 126 -229 l 1
 152 -61 l 1
223 770 m 1
 482 770 l 1
 569 560 l 1
 388 560 l 1
 344 707 l 1
 342 707 l 1
 251 560 l 1
 71 560 l 1
 223 770 l 1
EndSplineSet
EndChar

StartChar: uni1EA7
Encoding: 7847 7847 212
Width: 540
Flags: W
LayerCount: 2
Fore
SplineSet
239 560 m 1
 66 560 l 1
 193 740 l 1
 93 740 l 1
 10 950 l 1
 199 950 l 1
 229 770 l 1
 464 770 l 1
 545 560 l 1
 372 560 l 1
 330 707 l 1
 328 707 l 1
 239 560 l 1
470 482 m 0
 498 450 506 397 494 322 c 2
 443 0 l 1
 295 0 l 1
 303 63 l 1
 301 63 l 1
 280 40 255 22 227 9 c 0
 199 -4 170 -10 139 -10 c 0
 92 -10 56 4 32 34 c 0
 8 62 0 101 7 148 c 0
 16 207 48 253 100 285 c 0
 154 317 224 333 312 333 c 2
 340 333 l 1
 344 362 342 382 334 392 c 0
 326 402 308 407 280 407 c 0
 221 407 157 392 90 363 c 1
 75 481 l 1
 111 497 149 509 190 518 c 0
 231 526 271 530 311 530 c 0
 388 530 441 514 470 482 c 0
281 135 m 0
 302 152 315 173 319 198 c 2
 324 234 l 1
 296 234 l 2
 209 234 161 211 154 165 c 0
 151 148 155 134 164 124 c 0
 174 114 189 109 209 109 c 0
 236 109 260 118 281 135 c 0
EndSplineSet
EndChar

StartChar: uni1EA9
Encoding: 7849 7849 213
Width: 536
Flags: W
LayerCount: 2
Fore
SplineSet
470 740 m 1
 540 560 l 1
 367 560 l 1
 325 707 l 1
 323 707 l 1
 234 560 l 1
 61 560 l 1
 209 770 l 1
 445 770 l 1
 449 782 452 793 453 802 c 0
 455 815 453 823 446 828 c 0
 440 832 427 834 408 834 c 0
 364 834 317 826 267 811 c 1
 274 930 l 1
 301 936 330 941 361 944 c 0
 392 948 422 950 450 950 c 0
 495 950 530 947 554 942 c 0
 577 937 593 928 602 914 c 0
 610 902 612 883 608 859 c 0
 605 841 600 821 592 798 c 0
 585 776 577 757 568 740 c 1
 470 740 l 1
464 482 m 0
 493 450 501 397 489 322 c 2
 438 0 l 1
 290 0 l 1
 298 63 l 1
 296 63 l 1
 275 40 250 22 222 9 c 0
 194 -4 165 -10 134 -10 c 0
 87 -10 51 4 27 34 c 0
 3 62 -5 101 2 148 c 0
 11 207 42 253 96 285 c 0
 148 317 219 333 307 333 c 2
 335 333 l 1
 339 362 337 382 329 392 c 0
 321 402 303 407 275 407 c 0
 216 407 152 392 85 363 c 1
 70 481 l 1
 106 497 144 509 185 518 c 0
 226 526 266 530 306 530 c 0
 383 530 436 514 464 482 c 0
276 135 m 0
 297 152 310 173 314 198 c 2
 319 234 l 1
 291 234 l 2
 204 234 156 211 149 165 c 0
 146 148 150 134 160 124 c 0
 169 114 184 109 204 109 c 0
 231 109 255 118 276 135 c 0
EndSplineSet
EndChar

StartChar: uni1EAB
Encoding: 7851 7851 214
Width: 570
Flags: W
LayerCount: 2
Fore
SplineSet
464 482 m 0
 493 450 501 397 489 322 c 2
 438 0 l 1
 290 0 l 1
 298 63 l 1
 296 63 l 1
 275 40 250 22 222 9 c 0
 193 -4 164 -10 134 -10 c 0
 87 -10 51 4 27 34 c 0
 3 62 -5 101 2 148 c 0
 11 207 42 253 96 285 c 0
 148 317 219 333 306 333 c 2
 335 333 l 1
 339 362 337 382 328 392 c 0
 320 402 302 407 275 407 c 0
 216 407 152 392 85 363 c 1
 70 481 l 1
 106 497 144 509 185 518 c 0
 226 526 266 530 306 530 c 0
 383 530 436 514 464 482 c 0
276 135 m 0
 297 152 310 173 313 198 c 2
 319 234 l 1
 291 234 l 2
 204 234 156 211 149 165 c 0
 146 148 150 134 160 124 c 0
 169 114 184 109 203 109 c 0
 230 109 254 118 276 135 c 0
223 770 m 1
 482 770 l 1
 569 560 l 1
 388 560 l 1
 344 707 l 1
 342 707 l 1
 251 560 l 1
 71 560 l 1
 223 770 l 1
336 845 m 0
 313 861 294 869 280 869 c 0
 271 869 264 865 259 856 c 0
 254 847 250 831 246 806 c 1
 117 806 l 1
 128 875 145 926 168 958 c 0
 192 992 223 1008 261 1008 c 0
 298 1008 340 992 389 959 c 0
 412 943 431 935 444 935 c 0
 453 935 460 939 466 948 c 0
 470 957 475 973 478 998 c 1
 608 998 l 1
 597 929 580 878 556 846 c 0
 532 812 501 796 462 796 c 0
 427 796 385 812 336 845 c 0
EndSplineSet
EndChar

StartChar: uni0201
Encoding: 513 513 215
Width: 570
Flags: W
LayerCount: 2
Fore
SplineSet
464 482 m 0
 493 450 501 397 489 322 c 2
 438 0 l 1
 290 0 l 1
 298 63 l 1
 296 63 l 1
 275 40 250 22 222 9 c 0
 193 -4 164 -10 134 -10 c 0
 87 -10 51 4 27 34 c 0
 3 62 -5 101 2 148 c 0
 11 207 42 253 96 285 c 0
 148 317 219 333 306 333 c 2
 335 333 l 1
 339 362 337 382 328 392 c 0
 320 402 302 407 275 407 c 0
 216 407 152 392 85 363 c 1
 70 481 l 1
 106 497 144 509 185 518 c 0
 226 526 266 530 306 530 c 0
 383 530 436 514 464 482 c 0
276 135 m 0
 297 152 310 173 313 198 c 2
 319 234 l 1
 291 234 l 2
 204 234 156 211 149 165 c 0
 146 148 150 134 160 124 c 0
 169 114 184 109 203 109 c 0
 230 109 254 118 276 135 c 0
30 770 m 1
 226 770 l 1
 264 560 l 1
 117 560 l 1
 30 770 l 1
280 770 m 1
 476 770 l 1
 514 560 l 1
 367 560 l 1
 280 770 l 1
EndSplineSet
EndChar

StartChar: adieresis
Encoding: 228 228 216
Width: 570
Flags: W
LayerCount: 2
Fore
SplineSet
464 482 m 0
 493 450 501 397 489 322 c 2
 438 0 l 1
 290 0 l 1
 298 63 l 1
 296 63 l 1
 275 40 250 22 222 9 c 0
 193 -4 164 -10 134 -10 c 0
 87 -10 51 4 27 34 c 0
 3 62 -5 101 2 148 c 0
 11 207 42 253 96 285 c 0
 148 317 219 333 306 333 c 2
 335 333 l 1
 339 362 337 382 328 392 c 0
 320 402 302 407 275 407 c 0
 216 407 152 392 85 363 c 1
 70 481 l 1
 106 497 144 509 185 518 c 0
 226 526 266 530 306 530 c 0
 383 530 436 514 464 482 c 0
276 135 m 0
 297 152 310 173 313 198 c 2
 319 234 l 1
 291 234 l 2
 204 234 156 211 149 165 c 0
 146 148 150 134 160 124 c 0
 169 114 184 109 203 109 c 0
 230 109 254 118 276 135 c 0
132 749 m 1
 297 749 l 1
 270 581 l 1
 105 581 l 1
 132 749 l 1
391 749 m 1
 556 749 l 1
 530 581 l 1
 364 581 l 1
 391 749 l 1
EndSplineSet
EndChar

StartChar: uni1EA1
Encoding: 7841 7841 217
Width: 570
Flags: W
LayerCount: 2
Fore
SplineSet
464 482 m 0
 493 450 501 397 489 322 c 2
 438 0 l 1
 290 0 l 1
 298 63 l 1
 296 63 l 1
 275 40 250 22 222 9 c 0
 193 -4 164 -10 134 -10 c 0
 87 -10 51 4 27 34 c 0
 3 62 -5 101 2 148 c 0
 11 207 42 253 96 285 c 0
 148 317 219 333 306 333 c 2
 335 333 l 1
 339 362 337 382 328 392 c 0
 320 402 302 407 275 407 c 0
 216 407 152 392 85 363 c 1
 70 481 l 1
 106 497 144 509 185 518 c 0
 226 526 266 530 306 530 c 0
 383 530 436 514 464 482 c 0
276 135 m 0
 297 152 310 173 313 198 c 2
 319 234 l 1
 291 234 l 2
 204 234 156 211 149 165 c 0
 146 148 150 134 160 124 c 0
 169 114 184 109 203 109 c 0
 230 109 254 118 276 135 c 0
152 -61 m 1
 317 -61 l 1
 290 -229 l 1
 126 -229 l 1
 152 -61 l 1
EndSplineSet
EndChar

StartChar: agrave
Encoding: 224 224 218
Width: 570
Flags: W
LayerCount: 2
Fore
SplineSet
464 482 m 0
 493 450 501 397 489 322 c 2
 438 0 l 1
 290 0 l 1
 298 63 l 1
 296 63 l 1
 275 40 250 22 222 9 c 0
 193 -4 164 -10 134 -10 c 0
 87 -10 51 4 27 34 c 0
 3 62 -5 101 2 148 c 0
 11 207 42 253 96 285 c 0
 148 317 219 333 306 333 c 2
 335 333 l 1
 339 362 337 382 328 392 c 0
 320 402 302 407 275 407 c 0
 216 407 152 392 85 363 c 1
 70 481 l 1
 106 497 144 509 185 518 c 0
 226 526 266 530 306 530 c 0
 383 530 436 514 464 482 c 0
276 135 m 0
 297 152 310 173 313 198 c 2
 319 234 l 1
 291 234 l 2
 204 234 156 211 149 165 c 0
 146 148 150 134 160 124 c 0
 169 114 184 109 203 109 c 0
 230 109 254 118 276 135 c 0
166 770 m 1
 362 770 l 1
 400 560 l 1
 253 560 l 1
 166 770 l 1
EndSplineSet
EndChar

StartChar: uni1EA3
Encoding: 7843 7843 219
Width: 570
Flags: W
LayerCount: 2
Fore
SplineSet
464 482 m 0
 493 450 501 397 489 322 c 2
 438 0 l 1
 290 0 l 1
 298 63 l 1
 296 63 l 1
 275 40 250 22 222 9 c 0
 193 -4 164 -10 134 -10 c 0
 87 -10 51 4 27 34 c 0
 3 62 -5 101 2 148 c 0
 11 207 42 253 96 285 c 0
 148 317 219 333 306 333 c 2
 335 333 l 1
 339 362 337 382 328 392 c 0
 320 402 302 407 275 407 c 0
 216 407 152 392 85 363 c 1
 70 481 l 1
 106 497 144 509 185 518 c 0
 226 526 266 530 306 530 c 0
 383 530 436 514 464 482 c 0
276 135 m 0
 297 152 310 173 313 198 c 2
 319 234 l 1
 291 234 l 2
 204 234 156 211 149 165 c 0
 146 148 150 134 160 124 c 0
 169 114 184 109 203 109 c 0
 230 109 254 118 276 135 c 0
386 630 m 0
 388 643 386 651 379 656 c 0
 372 660 359 662 340 662 c 0
 294 662 245 654 194 639 c 1
 200 758 l 1
 228 764 258 769 291 772 c 0
 324 776 354 778 383 778 c 0
 430 778 466 775 490 770 c 0
 515 765 532 756 540 742 c 0
 550 730 552 711 548 687 c 0
 545 669 540 649 532 626 c 0
 524 604 515 585 506 568 c 1
 365 568 l 1
 376 590 383 611 386 630 c 0
EndSplineSet
EndChar

StartChar: uni0203
Encoding: 515 515 220
Width: 570
Flags: W
LayerCount: 2
Fore
SplineSet
464 482 m 0
 493 450 501 397 489 322 c 2
 438 0 l 1
 290 0 l 1
 298 63 l 1
 296 63 l 1
 275 40 250 22 222 9 c 0
 193 -4 164 -10 134 -10 c 0
 87 -10 51 4 27 34 c 0
 3 62 -5 101 2 148 c 0
 11 207 42 253 96 285 c 0
 148 317 219 333 306 333 c 2
 335 333 l 1
 339 362 337 382 328 392 c 0
 320 402 302 407 275 407 c 0
 216 407 152 392 85 363 c 1
 70 481 l 1
 106 497 144 509 185 518 c 0
 226 526 266 530 306 530 c 0
 383 530 436 514 464 482 c 0
276 135 m 0
 297 152 310 173 313 198 c 2
 319 234 l 1
 291 234 l 2
 204 234 156 211 149 165 c 0
 146 148 150 134 160 124 c 0
 169 114 184 109 203 109 c 0
 230 109 254 118 276 135 c 0
453 746 m 0
 485 729 508 705 524 674 c 0
 538 643 543 608 538 569 c 1
 389 569 l 1
 390 599 384 621 374 636 c 0
 362 650 345 657 321 657 c 0
 297 657 277 650 262 636 c 0
 247 621 235 599 227 569 c 1
 77 569 l 1
 84 608 100 643 124 674 c 0
 150 705 181 729 218 746 c 0
 255 763 296 772 339 772 c 0
 383 772 421 763 453 746 c 0
EndSplineSet
EndChar

StartChar: amacron
Encoding: 257 257 221
Width: 570
Flags: W
LayerCount: 2
Fore
SplineSet
464 482 m 0
 493 450 501 397 489 322 c 2
 438 0 l 1
 290 0 l 1
 298 63 l 1
 296 63 l 1
 275 40 250 22 222 9 c 0
 193 -4 164 -10 134 -10 c 0
 87 -10 51 4 27 34 c 0
 3 62 -5 101 2 148 c 0
 11 207 42 253 96 285 c 0
 148 317 219 333 306 333 c 2
 335 333 l 1
 339 362 337 382 328 392 c 0
 320 402 302 407 275 407 c 0
 216 407 152 392 85 363 c 1
 70 481 l 1
 106 497 144 509 185 518 c 0
 226 526 266 530 306 530 c 0
 383 530 436 514 464 482 c 0
276 135 m 0
 297 152 310 173 313 198 c 2
 319 234 l 1
 291 234 l 2
 204 234 156 211 149 165 c 0
 146 148 150 134 160 124 c 0
 169 114 184 109 203 109 c 0
 230 109 254 118 276 135 c 0
180 726 m 1
 578 726 l 1
 558 604 l 1
 161 604 l 1
 180 726 l 1
EndSplineSet
EndChar

StartChar: aogonek
Encoding: 261 261 222
Width: 538
Flags: W
LayerCount: 2
Fore
SplineSet
492 -199 m 1
 457 -212 417 -219 374 -219 c 0
 315 -219 271 -208 242 -186 c 0
 213 -164 202 -133 209 -92 c 0
 212 -70 221 -49 234 -30 c 0
 247 -10 267 11 293 33 c 1
 297 63 l 1
 295 63 l 1
 274 40 249 22 221 9 c 0
 193 -4 164 -10 134 -10 c 0
 87 -10 51 4 27 34 c 0
 3 62 -5 101 2 148 c 0
 11 207 42 253 96 285 c 0
 148 317 219 333 306 333 c 2
 334 333 l 1
 338 362 336 382 328 392 c 0
 320 402 302 407 274 407 c 0
 215 407 152 392 85 363 c 1
 70 481 l 1
 106 497 144 509 184 518 c 0
 225 526 265 530 306 530 c 0
 383 530 436 514 464 482 c 0
 492 450 500 397 488 322 c 2
 437 0 l 1
 386 -23 358 -46 355 -69 c 0
 354 -79 357 -87 366 -92 c 0
 374 -97 386 -100 403 -100 c 0
 434 -100 465 -93 496 -80 c 1
 492 -199 l 1
275 135 m 0
 296 152 309 173 313 198 c 2
 319 234 l 1
 290 234 l 2
 203 234 156 211 149 165 c 0
 146 148 150 134 160 124 c 0
 169 114 184 109 203 109 c 0
 230 109 254 118 275 135 c 0
EndSplineSet
EndChar

StartChar: aring
Encoding: 229 229 223
Width: 534
Flags: W
LayerCount: 2
Fore
SplineSet
477 464 m 0
 495 432 499 385 489 322 c 2
 438 0 l 1
 289 0 l 1
 297 63 l 1
 295 63 l 1
 274 40 249 22 221 9 c 0
 193 -4 164 -10 134 -10 c 0
 87 -10 51 4 27 34 c 0
 3 62 -5 101 2 148 c 0
 11 207 42 253 96 285 c 0
 148 317 219 333 306 333 c 2
 334 333 l 1
 338 362 336 382 328 392 c 0
 320 402 302 407 274 407 c 0
 215 407 152 392 85 363 c 1
 70 481 l 1
 118 502 167 516 218 523 c 1
 197 538 181 558 171 582 c 0
 161 608 158 635 163 665 c 0
 168 694 179 722 196 746 c 0
 214 772 236 791 262 806 c 0
 288 821 315 828 344 828 c 0
 372 828 396 821 418 806 c 0
 438 791 454 772 464 746 c 0
 473 722 476 694 472 665 c 0
 467 636 456 608 438 584 c 0
 421 558 400 539 375 525 c 1
 425 516 459 496 477 464 c 0
284 708 m 0
 271 697 264 682 261 665 c 0
 258 648 262 634 270 622 c 0
 280 611 292 605 308 605 c 0
 324 605 338 611 352 622 c 0
 364 634 372 648 375 665 c 0
 378 682 374 696 365 708 c 0
 356 719 343 725 327 725 c 0
 311 725 297 719 284 708 c 0
275 135 m 0
 296 152 309 173 313 198 c 2
 319 234 l 1
 290 234 l 2
 203 234 156 211 149 165 c 0
 146 148 150 134 160 124 c 0
 169 114 184 109 203 109 c 0
 230 109 254 118 275 135 c 0
EndSplineSet
EndChar

StartChar: aringacute
Encoding: 507 507 224
Width: 534
Flags: W
LayerCount: 2
Fore
SplineSet
477 464 m 0
 495 432 499 385 489 322 c 2
 438 0 l 1
 289 0 l 1
 297 63 l 1
 295 63 l 1
 274 40 249 22 221 9 c 0
 193 -4 164 -10 134 -10 c 0
 87 -10 51 4 27 34 c 0
 3 62 -5 101 2 148 c 0
 11 207 42 253 96 285 c 0
 148 317 219 333 306 333 c 2
 334 333 l 1
 338 362 336 382 328 392 c 0
 320 402 302 407 274 407 c 0
 215 407 152 392 85 363 c 1
 70 481 l 1
 118 502 167 516 218 523 c 1
 197 538 181 558 171 582 c 0
 161 608 158 635 163 665 c 0
 167 689 175 712 188 732 c 0
 200 754 215 772 234 787 c 1
 334 993 l 1
 523 993 l 1
 399 817 l 1
 426 805 446 785 460 758 c 0
 473 730 477 699 472 665 c 0
 467 636 456 608 438 584 c 0
 421 558 400 539 375 525 c 1
 425 516 459 496 477 464 c 0
352 622 m 0
 364 634 372 648 375 665 c 0
 378 682 374 696 365 708 c 0
 356 719 343 725 327 725 c 0
 311 725 297 719 284 708 c 0
 271 697 264 682 261 665 c 0
 258 648 262 634 270 622 c 0
 280 611 292 605 308 605 c 0
 324 605 338 611 352 622 c 0
275 135 m 0
 296 152 309 173 313 198 c 2
 319 234 l 1
 290 234 l 2
 203 234 156 211 149 165 c 0
 146 148 150 134 160 124 c 0
 169 114 184 109 203 109 c 0
 230 109 254 118 275 135 c 0
EndSplineSet
EndChar

StartChar: atilde
Encoding: 227 227 225
Width: 570
Flags: W
LayerCount: 2
Fore
SplineSet
464 482 m 0
 493 450 501 397 489 322 c 2
 438 0 l 1
 290 0 l 1
 298 63 l 1
 296 63 l 1
 275 40 250 22 222 9 c 0
 193 -4 164 -10 134 -10 c 0
 87 -10 51 4 27 34 c 0
 3 62 -5 101 2 148 c 0
 11 207 42 253 96 285 c 0
 148 317 219 333 306 333 c 2
 335 333 l 1
 339 362 337 382 328 392 c 0
 320 402 302 407 275 407 c 0
 216 407 152 392 85 363 c 1
 70 481 l 1
 106 497 144 509 185 518 c 0
 226 526 266 530 306 530 c 0
 383 530 436 514 464 482 c 0
276 135 m 0
 297 152 310 173 313 198 c 2
 319 234 l 1
 291 234 l 2
 204 234 156 211 149 165 c 0
 146 148 150 134 160 124 c 0
 169 114 184 109 203 109 c 0
 230 109 254 118 276 135 c 0
298 608 m 0
 275 624 256 632 242 632 c 0
 233 632 226 628 221 619 c 0
 216 610 212 594 208 569 c 1
 79 569 l 1
 90 638 107 688 130 722 c 0
 154 754 185 771 223 771 c 0
 260 771 302 755 351 722 c 0
 374 706 393 698 406 698 c 0
 415 698 422 702 428 711 c 0
 432 720 437 736 440 761 c 1
 570 761 l 1
 559 692 542 642 518 608 c 0
 494 576 463 559 424 559 c 0
 389 559 347 575 298 608 c 0
EndSplineSet
EndChar

StartChar: ae
Encoding: 230 230 226
Width: 843
Flags: W
LayerCount: 2
Fore
SplineSet
800 205 m 1
 470 205 l 1
 468 172 476 148 496 133 c 0
 514 118 545 110 588 110 c 0
 638 110 686 119 733 137 c 1
 738 23 l 1
 714 12 686 4 654 -2 c 0
 623 -7 591 -10 560 -10 c 0
 472 -10 408 12 368 55 c 1
 315 12 250 -10 173 -10 c 0
 108 -10 62 3 33 30 c 0
 4 57 -6 96 2 148 c 0
 11 207 42 253 96 285 c 0
 148 317 219 333 306 333 c 2
 335 333 l 1
 339 362 337 382 328 392 c 0
 320 402 302 407 275 407 c 0
 216 407 152 392 85 363 c 1
 70 481 l 1
 106 497 144 509 185 518 c 0
 226 526 266 530 307 530 c 0
 380 530 430 516 458 487 c 1
 504 516 556 530 615 530 c 0
 692 530 747 507 782 461 c 0
 816 415 827 350 814 267 c 0
 809 240 805 220 800 205 c 1
527 391 m 0
 509 374 496 347 487 310 c 1
 672 310 l 1
 675 347 670 374 658 391 c 0
 646 408 626 417 597 417 c 0
 568 417 545 408 527 391 c 0
276 135 m 0
 297 152 310 173 313 198 c 2
 319 234 l 1
 291 234 l 2
 204 234 156 211 149 165 c 0
 146 148 150 134 160 124 c 0
 169 114 184 109 203 109 c 0
 230 109 254 118 276 135 c 0
EndSplineSet
EndChar

StartChar: aeacute
Encoding: 509 509 227
Width: 892
Flags: W
LayerCount: 2
Fore
SplineSet
800 205 m 1
 470 205 l 1
 468 172 476 148 496 133 c 0
 514 118 545 110 588 110 c 0
 638 110 686 119 733 137 c 1
 738 23 l 1
 714 12 686 4 654 -2 c 0
 623 -7 591 -10 560 -10 c 0
 472 -10 408 12 368 55 c 1
 315 12 250 -10 173 -10 c 0
 108 -10 62 3 33 30 c 0
 4 57 -6 96 2 148 c 0
 11 207 42 253 96 285 c 0
 148 317 219 333 306 333 c 2
 335 333 l 1
 339 362 337 382 328 392 c 0
 320 402 302 407 275 407 c 0
 216 407 152 392 85 363 c 1
 70 481 l 1
 106 497 144 509 185 518 c 0
 226 526 266 530 307 530 c 0
 380 530 430 516 458 487 c 1
 504 516 556 530 615 530 c 0
 692 530 747 507 782 461 c 0
 816 415 827 350 814 267 c 0
 809 240 805 220 800 205 c 1
527 391 m 0
 509 374 496 347 487 310 c 1
 672 310 l 1
 675 347 670 374 658 391 c 0
 646 408 626 417 597 417 c 0
 568 417 545 408 527 391 c 0
276 135 m 0
 297 152 310 173 313 198 c 2
 319 234 l 1
 291 234 l 2
 204 234 156 211 149 165 c 0
 146 148 150 134 160 124 c 0
 169 114 184 109 203 109 c 0
 230 109 254 118 276 135 c 0
555 560 m 1
 408 560 l 1
 512 770 l 1
 708 770 l 1
 555 560 l 1
EndSplineSet
EndChar

StartChar: b
Encoding: 98 98 228
Width: 585
Flags: W
LayerCount: 2
Fore
SplineSet
532 460 m 0
 558 414 563 347 549 260 c 0
 535 173 508 106 469 60 c 0
 430 13 380 -10 319 -10 c 0
 258 -10 210 15 175 64 c 1
 173 64 l 1
 162 0 l 1
 12 0 l 1
 131 750 l 1
 288 750 l 1
 242 456 l 1
 243 456 l 1
 290 505 344 530 405 530 c 0
 465 530 508 507 532 460 c 0
355 156 m 0
 374 181 388 215 395 260 c 0
 402 305 400 339 388 364 c 0
 376 388 356 400 328 400 c 0
 300 400 275 388 254 366 c 0
 233 342 219 312 213 274 c 2
 208 246 l 2
 202 208 206 178 220 154 c 0
 235 132 256 120 283 120 c 0
 312 120 336 132 355 156 c 0
EndSplineSet
EndChar

StartChar: c
Encoding: 99 99 229
Width: 512
Flags: W
LayerCount: 2
Fore
SplineSet
65 60 m 0
 25 107 12 173 25 260 c 0
 39 347 74 413 128 460 c 0
 184 507 255 530 343 530 c 0
 403 530 456 517 502 491 c 1
 444 375 l 1
 409 396 372 407 333 407 c 0
 292 407 258 394 234 370 c 0
 208 344 192 308 184 260 c 0
 177 212 182 176 199 150 c 0
 216 126 245 113 286 113 c 0
 325 113 365 124 407 145 c 1
 429 29 l 1
 375 3 318 -10 257 -10 c 0
 169 -10 105 13 65 60 c 0
EndSplineSet
EndChar

StartChar: cacute
Encoding: 263 263 230
Width: 545
Flags: W
LayerCount: 2
Fore
SplineSet
65 60 m 0
 25 107 12 173 25 260 c 0
 39 347 74 413 128 460 c 0
 184 507 255 530 343 530 c 0
 403 530 456 517 502 491 c 1
 444 375 l 1
 409 396 372 407 333 407 c 0
 292 407 258 394 234 370 c 0
 208 344 192 308 184 260 c 0
 177 212 182 176 199 150 c 0
 216 126 245 113 286 113 c 0
 325 113 365 124 407 145 c 1
 429 29 l 1
 375 3 318 -10 257 -10 c 0
 169 -10 105 13 65 60 c 0
398 560 m 1
 251 560 l 1
 355 770 l 1
 551 770 l 1
 398 560 l 1
EndSplineSet
EndChar

StartChar: ccaron
Encoding: 269 269 231
Width: 545
Flags: W
LayerCount: 2
Fore
SplineSet
65 60 m 0
 25 107 12 173 25 260 c 0
 39 347 74 413 128 460 c 0
 184 507 255 530 343 530 c 0
 403 530 456 517 502 491 c 1
 444 375 l 1
 409 396 372 407 333 407 c 0
 292 407 258 394 234 370 c 0
 208 344 192 308 184 260 c 0
 177 212 182 176 199 150 c 0
 216 126 245 113 286 113 c 0
 325 113 365 124 407 145 c 1
 429 29 l 1
 375 3 318 -10 257 -10 c 0
 169 -10 105 13 65 60 c 0
121 770 m 1
 301 770 l 1
 346 623 l 1
 348 623 l 1
 438 770 l 1
 619 770 l 1
 466 560 l 1
 207 560 l 1
 121 770 l 1
EndSplineSet
EndChar

StartChar: ccedilla
Encoding: 231 231 232
Width: 511
Flags: W
LayerCount: 2
Fore
SplineSet
427 29 m 1
 402 17 378 8 354 2 c 1
 373 -29 381 -61 376 -92 c 0
 369 -133 348 -164 312 -186 c 0
 276 -208 229 -219 170 -219 c 0
 127 -219 89 -212 58 -199 c 1
 92 -80 l 1
 118 -93 147 -100 179 -100 c 0
 196 -100 210 -97 220 -92 c 0
 229 -87 235 -79 237 -69 c 0
 240 -47 222 -25 181 -3 c 1
 119 10 75 38 48 84 c 0
 21 128 14 187 25 260 c 0
 39 347 73 413 128 460 c 0
 183 507 254 530 342 530 c 0
 402 530 455 517 500 491 c 1
 442 375 l 1
 407 396 370 407 332 407 c 0
 291 407 258 394 234 370 c 0
 208 344 192 308 184 260 c 0
 177 212 182 176 198 150 c 0
 216 126 245 113 286 113 c 0
 325 113 365 124 406 145 c 1
 427 29 l 1
EndSplineSet
EndChar

StartChar: ccircumflex
Encoding: 265 265 233
Width: 545
Flags: W
LayerCount: 2
Fore
SplineSet
65 60 m 0
 25 107 12 173 25 260 c 0
 39 347 74 413 128 460 c 0
 184 507 255 530 343 530 c 0
 403 530 456 517 502 491 c 1
 444 375 l 1
 409 396 372 407 333 407 c 0
 292 407 258 394 234 370 c 0
 208 344 192 308 184 260 c 0
 177 212 182 176 199 150 c 0
 216 126 245 113 286 113 c 0
 325 113 365 124 407 145 c 1
 429 29 l 1
 375 3 318 -10 257 -10 c 0
 169 -10 105 13 65 60 c 0
240 770 m 1
 499 770 l 1
 586 560 l 1
 405 560 l 1
 361 707 l 1
 359 707 l 1
 268 560 l 1
 88 560 l 1
 240 770 l 1
EndSplineSet
EndChar

StartChar: cdotaccent
Encoding: 267 267 234
Width: 545
Flags: W
LayerCount: 2
Fore
SplineSet
65 60 m 0
 25 107 12 173 25 260 c 0
 39 347 74 413 128 460 c 0
 184 507 255 530 343 530 c 0
 403 530 456 517 502 491 c 1
 444 375 l 1
 409 396 372 407 333 407 c 0
 292 407 258 394 234 370 c 0
 208 344 192 308 184 260 c 0
 177 212 182 176 199 150 c 0
 216 126 245 113 286 113 c 0
 325 113 365 124 407 145 c 1
 429 29 l 1
 375 3 318 -10 257 -10 c 0
 169 -10 105 13 65 60 c 0
297 749 m 1
 462 749 l 1
 435 581 l 1
 271 581 l 1
 297 749 l 1
EndSplineSet
EndChar

StartChar: d
Encoding: 100 100 235
Width: 585
Flags: W
LayerCount: 2
Fore
SplineSet
602 750 m 1
 483 0 l 1
 334 0 l 1
 343 64 l 1
 341 64 l 1
 290 15 233 -10 172 -10 c 0
 112 -10 70 13 45 60 c 0
 20 106 15 173 29 260 c 0
 43 347 70 414 109 460 c 0
 148 507 198 530 258 530 c 0
 319 530 366 505 397 456 c 1
 398 456 l 1
 445 750 l 1
 602 750 l 1
324 154 m 0
 345 178 359 208 365 246 c 2
 370 274 l 2
 376 312 372 342 358 366 c 0
 343 388 322 400 295 400 c 0
 266 400 242 388 223 364 c 0
 204 339 190 305 183 260 c 0
 176 215 178 181 190 156 c 0
 201 132 221 120 250 120 c 0
 278 120 303 132 324 154 c 0
EndSplineSet
EndChar

StartChar: eth
Encoding: 240 240 236
Width: 574
Flags: W
LayerCount: 2
Fore
SplineSet
534 274 m 0
 504 85 404 -10 235 -10 c 0
 156 -10 98 13 60 58 c 0
 23 104 10 167 23 248 c 0
 34 321 64 378 110 419 c 0
 158 460 217 480 290 480 c 0
 330 480 362 473 387 458 c 1
 389 459 l 1
 389 496 380 530 361 561 c 1
 144 475 l 1
 116 590 l 1
 259 647 l 1
 227 662 190 670 149 673 c 1
 199 790 l 1
 291 783 365 757 421 710 c 1
 559 765 l 1
 587 650 l 1
 498 615 l 1
 544 528 556 414 534 274 c 0
374 248 m 0
 381 293 379 326 366 348 c 0
 354 369 331 380 297 380 c 0
 264 380 237 369 218 348 c 0
 199 326 185 293 178 248 c 0
 163 156 189 110 254 110 c 0
 319 110 359 156 374 248 c 0
EndSplineSet
EndChar

StartChar: dcaron
Encoding: 271 271 237
Width: 859
Flags: W
LayerCount: 2
Fore
SplineSet
602 750 m 1
 483 0 l 1
 334 0 l 1
 343 64 l 1
 341 64 l 1
 290 15 233 -10 172 -10 c 0
 112 -10 70 13 45 60 c 0
 20 106 15 173 29 260 c 0
 43 347 70 414 109 460 c 0
 148 507 198 530 258 530 c 0
 319 530 366 505 397 456 c 1
 398 456 l 1
 445 750 l 1
 602 750 l 1
324 154 m 0
 345 178 359 208 365 246 c 2
 370 274 l 2
 376 312 372 342 358 366 c 0
 343 388 322 400 295 400 c 0
 266 400 242 388 223 364 c 0
 204 339 190 305 183 260 c 0
 176 215 178 181 190 156 c 0
 201 132 221 120 250 120 c 0
 278 120 303 132 324 154 c 0
737 770 m 1
 917 770 l 1
 753 470 l 1
 622 470 l 1
 737 770 l 1
EndSplineSet
EndChar

StartChar: dcroat
Encoding: 273 273 238
Width: 646
Flags: W
LayerCount: 2
Fore
SplineSet
670 563 m 1
 572 563 l 1
 483 0 l 1
 334 0 l 1
 343 64 l 1
 341 64 l 1
 290 15 233 -10 172 -10 c 0
 112 -10 70 13 45 60 c 0
 20 106 15 173 29 260 c 0
 43 347 70 414 109 460 c 0
 148 507 198 530 258 530 c 0
 319 530 366 505 397 456 c 1
 398 456 l 1
 415 563 l 1
 273 563 l 1
 293 687 l 1
 435 687 l 1
 445 750 l 1
 602 750 l 1
 592 687 l 1
 690 687 l 1
 670 563 l 1
324 154 m 0
 345 178 359 208 365 246 c 2
 370 274 l 2
 376 312 372 342 358 366 c 0
 343 388 322 400 295 400 c 0
 266 400 242 388 223 364 c 0
 204 339 190 305 183 260 c 0
 176 215 178 181 190 156 c 0
 201 132 221 120 250 120 c 0
 278 120 303 132 324 154 c 0
EndSplineSet
EndChar

StartChar: uni01C6
Encoding: 454 454 239
Width: 1184
Flags: W
LayerCount: 2
Fore
SplineSet
602 750 m 1
 483 0 l 1
 334 0 l 1
 343 64 l 1
 341 64 l 1
 290 15 233 -10 172 -10 c 0
 112 -10 70 13 45 60 c 0
 20 106 15 173 29 260 c 0
 43 347 70 414 109 460 c 0
 148 507 198 530 258 530 c 0
 319 530 366 505 397 456 c 1
 398 456 l 1
 445 750 l 1
 602 750 l 1
324 154 m 0
 345 178 359 208 365 246 c 2
 370 274 l 2
 376 312 372 342 358 366 c 0
 343 388 322 400 295 400 c 0
 266 400 242 388 223 364 c 0
 204 339 190 305 183 260 c 0
 176 215 178 181 190 156 c 0
 201 132 221 120 250 120 c 0
 278 120 303 132 324 154 c 0
647 123 m 1
 922 395 l 1
 922 397 l 1
 690 397 l 1
 710 520 l 1
 1141 520 l 1
 1121 397 l 1
 847 125 l 1
 846 123 l 1
 1078 123 l 1
 1059 0 l 1
 627 0 l 1
 647 123 l 1
735 770 m 1
 915 770 l 1
 960 623 l 1
 962 623 l 1
 1052 770 l 1
 1233 770 l 1
 1080 560 l 1
 821 560 l 1
 735 770 l 1
EndSplineSet
EndChar

StartChar: e
Encoding: 101 101 240
Width: 540
Flags: W
LayerCount: 2
Fore
SplineSet
498 205 m 1
 171 205 l 1
 170 172 179 148 198 133 c 0
 217 118 249 110 292 110 c 0
 339 110 386 118 431 135 c 1
 437 20 l 1
 414 11 386 3 356 -2 c 0
 324 -7 294 -10 264 -10 c 0
 173 -10 108 13 66 60 c 0
 26 106 12 173 25 260 c 0
 38 345 71 411 122 458 c 0
 173 506 238 530 315 530 c 0
 390 530 445 507 479 461 c 0
 513 415 524 350 511 267 c 0
 506 237 502 216 498 205 c 1
228 391 m 0
 210 374 196 347 187 310 c 1
 371 310 l 1
 374 347 369 374 357 391 c 0
 345 408 325 417 297 417 c 0
 268 417 245 408 228 391 c 0
EndSplineSet
EndChar

StartChar: eacute
Encoding: 233 233 241
Width: 577
Flags: W
LayerCount: 2
Fore
SplineSet
498 205 m 1
 171 205 l 1
 170 172 179 148 198 133 c 0
 217 118 249 110 292 110 c 0
 339 110 386 118 431 135 c 1
 437 20 l 1
 414 11 386 3 356 -2 c 0
 324 -7 294 -10 264 -10 c 0
 173 -10 108 13 66 60 c 0
 26 106 12 173 25 260 c 0
 38 345 71 411 122 458 c 0
 173 506 238 530 315 530 c 0
 390 530 445 507 479 461 c 0
 513 415 524 350 511 267 c 0
 506 237 502 216 498 205 c 1
228 391 m 0
 210 374 196 347 187 310 c 1
 371 310 l 1
 374 347 369 374 357 391 c 0
 345 408 325 417 297 417 c 0
 268 417 245 408 228 391 c 0
402 560 m 1
 255 560 l 1
 359 770 l 1
 555 770 l 1
 402 560 l 1
EndSplineSet
EndChar

StartChar: ebreve
Encoding: 277 277 242
Width: 577
Flags: W
LayerCount: 2
Fore
SplineSet
498 205 m 1
 171 205 l 1
 170 172 179 148 198 133 c 0
 217 118 249 110 292 110 c 0
 339 110 386 118 431 135 c 1
 437 20 l 1
 414 11 386 3 356 -2 c 0
 324 -7 294 -10 264 -10 c 0
 173 -10 108 13 66 60 c 0
 26 106 12 173 25 260 c 0
 38 345 71 411 122 458 c 0
 173 506 238 530 315 530 c 0
 390 530 445 507 479 461 c 0
 513 415 524 350 511 267 c 0
 506 237 502 216 498 205 c 1
228 391 m 0
 210 374 196 347 187 310 c 1
 371 310 l 1
 374 347 369 374 357 391 c 0
 345 408 325 417 297 417 c 0
 268 417 245 408 228 391 c 0
223 584 m 0
 191 601 168 625 152 656 c 0
 138 687 133 722 138 761 c 1
 288 761 l 1
 287 731 291 709 302 694 c 0
 313 680 330 673 355 673 c 0
 379 673 399 680 414 694 c 0
 429 709 441 731 450 761 c 1
 599 761 l 1
 592 722 576 687 552 656 c 0
 526 625 495 601 458 584 c 0
 421 567 380 558 337 558 c 0
 293 558 255 567 223 584 c 0
EndSplineSet
EndChar

StartChar: ecaron
Encoding: 283 283 243
Width: 577
Flags: W
LayerCount: 2
Fore
SplineSet
498 205 m 1
 171 205 l 1
 170 172 179 148 198 133 c 0
 217 118 249 110 292 110 c 0
 339 110 386 118 431 135 c 1
 437 20 l 1
 414 11 386 3 356 -2 c 0
 324 -7 294 -10 264 -10 c 0
 173 -10 108 13 66 60 c 0
 26 106 12 173 25 260 c 0
 38 345 71 411 122 458 c 0
 173 506 238 530 315 530 c 0
 390 530 445 507 479 461 c 0
 513 415 524 350 511 267 c 0
 506 237 502 216 498 205 c 1
228 391 m 0
 210 374 196 347 187 310 c 1
 371 310 l 1
 374 347 369 374 357 391 c 0
 345 408 325 417 297 417 c 0
 268 417 245 408 228 391 c 0
125 770 m 1
 305 770 l 1
 350 623 l 1
 352 623 l 1
 442 770 l 1
 623 770 l 1
 470 560 l 1
 211 560 l 1
 125 770 l 1
EndSplineSet
EndChar

StartChar: ecircumflex
Encoding: 234 234 244
Width: 577
Flags: W
LayerCount: 2
Fore
SplineSet
498 205 m 1
 171 205 l 1
 170 172 179 148 198 133 c 0
 217 118 249 110 292 110 c 0
 339 110 386 118 431 135 c 1
 437 20 l 1
 414 11 386 3 356 -2 c 0
 324 -7 294 -10 264 -10 c 0
 173 -10 108 13 66 60 c 0
 26 106 12 173 25 260 c 0
 38 345 71 411 122 458 c 0
 173 506 238 530 315 530 c 0
 390 530 445 507 479 461 c 0
 513 415 524 350 511 267 c 0
 506 237 502 216 498 205 c 1
228 391 m 0
 210 374 196 347 187 310 c 1
 371 310 l 1
 374 347 369 374 357 391 c 0
 345 408 325 417 297 417 c 0
 268 417 245 408 228 391 c 0
244 770 m 1
 503 770 l 1
 590 560 l 1
 409 560 l 1
 365 707 l 1
 363 707 l 1
 272 560 l 1
 92 560 l 1
 244 770 l 1
EndSplineSet
EndChar

StartChar: uni1EBF
Encoding: 7871 7871 245
Width: 545
Flags: W
LayerCount: 2
Fore
SplineSet
737 950 m 1
 588 740 l 1
 488 740 l 1
 558 560 l 1
 385 560 l 1
 343 707 l 1
 341 707 l 1
 253 560 l 1
 80 560 l 1
 228 770 l 1
 461 770 l 1
 548 950 l 1
 737 950 l 1
479 461 m 0
 513 415 524 350 511 267 c 0
 506 237 502 216 498 205 c 1
 171 205 l 1
 170 172 179 148 198 133 c 0
 217 118 249 110 292 110 c 0
 339 110 386 118 431 135 c 1
 437 20 l 1
 414 11 386 3 356 -2 c 0
 324 -7 294 -10 264 -10 c 0
 173 -10 108 13 66 60 c 0
 26 106 12 173 25 260 c 0
 38 345 71 411 122 458 c 0
 173 506 238 530 315 530 c 0
 390 530 445 507 479 461 c 0
228 391 m 0
 210 374 196 347 187 310 c 1
 371 310 l 1
 374 347 369 374 357 391 c 0
 345 408 325 417 297 417 c 0
 268 417 245 408 228 391 c 0
EndSplineSet
EndChar

StartChar: uni1EC7
Encoding: 7879 7879 246
Width: 577
Flags: W
LayerCount: 2
Fore
SplineSet
498 205 m 1
 171 205 l 1
 170 172 179 148 198 133 c 0
 217 118 249 110 292 110 c 0
 339 110 386 118 431 135 c 1
 437 20 l 1
 414 11 386 3 356 -2 c 0
 324 -7 294 -10 264 -10 c 0
 173 -10 108 13 66 60 c 0
 26 106 12 173 25 260 c 0
 38 345 71 411 122 458 c 0
 173 506 238 530 315 530 c 0
 390 530 445 507 479 461 c 0
 513 415 524 350 511 267 c 0
 506 237 502 216 498 205 c 1
228 391 m 0
 210 374 196 347 187 310 c 1
 371 310 l 1
 374 347 369 374 357 391 c 0
 345 408 325 417 297 417 c 0
 268 417 245 408 228 391 c 0
173 -61 m 1
 338 -61 l 1
 311 -229 l 1
 147 -229 l 1
 173 -61 l 1
244 770 m 1
 503 770 l 1
 590 560 l 1
 409 560 l 1
 365 707 l 1
 363 707 l 1
 272 560 l 1
 92 560 l 1
 244 770 l 1
EndSplineSet
EndChar

StartChar: uni1EC1
Encoding: 7873 7873 247
Width: 545
Flags: W
LayerCount: 2
Fore
SplineSet
212 740 m 1
 112 740 l 1
 29 950 l 1
 218 950 l 1
 248 770 l 1
 481 770 l 1
 563 560 l 1
 390 560 l 1
 348 707 l 1
 346 707 l 1
 258 560 l 1
 85 560 l 1
 212 740 l 1
484 461 m 0
 518 415 528 350 515 267 c 0
 510 237 506 216 503 205 c 1
 175 205 l 1
 174 172 183 148 202 133 c 0
 222 118 254 110 297 110 c 0
 344 110 391 118 436 135 c 1
 441 20 l 1
 418 11 390 3 360 -2 c 0
 328 -7 298 -10 268 -10 c 0
 177 -10 112 13 70 60 c 0
 30 106 16 173 30 260 c 0
 43 345 76 411 126 458 c 0
 178 506 242 530 320 530 c 0
 395 530 450 507 484 461 c 0
232 391 m 0
 214 374 201 347 192 310 c 1
 375 310 l 1
 378 347 373 374 361 391 c 0
 349 408 329 417 302 417 c 0
 273 417 250 408 232 391 c 0
EndSplineSet
EndChar

StartChar: uni1EC3
Encoding: 7875 7875 248
Width: 541
Flags: W
LayerCount: 2
Fore
SplineSet
488 740 m 1
 558 560 l 1
 385 560 l 1
 343 707 l 1
 341 707 l 1
 253 560 l 1
 80 560 l 1
 228 770 l 1
 462 770 l 1
 466 782 469 793 470 802 c 0
 472 815 470 823 464 828 c 0
 458 832 445 834 426 834 c 0
 382 834 335 826 286 811 c 1
 293 930 l 1
 320 936 349 941 380 944 c 0
 411 948 441 950 468 950 c 0
 513 950 548 947 572 942 c 0
 595 937 611 928 620 914 c 0
 628 902 630 883 626 859 c 0
 623 841 618 821 610 798 c 0
 603 776 594 757 585 740 c 1
 488 740 l 1
479 461 m 0
 513 415 524 350 511 267 c 0
 506 237 502 216 498 205 c 1
 171 205 l 1
 170 172 179 148 198 133 c 0
 217 118 249 110 292 110 c 0
 339 110 386 118 431 135 c 1
 437 20 l 1
 414 11 386 3 356 -2 c 0
 324 -7 294 -10 264 -10 c 0
 173 -10 108 13 66 60 c 0
 26 106 12 173 25 260 c 0
 38 345 71 411 122 458 c 0
 173 506 238 530 315 530 c 0
 390 530 445 507 479 461 c 0
228 391 m 0
 210 374 196 347 187 310 c 1
 371 310 l 1
 374 347 369 374 357 391 c 0
 345 408 325 417 297 417 c 0
 268 417 245 408 228 391 c 0
EndSplineSet
EndChar

StartChar: uni1EC5
Encoding: 7877 7877 249
Width: 577
Flags: W
LayerCount: 2
Fore
SplineSet
498 205 m 1
 171 205 l 1
 170 172 179 148 198 133 c 0
 217 118 249 110 292 110 c 0
 339 110 386 118 431 135 c 1
 437 20 l 1
 414 11 386 3 356 -2 c 0
 324 -7 294 -10 264 -10 c 0
 173 -10 108 13 66 60 c 0
 26 106 12 173 25 260 c 0
 38 345 71 411 122 458 c 0
 173 506 238 530 315 530 c 0
 390 530 445 507 479 461 c 0
 513 415 524 350 511 267 c 0
 506 237 502 216 498 205 c 1
228 391 m 0
 210 374 196 347 187 310 c 1
 371 310 l 1
 374 347 369 374 357 391 c 0
 345 408 325 417 297 417 c 0
 268 417 245 408 228 391 c 0
244 770 m 1
 503 770 l 1
 590 560 l 1
 409 560 l 1
 365 707 l 1
 363 707 l 1
 272 560 l 1
 92 560 l 1
 244 770 l 1
356 845 m 0
 333 861 314 869 300 869 c 0
 291 869 284 865 279 856 c 0
 274 847 270 831 266 806 c 1
 137 806 l 1
 148 875 165 926 188 958 c 0
 212 992 243 1008 281 1008 c 0
 318 1008 360 992 409 959 c 0
 432 943 451 935 464 935 c 0
 473 935 480 939 486 948 c 0
 490 957 495 973 498 998 c 1
 628 998 l 1
 617 929 600 878 576 846 c 0
 552 812 521 796 482 796 c 0
 447 796 405 812 356 845 c 0
EndSplineSet
EndChar

StartChar: uni0205
Encoding: 517 517 250
Width: 577
Flags: W
LayerCount: 2
Fore
SplineSet
498 205 m 1
 171 205 l 1
 170 172 179 148 198 133 c 0
 217 118 249 110 292 110 c 0
 339 110 386 118 431 135 c 1
 437 20 l 1
 414 11 386 3 356 -2 c 0
 324 -7 294 -10 264 -10 c 0
 173 -10 108 13 66 60 c 0
 26 106 12 173 25 260 c 0
 38 345 71 411 122 458 c 0
 173 506 238 530 315 530 c 0
 390 530 445 507 479 461 c 0
 513 415 524 350 511 267 c 0
 506 237 502 216 498 205 c 1
228 391 m 0
 210 374 196 347 187 310 c 1
 371 310 l 1
 374 347 369 374 357 391 c 0
 345 408 325 417 297 417 c 0
 268 417 245 408 228 391 c 0
50 770 m 1
 246 770 l 1
 284 560 l 1
 137 560 l 1
 50 770 l 1
300 770 m 1
 496 770 l 1
 534 560 l 1
 387 560 l 1
 300 770 l 1
EndSplineSet
EndChar

StartChar: edieresis
Encoding: 235 235 251
Width: 577
Flags: W
LayerCount: 2
Fore
SplineSet
498 205 m 1
 171 205 l 1
 170 172 179 148 198 133 c 0
 217 118 249 110 292 110 c 0
 339 110 386 118 431 135 c 1
 437 20 l 1
 414 11 386 3 356 -2 c 0
 324 -7 294 -10 264 -10 c 0
 173 -10 108 13 66 60 c 0
 26 106 12 173 25 260 c 0
 38 345 71 411 122 458 c 0
 173 506 238 530 315 530 c 0
 390 530 445 507 479 461 c 0
 513 415 524 350 511 267 c 0
 506 237 502 216 498 205 c 1
228 391 m 0
 210 374 196 347 187 310 c 1
 371 310 l 1
 374 347 369 374 357 391 c 0
 345 408 325 417 297 417 c 0
 268 417 245 408 228 391 c 0
153 749 m 1
 318 749 l 1
 291 581 l 1
 126 581 l 1
 153 749 l 1
412 749 m 1
 577 749 l 1
 551 581 l 1
 385 581 l 1
 412 749 l 1
EndSplineSet
EndChar

StartChar: edotaccent
Encoding: 279 279 252
Width: 577
Flags: W
LayerCount: 2
Fore
SplineSet
498 205 m 1
 171 205 l 1
 170 172 179 148 198 133 c 0
 217 118 249 110 292 110 c 0
 339 110 386 118 431 135 c 1
 437 20 l 1
 414 11 386 3 356 -2 c 0
 324 -7 294 -10 264 -10 c 0
 173 -10 108 13 66 60 c 0
 26 106 12 173 25 260 c 0
 38 345 71 411 122 458 c 0
 173 506 238 530 315 530 c 0
 390 530 445 507 479 461 c 0
 513 415 524 350 511 267 c 0
 506 237 502 216 498 205 c 1
228 391 m 0
 210 374 196 347 187 310 c 1
 371 310 l 1
 374 347 369 374 357 391 c 0
 345 408 325 417 297 417 c 0
 268 417 245 408 228 391 c 0
301 749 m 1
 466 749 l 1
 439 581 l 1
 275 581 l 1
 301 749 l 1
EndSplineSet
EndChar

StartChar: uni1EB9
Encoding: 7865 7865 253
Width: 577
Flags: W
LayerCount: 2
Fore
SplineSet
498 205 m 1
 171 205 l 1
 170 172 179 148 198 133 c 0
 217 118 249 110 292 110 c 0
 339 110 386 118 431 135 c 1
 437 20 l 1
 414 11 386 3 356 -2 c 0
 324 -7 294 -10 264 -10 c 0
 173 -10 108 13 66 60 c 0
 26 106 12 173 25 260 c 0
 38 345 71 411 122 458 c 0
 173 506 238 530 315 530 c 0
 390 530 445 507 479 461 c 0
 513 415 524 350 511 267 c 0
 506 237 502 216 498 205 c 1
228 391 m 0
 210 374 196 347 187 310 c 1
 371 310 l 1
 374 347 369 374 357 391 c 0
 345 408 325 417 297 417 c 0
 268 417 245 408 228 391 c 0
173 -61 m 1
 338 -61 l 1
 311 -229 l 1
 147 -229 l 1
 173 -61 l 1
EndSplineSet
EndChar

StartChar: egrave
Encoding: 232 232 254
Width: 577
Flags: W
LayerCount: 2
Fore
SplineSet
498 205 m 1
 171 205 l 1
 170 172 179 148 198 133 c 0
 217 118 249 110 292 110 c 0
 339 110 386 118 431 135 c 1
 437 20 l 1
 414 11 386 3 356 -2 c 0
 324 -7 294 -10 264 -10 c 0
 173 -10 108 13 66 60 c 0
 26 106 12 173 25 260 c 0
 38 345 71 411 122 458 c 0
 173 506 238 530 315 530 c 0
 390 530 445 507 479 461 c 0
 513 415 524 350 511 267 c 0
 506 237 502 216 498 205 c 1
228 391 m 0
 210 374 196 347 187 310 c 1
 371 310 l 1
 374 347 369 374 357 391 c 0
 345 408 325 417 297 417 c 0
 268 417 245 408 228 391 c 0
186 770 m 1
 382 770 l 1
 420 560 l 1
 273 560 l 1
 186 770 l 1
EndSplineSet
EndChar

StartChar: uni1EBB
Encoding: 7867 7867 255
Width: 577
Flags: W
LayerCount: 2
Fore
SplineSet
498 205 m 1
 171 205 l 1
 170 172 179 148 198 133 c 0
 217 118 249 110 292 110 c 0
 339 110 386 118 431 135 c 1
 437 20 l 1
 414 11 386 3 356 -2 c 0
 324 -7 294 -10 264 -10 c 0
 173 -10 108 13 66 60 c 0
 26 106 12 173 25 260 c 0
 38 345 71 411 122 458 c 0
 173 506 238 530 315 530 c 0
 390 530 445 507 479 461 c 0
 513 415 524 350 511 267 c 0
 506 237 502 216 498 205 c 1
228 391 m 0
 210 374 196 347 187 310 c 1
 371 310 l 1
 374 347 369 374 357 391 c 0
 345 408 325 417 297 417 c 0
 268 417 245 408 228 391 c 0
407 630 m 0
 409 643 407 651 400 656 c 0
 393 660 380 662 361 662 c 0
 315 662 266 654 215 639 c 1
 221 758 l 1
 249 764 279 769 312 772 c 0
 345 776 375 778 404 778 c 0
 451 778 487 775 512 770 c 0
 536 765 552 756 562 742 c 0
 570 730 573 711 569 687 c 0
 566 669 561 649 553 626 c 0
 545 604 536 585 527 568 c 1
 386 568 l 1
 397 590 404 611 407 630 c 0
EndSplineSet
EndChar

StartChar: uni0207
Encoding: 519 519 256
Width: 577
Flags: W
LayerCount: 2
Fore
SplineSet
498 205 m 1
 171 205 l 1
 170 172 179 148 198 133 c 0
 217 118 249 110 292 110 c 0
 339 110 386 118 431 135 c 1
 437 20 l 1
 414 11 386 3 356 -2 c 0
 324 -7 294 -10 264 -10 c 0
 173 -10 108 13 66 60 c 0
 26 106 12 173 25 260 c 0
 38 345 71 411 122 458 c 0
 173 506 238 530 315 530 c 0
 390 530 445 507 479 461 c 0
 513 415 524 350 511 267 c 0
 506 237 502 216 498 205 c 1
228 391 m 0
 210 374 196 347 187 310 c 1
 371 310 l 1
 374 347 369 374 357 391 c 0
 345 408 325 417 297 417 c 0
 268 417 245 408 228 391 c 0
474 746 m 0
 506 729 530 705 544 674 c 0
 560 643 564 608 559 569 c 1
 410 569 l 1
 411 599 406 621 394 636 c 0
 384 650 366 657 342 657 c 0
 318 657 298 650 283 636 c 0
 268 621 256 599 248 569 c 1
 98 569 l 1
 105 608 120 643 146 674 c 0
 170 705 202 729 239 746 c 0
 276 763 317 772 360 772 c 0
 404 772 442 763 474 746 c 0
EndSplineSet
EndChar

StartChar: emacron
Encoding: 275 275 257
Width: 577
Flags: W
LayerCount: 2
Fore
SplineSet
498 205 m 1
 171 205 l 1
 170 172 179 148 198 133 c 0
 217 118 249 110 292 110 c 0
 339 110 386 118 431 135 c 1
 437 20 l 1
 414 11 386 3 356 -2 c 0
 324 -7 294 -10 264 -10 c 0
 173 -10 108 13 66 60 c 0
 26 106 12 173 25 260 c 0
 38 345 71 411 122 458 c 0
 173 506 238 530 315 530 c 0
 390 530 445 507 479 461 c 0
 513 415 524 350 511 267 c 0
 506 237 502 216 498 205 c 1
228 391 m 0
 210 374 196 347 187 310 c 1
 371 310 l 1
 374 347 369 374 357 391 c 0
 345 408 325 417 297 417 c 0
 268 417 245 408 228 391 c 0
200 726 m 1
 598 726 l 1
 578 604 l 1
 181 604 l 1
 200 726 l 1
EndSplineSet
EndChar

StartChar: eogonek
Encoding: 281 281 258
Width: 542
Flags: W
LayerCount: 2
Fore
SplineSet
492 -178 m 1
 457 -191 417 -198 374 -198 c 0
 315 -198 271 -187 242 -165 c 0
 213 -143 202 -112 209 -71 c 0
 212 -49 221 -28 234 -9 c 1
 153 -4 95 21 60 68 c 0
 24 114 12 178 25 260 c 0
 38 345 71 411 122 458 c 0
 173 506 238 530 315 530 c 0
 390 530 445 507 479 461 c 0
 513 415 524 350 511 267 c 0
 506 237 502 216 498 205 c 1
 171 205 l 1
 170 172 179 148 198 133 c 0
 217 118 249 110 292 110 c 0
 339 110 386 118 431 135 c 1
 437 21 l 1
 438 21 l 1
 438 20 l 1
 437 20 l 2
 434 19 432 18 431 18 c 0
 384 -4 359 -26 355 -48 c 0
 354 -58 357 -66 366 -71 c 0
 374 -76 386 -79 403 -79 c 0
 434 -79 465 -72 496 -59 c 1
 492 -178 l 1
228 391 m 0
 210 374 196 347 187 310 c 1
 371 310 l 1
 374 347 369 374 357 391 c 0
 345 408 325 417 297 417 c 0
 268 417 245 408 228 391 c 0
EndSplineSet
EndChar

StartChar: uni1EBD
Encoding: 7869 7869 259
Width: 577
Flags: W
LayerCount: 2
Fore
SplineSet
498 205 m 1
 171 205 l 1
 170 172 179 148 198 133 c 0
 217 118 249 110 292 110 c 0
 339 110 386 118 431 135 c 1
 437 20 l 1
 414 11 386 3 356 -2 c 0
 324 -7 294 -10 264 -10 c 0
 173 -10 108 13 66 60 c 0
 26 106 12 173 25 260 c 0
 38 345 71 411 122 458 c 0
 173 506 238 530 315 530 c 0
 390 530 445 507 479 461 c 0
 513 415 524 350 511 267 c 0
 506 237 502 216 498 205 c 1
228 391 m 0
 210 374 196 347 187 310 c 1
 371 310 l 1
 374 347 369 374 357 391 c 0
 345 408 325 417 297 417 c 0
 268 417 245 408 228 391 c 0
318 608 m 0
 295 624 276 632 262 632 c 0
 253 632 246 628 241 619 c 0
 236 610 232 594 228 569 c 1
 99 569 l 1
 110 638 127 688 150 722 c 0
 174 754 205 771 243 771 c 0
 280 771 322 755 371 722 c 0
 394 706 413 698 426 698 c 0
 435 698 442 702 448 711 c 0
 452 720 457 736 460 761 c 1
 590 761 l 1
 579 692 562 642 538 608 c 0
 514 576 483 559 444 559 c 0
 409 559 367 575 318 608 c 0
EndSplineSet
EndChar

StartChar: uni0259
Encoding: 601 601 260
Width: 541
Flags: W
LayerCount: 2
Fore
SplineSet
467 460 m 0
 508 414 521 347 508 260 c 0
 495 175 462 109 411 62 c 0
 360 14 296 -10 219 -10 c 0
 143 -10 88 13 54 59 c 0
 20 105 9 170 22 253 c 0
 25 272 30 293 35 315 c 1
 362 315 l 1
 363 348 354 372 336 388 c 0
 316 402 285 410 241 410 c 0
 194 410 147 402 102 385 c 1
 96 500 l 1
 120 509 148 517 178 522 c 0
 210 527 240 530 269 530 c 0
 360 530 426 507 467 460 c 0
306 129 m 0
 322 146 336 173 345 210 c 1
 162 210 l 1
 159 173 164 146 176 129 c 0
 188 112 208 103 236 103 c 0
 265 103 288 112 306 129 c 0
EndSplineSet
EndChar

StartChar: f
Encoding: 102 102 261
Width: 465
Flags: W
LayerCount: 2
Fore
SplineSet
35 397 m 1
 55 520 l 1
 174 520 l 1
 179 552 l 2
 190 620 214 672 252 707 c 0
 290 742 340 760 402 760 c 0
 438 760 477 755 520 745 c 1
 480 622 l 1
 457 632 433 637 410 637 c 0
 388 637 372 631 362 619 c 0
 351 607 343 585 338 552 c 2
 333 520 l 1
 476 520 l 1
 456 397 l 1
 314 397 l 1
 251 0 l 1
 92 0 l 1
 155 397 l 1
 35 397 l 1
EndSplineSet
EndChar

StartChar: g
Encoding: 103 103 262
Width: 585
Flags: W
LayerCount: 2
Fore
SplineSet
565 520 m 1
 491 55 l 2
 476 -36 442 -107 386 -156 c 0
 332 -205 260 -230 173 -230 c 0
 107 -230 40 -217 -28 -190 c 1
 20 -75 l 1
 81 -96 130 -107 169 -107 c 0
 262 -107 318 -53 335 55 c 1
 336 64 l 1
 334 64 l 1
 287 15 233 -10 172 -10 c 0
 111 -10 69 13 44 60 c 0
 19 106 14 173 28 260 c 0
 42 347 69 414 108 460 c 0
 147 507 197 530 258 530 c 0
 319 530 367 505 402 456 c 1
 404 456 l 1
 416 520 l 1
 565 520 l 1
324 154 m 0
 345 178 359 208 365 246 c 2
 370 274 l 2
 376 312 372 342 358 366 c 0
 343 388 322 400 294 400 c 0
 265 400 241 388 222 364 c 0
 203 339 189 305 182 260 c 0
 175 215 177 181 189 156 c 0
 201 132 221 120 250 120 c 0
 278 120 303 132 324 154 c 0
EndSplineSet
EndChar

StartChar: gbreve
Encoding: 287 287 263
Width: 624
Flags: W
LayerCount: 2
Fore
SplineSet
565 520 m 1
 491 55 l 2
 476 -36 442 -107 386 -156 c 0
 332 -205 260 -230 173 -230 c 0
 107 -230 40 -217 -28 -190 c 1
 20 -75 l 1
 81 -96 130 -107 169 -107 c 0
 262 -107 318 -53 335 55 c 1
 336 64 l 1
 334 64 l 1
 287 15 233 -10 172 -10 c 0
 111 -10 69 13 44 60 c 0
 19 106 14 173 28 260 c 0
 42 347 69 414 108 460 c 0
 147 507 197 530 258 530 c 0
 319 530 367 505 402 456 c 1
 404 456 l 1
 416 520 l 1
 565 520 l 1
324 154 m 0
 345 178 359 208 365 246 c 2
 370 274 l 2
 376 312 372 342 358 366 c 0
 343 388 322 400 294 400 c 0
 265 400 241 388 222 364 c 0
 203 339 189 305 182 260 c 0
 175 215 177 181 189 156 c 0
 201 132 221 120 250 120 c 0
 278 120 303 132 324 154 c 0
240 584 m 0
 208 601 184 625 170 656 c 0
 154 687 150 722 155 761 c 1
 305 761 l 1
 304 731 308 709 319 694 c 0
 330 680 347 673 372 673 c 0
 396 673 416 680 431 694 c 0
 446 709 458 731 467 761 c 1
 616 761 l 1
 609 722 594 687 568 656 c 0
 544 625 512 601 475 584 c 0
 438 567 397 558 354 558 c 0
 310 558 272 567 240 584 c 0
EndSplineSet
EndChar

StartChar: gcaron
Encoding: 487 487 264
Width: 624
Flags: W
LayerCount: 2
Fore
SplineSet
565 520 m 1
 491 55 l 2
 476 -36 442 -107 386 -156 c 0
 332 -205 260 -230 173 -230 c 0
 107 -230 40 -217 -28 -190 c 1
 20 -75 l 1
 81 -96 130 -107 169 -107 c 0
 262 -107 318 -53 335 55 c 1
 336 64 l 1
 334 64 l 1
 287 15 233 -10 172 -10 c 0
 111 -10 69 13 44 60 c 0
 19 106 14 173 28 260 c 0
 42 347 69 414 108 460 c 0
 147 507 197 530 258 530 c 0
 319 530 367 505 402 456 c 1
 404 456 l 1
 416 520 l 1
 565 520 l 1
324 154 m 0
 345 178 359 208 365 246 c 2
 370 274 l 2
 376 312 372 342 358 366 c 0
 343 388 322 400 294 400 c 0
 265 400 241 388 222 364 c 0
 203 339 189 305 182 260 c 0
 175 215 177 181 189 156 c 0
 201 132 221 120 250 120 c 0
 278 120 303 132 324 154 c 0
143 770 m 1
 323 770 l 1
 368 623 l 1
 370 623 l 1
 460 770 l 1
 641 770 l 1
 488 560 l 1
 229 560 l 1
 143 770 l 1
EndSplineSet
EndChar

StartChar: gcircumflex
Encoding: 285 285 265
Width: 624
Flags: W
LayerCount: 2
Fore
SplineSet
565 520 m 1
 491 55 l 2
 476 -36 442 -107 386 -156 c 0
 332 -205 260 -230 173 -230 c 0
 107 -230 40 -217 -28 -190 c 1
 20 -75 l 1
 81 -96 130 -107 169 -107 c 0
 262 -107 318 -53 335 55 c 1
 336 64 l 1
 334 64 l 1
 287 15 233 -10 172 -10 c 0
 111 -10 69 13 44 60 c 0
 19 106 14 173 28 260 c 0
 42 347 69 414 108 460 c 0
 147 507 197 530 258 530 c 0
 319 530 367 505 402 456 c 1
 404 456 l 1
 416 520 l 1
 565 520 l 1
324 154 m 0
 345 178 359 208 365 246 c 2
 370 274 l 2
 376 312 372 342 358 366 c 0
 343 388 322 400 294 400 c 0
 265 400 241 388 222 364 c 0
 203 339 189 305 182 260 c 0
 175 215 177 181 189 156 c 0
 201 132 221 120 250 120 c 0
 278 120 303 132 324 154 c 0
262 770 m 1
 521 770 l 1
 608 560 l 1
 427 560 l 1
 383 707 l 1
 381 707 l 1
 290 560 l 1
 110 560 l 1
 262 770 l 1
EndSplineSet
EndChar

StartChar: uni0123
Encoding: 291 291 266
Width: 624
Flags: W
LayerCount: 2
Fore
SplineSet
565 520 m 1
 491 55 l 2
 476 -36 442 -107 386 -156 c 0
 332 -205 260 -230 173 -230 c 0
 107 -230 40 -217 -28 -190 c 1
 20 -75 l 1
 81 -96 130 -107 169 -107 c 0
 262 -107 318 -53 335 55 c 1
 336 64 l 1
 334 64 l 1
 287 15 233 -10 172 -10 c 0
 111 -10 69 13 44 60 c 0
 19 106 14 173 28 260 c 0
 42 347 69 414 108 460 c 0
 147 507 197 530 258 530 c 0
 319 530 367 505 402 456 c 1
 404 456 l 1
 416 520 l 1
 565 520 l 1
324 154 m 0
 345 178 359 208 365 246 c 2
 370 274 l 2
 376 312 372 342 358 366 c 0
 343 388 322 400 294 400 c 0
 265 400 241 388 222 364 c 0
 203 339 189 305 182 260 c 0
 175 215 177 181 189 156 c 0
 201 132 221 120 250 120 c 0
 278 120 303 132 324 154 c 0
400 770 m 1
 547 770 l 1
 443 560 l 1
 247 560 l 1
 400 770 l 1
EndSplineSet
EndChar

StartChar: gdotaccent
Encoding: 289 289 267
Width: 624
Flags: W
LayerCount: 2
Fore
SplineSet
565 520 m 1
 491 55 l 2
 476 -36 442 -107 386 -156 c 0
 332 -205 260 -230 173 -230 c 0
 107 -230 40 -217 -28 -190 c 1
 20 -75 l 1
 81 -96 130 -107 169 -107 c 0
 262 -107 318 -53 335 55 c 1
 336 64 l 1
 334 64 l 1
 287 15 233 -10 172 -10 c 0
 111 -10 69 13 44 60 c 0
 19 106 14 173 28 260 c 0
 42 347 69 414 108 460 c 0
 147 507 197 530 258 530 c 0
 319 530 367 505 402 456 c 1
 404 456 l 1
 416 520 l 1
 565 520 l 1
324 154 m 0
 345 178 359 208 365 246 c 2
 370 274 l 2
 376 312 372 342 358 366 c 0
 343 388 322 400 294 400 c 0
 265 400 241 388 222 364 c 0
 203 339 189 305 182 260 c 0
 175 215 177 181 189 156 c 0
 201 132 221 120 250 120 c 0
 278 120 303 132 324 154 c 0
319 749 m 1
 484 749 l 1
 457 581 l 1
 293 581 l 1
 319 749 l 1
EndSplineSet
EndChar

StartChar: h
Encoding: 104 104 268
Width: 580
Flags: W
LayerCount: 2
Fore
SplineSet
522 480 m 0
 542 447 546 393 535 320 c 2
 484 0 l 1
 328 0 l 1
 373 287 l 2
 379 324 378 351 372 368 c 0
 364 385 350 393 328 393 c 0
 302 393 278 383 256 362 c 0
 233 341 220 317 215 288 c 2
 169 0 l 1
 12 0 l 1
 131 750 l 1
 288 750 l 1
 241 455 l 1
 243 455 l 1
 268 480 294 499 320 512 c 0
 348 524 377 530 409 530 c 0
 464 530 502 513 522 480 c 0
EndSplineSet
EndChar

StartChar: hbar
Encoding: 295 295 269
Width: 643
Flags: W
LayerCount: 2
Fore
SplineSet
584 480 m 0
 604 446 608 393 597 320 c 2
 546 0 l 1
 389 0 l 1
 435 287 l 2
 441 324 440 351 433 368 c 0
 426 385 411 393 390 393 c 0
 364 393 340 383 317 362 c 0
 294 341 281 317 276 288 c 2
 231 0 l 1
 75 0 l 1
 164 563 l 1
 65 563 l 1
 85 687 l 1
 184 687 l 1
 194 750 l 1
 350 750 l 1
 340 687 l 1
 482 687 l 1
 462 563 l 1
 320 563 l 1
 303 455 l 1
 305 455 l 1
 330 480 355 499 382 512 c 0
 409 524 438 530 471 530 c 0
 526 530 564 513 584 480 c 0
EndSplineSet
EndChar

StartChar: hcircumflex
Encoding: 293 293 270
Width: 620
Flags: W
LayerCount: 2
Fore
SplineSet
522 480 m 0
 542 447 546 393 535 320 c 2
 484 0 l 1
 328 0 l 1
 373 287 l 2
 379 324 378 351 372 368 c 0
 364 385 350 393 328 393 c 0
 302 393 278 383 256 362 c 0
 233 341 220 317 215 288 c 2
 169 0 l 1
 12 0 l 1
 131 750 l 1
 288 750 l 1
 241 455 l 1
 243 455 l 1
 268 480 294 499 320 512 c 0
 348 524 377 530 409 530 c 0
 464 530 502 513 522 480 c 0
289 1000 m 1
 548 1000 l 1
 635 790 l 1
 454 790 l 1
 410 937 l 1
 408 937 l 1
 317 790 l 1
 137 790 l 1
 289 1000 l 1
EndSplineSet
EndChar

StartChar: i
Encoding: 105 105 271
Width: 286
Flags: W
LayerCount: 2
Fore
SplineSet
137 747 m 1
 297 747 l 1
 274 603 l 1
 114 603 l 1
 137 747 l 1
101 520 m 1
 261 520 l 1
 179 0 l 1
 19 0 l 1
 101 520 l 1
EndSplineSet
EndChar

StartChar: dotlessi
Encoding: 305 305 272
Width: 286
Flags: W
LayerCount: 2
Fore
SplineSet
101 520 m 1
 261 520 l 1
 179 0 l 1
 19 0 l 1
 101 520 l 1
EndSplineSet
EndChar

StartChar: iacute
Encoding: 237 237 273
Width: 309
Flags: W
LayerCount: 2
Fore
SplineSet
101 520 m 1
 261 520 l 1
 179 0 l 1
 19 0 l 1
 101 520 l 1
262 560 m 1
 115 560 l 1
 219 770 l 1
 415 770 l 1
 262 560 l 1
EndSplineSet
EndChar

StartChar: ibreve
Encoding: 301 301 274
Width: 309
Flags: W
LayerCount: 2
Fore
SplineSet
101 520 m 1
 261 520 l 1
 179 0 l 1
 19 0 l 1
 101 520 l 1
83 584 m 0
 51 601 28 625 12 656 c 0
 -2 687 -7 722 -2 761 c 1
 148 761 l 1
 147 731 151 709 162 694 c 0
 173 680 190 673 215 673 c 0
 239 673 259 680 274 694 c 0
 289 709 301 731 310 761 c 1
 459 761 l 1
 452 722 436 687 412 656 c 0
 386 625 355 601 318 584 c 0
 281 567 240 558 197 558 c 0
 153 558 115 567 83 584 c 0
EndSplineSet
EndChar

StartChar: icircumflex
Encoding: 238 238 275
Width: 309
Flags: W
LayerCount: 2
Fore
SplineSet
101 520 m 1
 261 520 l 1
 179 0 l 1
 19 0 l 1
 101 520 l 1
105 770 m 1
 364 770 l 1
 451 560 l 1
 270 560 l 1
 226 707 l 1
 224 707 l 1
 133 560 l 1
 -47 560 l 1
 105 770 l 1
EndSplineSet
EndChar

StartChar: uni0209
Encoding: 521 521 276
Width: 309
Flags: W
LayerCount: 2
Fore
SplineSet
101 520 m 1
 261 520 l 1
 179 0 l 1
 19 0 l 1
 101 520 l 1
-89 770 m 1
 107 770 l 1
 145 560 l 1
 -2 560 l 1
 -89 770 l 1
161 770 m 1
 357 770 l 1
 395 560 l 1
 248 560 l 1
 161 770 l 1
EndSplineSet
EndChar

StartChar: idieresis
Encoding: 239 239 277
Width: 309
Flags: W
LayerCount: 2
Fore
SplineSet
101 520 m 1
 261 520 l 1
 179 0 l 1
 19 0 l 1
 101 520 l 1
13 749 m 1
 178 749 l 1
 151 581 l 1
 -14 581 l 1
 13 749 l 1
272 749 m 1
 437 749 l 1
 411 581 l 1
 245 581 l 1
 272 749 l 1
EndSplineSet
EndChar

StartChar: i.loclTRK
Encoding: 1114113 -1 278
Width: 309
Flags: W
LayerCount: 2
Fore
SplineSet
101 520 m 1
 261 520 l 1
 179 0 l 1
 19 0 l 1
 101 520 l 1
162 749 m 1
 327 749 l 1
 300 581 l 1
 136 581 l 1
 162 749 l 1
EndSplineSet
EndChar

StartChar: uni1ECB
Encoding: 7883 7883 279
Width: 309
Flags: W
LayerCount: 2
Fore
SplineSet
137 747 m 1
 297 747 l 1
 274 603 l 1
 114 603 l 1
 137 747 l 1
101 520 m 1
 261 520 l 1
 179 0 l 1
 19 0 l 1
 101 520 l 1
34 -61 m 1
 199 -61 l 1
 172 -229 l 1
 8 -229 l 1
 34 -61 l 1
EndSplineSet
EndChar

StartChar: igrave
Encoding: 236 236 280
Width: 309
Flags: W
LayerCount: 2
Fore
SplineSet
101 520 m 1
 261 520 l 1
 179 0 l 1
 19 0 l 1
 101 520 l 1
47 770 m 1
 243 770 l 1
 281 560 l 1
 134 560 l 1
 47 770 l 1
EndSplineSet
EndChar

StartChar: uni1EC9
Encoding: 7881 7881 281
Width: 309
Flags: W
LayerCount: 2
Fore
SplineSet
101 520 m 1
 261 520 l 1
 179 0 l 1
 19 0 l 1
 101 520 l 1
268 630 m 0
 270 643 268 651 261 656 c 0
 254 660 241 662 222 662 c 0
 176 662 127 654 76 639 c 1
 82 758 l 1
 110 764 140 769 173 772 c 0
 206 776 236 778 265 778 c 0
 312 778 348 775 372 770 c 0
 397 765 414 756 422 742 c 0
 432 730 434 711 430 687 c 0
 427 669 422 649 414 626 c 0
 406 604 397 585 388 568 c 1
 247 568 l 1
 258 590 265 611 268 630 c 0
EndSplineSet
EndChar

StartChar: uni020B
Encoding: 523 523 282
Width: 309
Flags: W
LayerCount: 2
Fore
SplineSet
101 520 m 1
 261 520 l 1
 179 0 l 1
 19 0 l 1
 101 520 l 1
334 746 m 0
 366 729 390 705 404 674 c 0
 420 643 424 608 419 569 c 1
 270 569 l 1
 271 599 266 621 254 636 c 0
 244 650 226 657 202 657 c 0
 178 657 158 650 143 636 c 0
 128 621 116 599 108 569 c 1
 -42 569 l 1
 -35 608 -20 643 6 674 c 0
 30 705 62 729 99 746 c 0
 136 763 177 772 220 772 c 0
 264 772 302 763 334 746 c 0
EndSplineSet
EndChar

StartChar: imacron
Encoding: 299 299 283
Width: 309
Flags: W
LayerCount: 2
Fore
SplineSet
101 520 m 1
 261 520 l 1
 179 0 l 1
 19 0 l 1
 101 520 l 1
61 726 m 1
 459 726 l 1
 439 604 l 1
 42 604 l 1
 61 726 l 1
EndSplineSet
EndChar

StartChar: iogonek
Encoding: 303 303 284
Width: 291
Flags: W
LayerCount: 2
Fore
SplineSet
298 749 m 1
 271 581 l 1
 113 581 l 1
 140 749 l 1
 298 749 l 1
235 -199 m 1
 200 -212 160 -219 117 -219 c 0
 58 -219 14 -208 -15 -186 c 0
 -44 -164 -55 -133 -49 -92 c 0
 -46 -72 -38 -53 -26 -34 c 0
 -15 -16 2 3 24 23 c 1
 103 520 l 1
 263 520 l 1
 180 0 l 1
 129 -23 101 -46 98 -69 c 0
 97 -79 100 -87 108 -92 c 0
 116 -97 129 -100 146 -100 c 0
 177 -100 208 -93 239 -80 c 1
 235 -199 l 1
EndSplineSet
EndChar

StartChar: itilde
Encoding: 297 297 285
Width: 309
Flags: W
LayerCount: 2
Fore
SplineSet
101 520 m 1
 261 520 l 1
 179 0 l 1
 19 0 l 1
 101 520 l 1
179 608 m 0
 156 624 137 632 123 632 c 0
 114 632 107 628 102 619 c 0
 97 610 93 594 89 569 c 1
 -40 569 l 1
 -29 638 -12 688 12 722 c 0
 35 754 66 771 104 771 c 0
 141 771 183 755 232 722 c 0
 255 706 274 698 287 698 c 0
 296 698 304 702 308 711 c 0
 314 720 318 736 321 761 c 1
 451 761 l 1
 440 692 423 642 399 608 c 0
 375 576 344 559 305 559 c 0
 270 559 228 575 179 608 c 0
EndSplineSet
EndChar

StartChar: j
Encoding: 106 106 286
Width: 339
Flags: W
LayerCount: 2
Fore
SplineSet
189 747 m 1
 349 747 l 1
 326 603 l 1
 166 603 l 1
 189 747 l 1
-2 -94 m 0
 21 -88 38 -76 50 -58 c 0
 60 -39 69 -9 76 33 c 2
 153 520 l 1
 313 520 l 1
 236 33 l 2
 225 -36 207 -90 182 -127 c 0
 156 -164 119 -191 70 -206 c 0
 21 -222 -45 -230 -130 -230 c 1
 -118 -103 l 1
 -65 -103 -26 -100 -2 -94 c 0
EndSplineSet
EndChar

StartChar: uni0237
Encoding: 567 567 287
Width: 339
Flags: W
LayerCount: 2
Fore
SplineSet
-2 -94 m 0
 21 -88 38 -76 50 -58 c 0
 60 -39 69 -9 76 33 c 2
 153 520 l 1
 313 520 l 1
 236 33 l 2
 225 -36 207 -90 182 -127 c 0
 156 -164 119 -191 70 -206 c 0
 21 -222 -45 -230 -130 -230 c 1
 -118 -103 l 1
 -65 -103 -26 -100 -2 -94 c 0
EndSplineSet
EndChar

StartChar: jcircumflex
Encoding: 309 309 288
Width: 359
Flags: W
LayerCount: 2
Fore
SplineSet
-2 -94 m 0
 21 -88 38 -76 50 -58 c 0
 60 -39 69 -9 76 33 c 2
 153 520 l 1
 313 520 l 1
 236 33 l 2
 225 -36 207 -90 182 -127 c 0
 156 -164 119 -191 70 -206 c 0
 21 -222 -45 -230 -130 -230 c 1
 -118 -103 l 1
 -65 -103 -26 -100 -2 -94 c 0
130 770 m 1
 389 770 l 1
 476 560 l 1
 295 560 l 1
 251 707 l 1
 249 707 l 1
 158 560 l 1
 -22 560 l 1
 130 770 l 1
EndSplineSet
EndChar

StartChar: k
Encoding: 107 107 289
Width: 575
Flags: W
LayerCount: 2
Fore
SplineSet
131 750 m 1
 288 750 l 1
 220 318 l 1
 222 318 l 1
 406 520 l 1
 592 520 l 1
 346 270 l 1
 516 0 l 1
 330 0 l 1
 206 221 l 1
 204 221 l 1
 169 0 l 1
 12 0 l 1
 131 750 l 1
EndSplineSet
EndChar

StartChar: uni0137
Encoding: 311 311 290
Width: 611
Flags: W
LayerCount: 2
Fore
SplineSet
131 750 m 1
 288 750 l 1
 220 318 l 1
 222 318 l 1
 406 520 l 1
 592 520 l 1
 346 270 l 1
 516 0 l 1
 330 0 l 1
 206 221 l 1
 204 221 l 1
 169 0 l 1
 12 0 l 1
 131 750 l 1
160 -250 m 1
 13 -250 l 1
 117 -40 l 1
 313 -40 l 1
 160 -250 l 1
EndSplineSet
EndChar

StartChar: kgreenlandic
Encoding: 312 312 291
Width: 575
Flags: W
LayerCount: 2
Fore
SplineSet
95 520 m 1
 252 520 l 1
 220 318 l 1
 222 318 l 1
 406 520 l 1
 592 520 l 1
 346 270 l 1
 516 0 l 1
 330 0 l 1
 206 221 l 1
 204 221 l 1
 169 0 l 1
 12 0 l 1
 95 520 l 1
EndSplineSet
EndChar

StartChar: l
Encoding: 108 108 292
Width: 358
Flags: W
LayerCount: 2
Fore
SplineSet
137 750 m 1
 297 750 l 1
 208 200 l 2
 202 164 202 140 208 128 c 0
 213 116 227 110 249 110 c 0
 276 110 306 115 337 126 c 1
 336 10 l 1
 289 -3 242 -10 194 -10 c 0
 132 -10 89 4 66 33 c 0
 42 62 35 108 46 173 c 2
 137 750 l 1
EndSplineSet
EndChar

StartChar: lacute
Encoding: 314 314 293
Width: 358
Flags: W
LayerCount: 2
Fore
SplineSet
137 750 m 1
 297 750 l 1
 208 200 l 2
 202 164 202 140 208 128 c 0
 213 116 227 110 249 110 c 0
 276 110 306 115 337 126 c 1
 336 10 l 1
 289 -3 242 -10 194 -10 c 0
 132 -10 89 4 66 33 c 0
 42 62 35 108 46 173 c 2
 137 750 l 1
298 790 m 1
 151 790 l 1
 255 1000 l 1
 451 1000 l 1
 298 790 l 1
EndSplineSet
EndChar

StartChar: lcaron
Encoding: 318 318 294
Width: 536
Flags: W
LayerCount: 2
Fore
SplineSet
137 750 m 1
 297 750 l 1
 208 200 l 2
 202 164 202 140 208 128 c 0
 213 116 227 110 249 110 c 0
 276 110 306 115 337 126 c 1
 336 10 l 1
 289 -3 242 -10 194 -10 c 0
 132 -10 89 4 66 33 c 0
 42 62 35 108 46 173 c 2
 137 750 l 1
414 770 m 1
 594 770 l 1
 430 470 l 1
 299 470 l 1
 414 770 l 1
EndSplineSet
EndChar

StartChar: uni013C
Encoding: 316 316 295
Width: 358
Flags: W
LayerCount: 2
Fore
SplineSet
137 750 m 1
 297 750 l 1
 208 200 l 2
 202 164 202 140 208 128 c 0
 213 116 227 110 249 110 c 0
 276 110 306 115 337 126 c 1
 336 10 l 1
 289 -3 242 -10 194 -10 c 0
 132 -10 89 4 66 33 c 0
 42 62 35 108 46 173 c 2
 137 750 l 1
128 -250 m 1
 -19 -250 l 1
 85 -40 l 1
 281 -40 l 1
 128 -250 l 1
EndSplineSet
EndChar

StartChar: ldot
Encoding: 320 320 296
Width: 529
Flags: W
LayerCount: 2
Fore
SplineSet
137 750 m 1
 297 750 l 1
 208 200 l 2
 202 164 202 140 208 128 c 0
 213 116 227 110 249 110 c 0
 276 110 306 115 337 126 c 1
 336 10 l 1
 289 -3 242 -10 194 -10 c 0
 132 -10 89 4 66 33 c 0
 42 62 35 108 46 173 c 2
 137 750 l 1
329 464 m 1
 503 464 l 1
 475 287 l 1
 301 287 l 1
 329 464 l 1
EndSplineSet
EndChar

StartChar: uni01C9
Encoding: 457 457 297
Width: 663
Flags: W
LayerCount: 2
Fore
SplineSet
137 750 m 1
 297 750 l 1
 208 200 l 2
 202 164 202 140 208 128 c 0
 213 116 227 110 249 110 c 0
 276 110 306 115 337 126 c 1
 336 10 l 1
 289 -3 242 -10 194 -10 c 0
 132 -10 89 4 66 33 c 0
 42 62 35 108 46 173 c 2
 137 750 l 1
493 747 m 1
 653 747 l 1
 630 603 l 1
 470 603 l 1
 493 747 l 1
302 -94 m 0
 325 -88 342 -76 354 -58 c 0
 364 -39 373 -9 380 33 c 2
 457 520 l 1
 617 520 l 1
 540 33 l 2
 529 -36 511 -90 486 -127 c 0
 460 -164 423 -191 374 -206 c 0
 325 -222 259 -230 174 -230 c 1
 186 -103 l 1
 239 -103 278 -100 302 -94 c 0
EndSplineSet
EndChar

StartChar: lslash
Encoding: 322 322 298
Width: 482
Flags: W
LayerCount: 2
Fore
SplineSet
493 398 m 1
 42 218 l 1
 15 332 l 1
 465 512 l 1
 493 398 l 1
235 750 m 1
 395 750 l 1
 306 200 l 2
 300 164 300 140 306 128 c 0
 311 116 325 110 347 110 c 0
 374 110 404 115 435 126 c 1
 434 10 l 1
 387 -3 340 -10 292 -10 c 0
 230 -10 187 4 164 33 c 0
 140 62 133 108 144 173 c 2
 235 750 l 1
EndSplineSet
EndChar

StartChar: m
Encoding: 109 109 299
Width: 811
Flags: W
LayerCount: 2
Fore
SplineSet
756 480 m 0
 774 447 776 393 765 320 c 2
 714 0 l 1
 560 0 l 1
 606 287 l 2
 612 324 612 350 607 368 c 0
 602 384 591 393 574 393 c 0
 555 393 536 383 519 363 c 0
 502 343 491 319 486 290 c 2
 440 0 l 1
 286 0 l 1
 332 287 l 2
 338 324 338 350 334 368 c 0
 328 384 317 393 300 393 c 0
 280 393 262 383 244 362 c 0
 228 341 217 316 212 285 c 2
 166 0 l 1
 12 0 l 1
 95 520 l 1
 240 520 l 1
 232 456 l 1
 234 456 l 1
 256 481 279 500 304 512 c 0
 328 524 355 530 384 530 c 0
 443 530 479 505 492 456 c 1
 493 456 l 1
 542 505 596 530 657 530 c 0
 706 530 740 513 756 480 c 0
EndSplineSet
EndChar

StartChar: n
Encoding: 110 110 300
Width: 580
Flags: W
LayerCount: 2
Fore
SplineSet
521 480 m 0
 542 446 546 393 535 320 c 2
 484 0 l 1
 328 0 l 1
 373 287 l 2
 379 324 378 350 371 368 c 0
 364 384 349 393 327 393 c 0
 301 393 277 383 255 362 c 0
 233 341 220 317 215 288 c 2
 169 0 l 1
 12 0 l 1
 95 520 l 1
 244 520 l 1
 235 455 l 1
 237 455 l 1
 262 480 289 499 316 512 c 0
 344 524 374 530 407 530 c 0
 462 530 500 513 521 480 c 0
EndSplineSet
EndChar

StartChar: nacute
Encoding: 324 324 301
Width: 620
Flags: W
LayerCount: 2
Fore
SplineSet
521 480 m 0
 542 446 546 393 535 320 c 2
 484 0 l 1
 328 0 l 1
 373 287 l 2
 379 324 378 350 371 368 c 0
 364 384 349 393 327 393 c 0
 301 393 277 383 255 362 c 0
 233 341 220 317 215 288 c 2
 169 0 l 1
 12 0 l 1
 95 520 l 1
 244 520 l 1
 235 455 l 1
 237 455 l 1
 262 480 289 499 316 512 c 0
 344 524 374 530 407 530 c 0
 462 530 500 513 521 480 c 0
418 560 m 1
 271 560 l 1
 375 770 l 1
 571 770 l 1
 418 560 l 1
EndSplineSet
EndChar

StartChar: ncaron
Encoding: 328 328 302
Width: 620
Flags: W
LayerCount: 2
Fore
SplineSet
521 480 m 0
 542 446 546 393 535 320 c 2
 484 0 l 1
 328 0 l 1
 373 287 l 2
 379 324 378 350 371 368 c 0
 364 384 349 393 327 393 c 0
 301 393 277 383 255 362 c 0
 233 341 220 317 215 288 c 2
 169 0 l 1
 12 0 l 1
 95 520 l 1
 244 520 l 1
 235 455 l 1
 237 455 l 1
 262 480 289 499 316 512 c 0
 344 524 374 530 407 530 c 0
 462 530 500 513 521 480 c 0
141 770 m 1
 321 770 l 1
 366 623 l 1
 368 623 l 1
 458 770 l 1
 639 770 l 1
 486 560 l 1
 227 560 l 1
 141 770 l 1
EndSplineSet
EndChar

StartChar: uni0146
Encoding: 326 326 303
Width: 620
Flags: W
LayerCount: 2
Fore
SplineSet
521 480 m 0
 542 446 546 393 535 320 c 2
 484 0 l 1
 328 0 l 1
 373 287 l 2
 379 324 378 350 371 368 c 0
 364 384 349 393 327 393 c 0
 301 393 277 383 255 362 c 0
 233 341 220 317 215 288 c 2
 169 0 l 1
 12 0 l 1
 95 520 l 1
 244 520 l 1
 235 455 l 1
 237 455 l 1
 262 480 289 499 316 512 c 0
 344 524 374 530 407 530 c 0
 462 530 500 513 521 480 c 0
183 -250 m 1
 36 -250 l 1
 140 -40 l 1
 336 -40 l 1
 183 -250 l 1
EndSplineSet
EndChar

StartChar: eng
Encoding: 331 331 304
Width: 580
Flags: W
LayerCount: 2
Fore
SplineSet
521 480 m 0
 542 446 546 393 535 320 c 2
 484 -2 l 2
 475 -57 462 -100 444 -133 c 0
 427 -166 403 -189 374 -204 c 0
 344 -219 306 -226 259 -226 c 0
 217 -226 175 -221 134 -211 c 1
 173 -77 l 1
 198 -85 222 -89 247 -89 c 0
 272 -89 290 -83 302 -70 c 0
 314 -57 323 -35 328 -2 c 2
 373 287 l 2
 379 324 378 350 371 368 c 0
 364 384 349 393 327 393 c 0
 301 393 277 383 255 362 c 0
 233 341 220 317 215 288 c 2
 169 0 l 1
 12 0 l 1
 95 520 l 1
 244 520 l 1
 235 455 l 1
 237 455 l 1
 262 480 289 499 316 512 c 0
 344 524 374 530 407 530 c 0
 462 530 500 513 521 480 c 0
EndSplineSet
EndChar

StartChar: uni01CC
Encoding: 460 460 305
Width: 979
Flags: W
LayerCount: 2
Fore
SplineSet
521 480 m 0
 542 446 546 393 535 320 c 2
 484 0 l 1
 328 0 l 1
 373 287 l 2
 379 324 378 350 371 368 c 0
 364 384 349 393 327 393 c 0
 301 393 277 383 255 362 c 0
 233 341 220 317 215 288 c 2
 169 0 l 1
 12 0 l 1
 95 520 l 1
 244 520 l 1
 235 455 l 1
 237 455 l 1
 262 480 289 499 316 512 c 0
 344 524 374 530 407 530 c 0
 462 530 500 513 521 480 c 0
809 747 m 1
 969 747 l 1
 946 603 l 1
 786 603 l 1
 809 747 l 1
618 -94 m 0
 641 -88 658 -76 670 -58 c 0
 680 -39 689 -9 696 33 c 2
 773 520 l 1
 933 520 l 1
 856 33 l 2
 845 -36 827 -90 802 -127 c 0
 776 -164 739 -191 690 -206 c 0
 641 -222 575 -230 490 -230 c 1
 502 -103 l 1
 555 -103 594 -100 618 -94 c 0
EndSplineSet
EndChar

StartChar: ntilde
Encoding: 241 241 306
Width: 620
Flags: W
LayerCount: 2
Fore
SplineSet
521 480 m 0
 542 446 546 393 535 320 c 2
 484 0 l 1
 328 0 l 1
 373 287 l 2
 379 324 378 350 371 368 c 0
 364 384 349 393 327 393 c 0
 301 393 277 383 255 362 c 0
 233 341 220 317 215 288 c 2
 169 0 l 1
 12 0 l 1
 95 520 l 1
 244 520 l 1
 235 455 l 1
 237 455 l 1
 262 480 289 499 316 512 c 0
 344 524 374 530 407 530 c 0
 462 530 500 513 521 480 c 0
335 608 m 0
 312 624 293 632 279 632 c 0
 270 632 263 628 258 619 c 0
 253 610 249 594 245 569 c 1
 116 569 l 1
 127 638 144 688 168 722 c 0
 191 754 222 771 260 771 c 0
 297 771 339 755 388 722 c 0
 411 706 430 698 443 698 c 0
 452 698 460 702 464 711 c 0
 470 720 474 736 477 761 c 1
 607 761 l 1
 596 692 579 642 555 608 c 0
 531 576 500 559 461 559 c 0
 426 559 384 575 335 608 c 0
EndSplineSet
EndChar

StartChar: o
Encoding: 111 111 307
Width: 563
Flags: W
LayerCount: 2
Fore
SplineSet
59 60 m 0
 23 106 12 173 25 260 c 0
 39 347 71 414 122 460 c 0
 173 507 239 530 321 530 c 0
 402 530 461 507 497 460 c 0
 533 413 544 347 530 260 c 0
 516 173 484 107 433 60 c 0
 382 13 316 -10 235 -10 c 0
 154 -10 95 13 59 60 c 0
374 260 m 0
 389 358 365 407 302 407 c 0
 270 407 244 395 224 370 c 0
 204 346 190 309 182 260 c 0
 174 211 176 174 188 150 c 0
 200 125 222 113 255 113 c 0
 319 113 359 162 374 260 c 0
EndSplineSet
EndChar

StartChar: oacute
Encoding: 243 243 308
Width: 599
Flags: W
LayerCount: 2
Fore
SplineSet
59 60 m 0
 23 106 12 173 25 260 c 0
 39 347 71 414 122 460 c 0
 173 507 239 530 321 530 c 0
 402 530 461 507 497 460 c 0
 533 413 544 347 530 260 c 0
 516 173 484 107 433 60 c 0
 382 13 316 -10 235 -10 c 0
 154 -10 95 13 59 60 c 0
374 260 m 0
 389 358 365 407 302 407 c 0
 270 407 244 395 224 370 c 0
 204 346 190 309 182 260 c 0
 174 211 176 174 188 150 c 0
 200 125 222 113 255 113 c 0
 319 113 359 162 374 260 c 0
407 560 m 1
 260 560 l 1
 364 770 l 1
 560 770 l 1
 407 560 l 1
EndSplineSet
EndChar

StartChar: obreve
Encoding: 335 335 309
Width: 599
Flags: W
LayerCount: 2
Fore
SplineSet
59 60 m 0
 23 106 12 173 25 260 c 0
 39 347 71 414 122 460 c 0
 173 507 239 530 321 530 c 0
 402 530 461 507 497 460 c 0
 533 413 544 347 530 260 c 0
 516 173 484 107 433 60 c 0
 382 13 316 -10 235 -10 c 0
 154 -10 95 13 59 60 c 0
374 260 m 0
 389 358 365 407 302 407 c 0
 270 407 244 395 224 370 c 0
 204 346 190 309 182 260 c 0
 174 211 176 174 188 150 c 0
 200 125 222 113 255 113 c 0
 319 113 359 162 374 260 c 0
228 584 m 0
 196 601 172 625 158 656 c 0
 142 687 138 722 143 761 c 1
 293 761 l 1
 292 731 296 709 307 694 c 0
 318 680 335 673 360 673 c 0
 384 673 404 680 419 694 c 0
 434 709 446 731 455 761 c 1
 604 761 l 1
 597 722 582 687 556 656 c 0
 532 625 500 601 463 584 c 0
 426 567 385 558 342 558 c 0
 298 558 260 567 228 584 c 0
EndSplineSet
EndChar

StartChar: ocircumflex
Encoding: 244 244 310
Width: 599
Flags: W
LayerCount: 2
Fore
SplineSet
59 60 m 0
 23 106 12 173 25 260 c 0
 39 347 71 414 122 460 c 0
 173 507 239 530 321 530 c 0
 402 530 461 507 497 460 c 0
 533 413 544 347 530 260 c 0
 516 173 484 107 433 60 c 0
 382 13 316 -10 235 -10 c 0
 154 -10 95 13 59 60 c 0
374 260 m 0
 389 358 365 407 302 407 c 0
 270 407 244 395 224 370 c 0
 204 346 190 309 182 260 c 0
 174 211 176 174 188 150 c 0
 200 125 222 113 255 113 c 0
 319 113 359 162 374 260 c 0
249 770 m 1
 508 770 l 1
 595 560 l 1
 414 560 l 1
 370 707 l 1
 368 707 l 1
 277 560 l 1
 97 560 l 1
 249 770 l 1
EndSplineSet
EndChar

StartChar: uni1ED1
Encoding: 7889 7889 311
Width: 567
Flags: W
LayerCount: 2
Fore
SplineSet
347 707 m 1
 258 560 l 1
 85 560 l 1
 233 770 l 1
 468 770 l 1
 555 950 l 1
 744 950 l 1
 595 740 l 1
 494 740 l 1
 565 560 l 1
 391 560 l 1
 349 707 l 1
 347 707 l 1
497 460 m 0
 533 413 544 347 530 260 c 0
 516 173 484 107 433 60 c 0
 382 13 316 -10 235 -10 c 0
 153 -10 94 13 58 60 c 0
 23 106 12 173 25 260 c 0
 39 347 71 414 122 460 c 0
 173 507 239 530 321 530 c 0
 402 530 461 507 497 460 c 0
374 260 m 0
 389 358 365 407 302 407 c 0
 270 407 244 395 224 370 c 0
 204 346 190 309 182 260 c 0
 174 211 176 174 188 150 c 0
 200 125 222 113 255 113 c 0
 319 113 359 162 374 260 c 0
EndSplineSet
EndChar

StartChar: uni1ED9
Encoding: 7897 7897 312
Width: 599
Flags: W
LayerCount: 2
Fore
SplineSet
59 60 m 0
 23 106 12 173 25 260 c 0
 39 347 71 414 122 460 c 0
 173 507 239 530 321 530 c 0
 402 530 461 507 497 460 c 0
 533 413 544 347 530 260 c 0
 516 173 484 107 433 60 c 0
 382 13 316 -10 235 -10 c 0
 154 -10 95 13 59 60 c 0
374 260 m 0
 389 358 365 407 302 407 c 0
 270 407 244 395 224 370 c 0
 204 346 190 309 182 260 c 0
 174 211 176 174 188 150 c 0
 200 125 222 113 255 113 c 0
 319 113 359 162 374 260 c 0
178 -61 m 1
 343 -61 l 1
 316 -229 l 1
 152 -229 l 1
 178 -61 l 1
249 770 m 1
 508 770 l 1
 595 560 l 1
 414 560 l 1
 370 707 l 1
 368 707 l 1
 277 560 l 1
 97 560 l 1
 249 770 l 1
EndSplineSet
EndChar

StartChar: uni1ED3
Encoding: 7891 7891 313
Width: 567
Flags: W
LayerCount: 2
Fore
SplineSet
217 740 m 1
 116 740 l 1
 34 950 l 1
 223 950 l 1
 252 770 l 1
 488 770 l 1
 569 560 l 1
 396 560 l 1
 353 707 l 1
 352 707 l 1
 263 560 l 1
 89 560 l 1
 217 740 l 1
501 460 m 0
 537 413 548 347 535 260 c 0
 521 173 489 107 438 60 c 0
 387 13 321 -10 240 -10 c 0
 158 -10 99 13 63 60 c 0
 27 106 16 173 30 260 c 0
 44 347 76 414 127 460 c 0
 178 507 244 530 325 530 c 0
 406 530 465 507 501 460 c 0
379 260 m 0
 394 358 370 407 306 407 c 0
 274 407 248 395 228 370 c 0
 208 346 194 309 187 260 c 0
 179 211 181 174 193 150 c 0
 205 125 227 113 259 113 c 0
 324 113 364 162 379 260 c 0
EndSplineSet
EndChar

StartChar: uni1ED5
Encoding: 7893 7893 314
Width: 563
Flags: W
LayerCount: 2
Fore
SplineSet
258 560 m 1
 85 560 l 1
 233 770 l 1
 469 770 l 1
 473 782 476 793 477 802 c 0
 479 815 477 823 470 828 c 0
 464 832 452 834 433 834 c 0
 389 834 342 826 291 811 c 1
 298 930 l 1
 325 936 354 941 385 944 c 0
 416 948 446 950 474 950 c 0
 519 950 554 947 578 942 c 0
 601 937 617 928 626 914 c 0
 634 902 636 883 633 859 c 0
 630 841 625 821 618 798 c 0
 610 776 601 757 592 740 c 1
 494 740 l 1
 565 560 l 1
 391 560 l 1
 349 707 l 1
 347 707 l 1
 258 560 l 1
497 460 m 0
 533 413 544 347 530 260 c 0
 516 173 484 107 433 60 c 0
 382 13 316 -10 235 -10 c 0
 153 -10 94 13 58 60 c 0
 23 106 12 173 25 260 c 0
 39 347 71 414 122 460 c 0
 173 507 239 530 321 530 c 0
 402 530 461 507 497 460 c 0
374 260 m 0
 389 358 365 407 302 407 c 0
 270 407 244 395 224 370 c 0
 204 346 190 309 182 260 c 0
 174 211 176 174 188 150 c 0
 200 125 222 113 255 113 c 0
 319 113 359 162 374 260 c 0
EndSplineSet
EndChar

